<!--?xml version="1.0" encoding="UTF-8" standalone="no"?-->

<svg width="100%" height="100%" viewBox="0 0 3000 3000" version="1.1" xmlns="http://www.w3.org/2000/svg" xmlns:xlink="http://www.w3.org/1999/xlink" xml:space="preserve" xmlns:serif="http://www.serif.com/" style="fill-rule:evenodd;clip-rule:evenodd;stroke-linecap:round;stroke-linejoin:round;stroke-miterlimit:1.5;">
    <g transform="matrix(1,0,0,1,-3538.75,-10133.4)">
        <g id="radial-4corners" transform="matrix(0.994027,0,0,0.994027,3489.7,6563.52)">
            <rect x="49.347" y="3591.29" width="3018.03" height="3018.03" style="fill: rgb(234, 169, 134); stroke-width: 0;"></rect>
            <clipPath id="_clip1">
                <rect x="49.347" y="3591.29" width="3018.03" height="3018.03" style="fill: rgb(234, 169, 134); stroke-width: 0;"></rect>
            </clipPath>
            <g clip-path="url(#_clip1)">
                <g transform="matrix(1.00601,0,0,1.00601,-24923.9,3267.7)">
                    <rect x="25824" y="1821.66" width="250" height="250" style="fill: rgb(234, 169, 134); stroke: black; stroke-width: 0;"></rect>
                </g>
                <g transform="matrix(0.868064,0,0,0.868064,618.912,5693.54)">
                    <path d="M502.779,187.469L501.485,185.778L502.779,185.778L502.779,187.469Z" style="fill: rgb(234, 169, 134); stroke: black; stroke-width: 0;"></path>
                </g>
                <g transform="matrix(1.00601,0,0,1.00601,-24923.9,3267.7)">
                    <path d="M25073.8,3321.66L24824,3321.66L24824,3071.66C24961.9,3071.66 25073.8,3183.56 25073.8,3321.39L25073.8,3321.66Z" style="fill: rgb(234, 140, 134); stroke: black; stroke-width: 0;"></path>
                </g>
                <g transform="matrix(1.00601,0,0,1.00601,-24923.9,3267.7)">
                    <path d="M25074,3071.66L24824,3071.66L24824,2821.67C24915.1,2821.78 25000.5,2846.22 25074,2888.84L25074,3071.66Z" style="fill: rgb(234, 169, 134); stroke: black; stroke-width: 0;"></path>
                </g>
                <g transform="matrix(1.00601,0,0,1.00601,-24923.9,3267.7)">
                    <path d="M25074,2821.66L24824,2821.66L24824,2571.67C24911.7,2571.76 24995.9,2586.91 25074,2614.69L25074,2821.66Z" style="fill: rgb(55, 92, 10); stroke: black; stroke-width: 0;"></path>
                </g>
                <g transform="matrix(1.00601,0,0,1.00601,-24923.9,3267.7)">
                    <path d="M25074,2571.66L24824,2571.66L24824,2322.61L24840.2,2322.74C24840.2,2322.74 24856.3,2323.12 24856.3,2323.12L24872.3,2323.76C24941.6,2327.06 25009.1,2337.43 25074,2354.17L25074,2571.66Z" style="fill: rgb(79, 121, 27); stroke: black; stroke-width: 0;"></path>
                </g>
                <g transform="matrix(1.00601,0,0,1.00601,-24923.9,3267.7)">
                    <path d="M25074,2321.66L24824,2321.66L24824,2073.09L24824.5,2073.09C24910,2073.09 24993.4,2081.68 25074,2098.06L25074,2321.66Z" style="fill: rgb(143, 194, 81); stroke: black; stroke-width: 0;"></path>
                </g>
                <g transform="matrix(1.00601,0,0,1.00601,-24923.9,3267.7)">
                    <path d="M25074,2071.66L24824,2071.66L24824,1821.66C24909.2,1821.66 24992.8,1828.77 25074,1842.45L25074,2071.66Z" style="fill: rgb(189, 234, 134); stroke: black; stroke-width: 0;"></path>
                </g>
                <g transform="matrix(1.00601,0,0,1.00601,-24923.9,3267.7)">
                    <path d="M25074,3071.66L25074,3321.66L25073.8,3321.66L25073.8,3321.39C25073.8,3183.56 24961.9,3071.66 24824,3071.66L25074,3071.66Z" style="fill: rgb(234, 169, 134); stroke: black; stroke-width: 0;"></path>
                </g>
                <g transform="matrix(1.00601,0,0,1.00601,-24923.9,3267.7)">
                    <path d="M25074,3071.66L25074,2888.84C25149.9,2932.72 25213.1,2995.9 25257.2,3071.66L25074,3071.66Z" style="fill: rgb(234, 169, 134); stroke: black; stroke-width: 0;"></path>
                </g>
                <g transform="matrix(1.00601,0,0,1.00601,-24923.9,3267.7)">
                    <path d="M25074,3321.66L25074,3071.66L25257.2,3071.66C25296.1,3138.61 25320,3215.38 25324,3297.34L25324,3321.66L25074,3321.66Z" style="fill: rgb(234, 169, 134); stroke: black; stroke-width: 0;"></path>
                </g>
                <g transform="matrix(1.00601,0,0,1.00601,-24923.9,3267.7)">
                    <path d="M25074,2821.66L25074,2888.84C25000.5,2846.22 24915.1,2821.78 24824,2821.67L24824,2821.66L25074,2821.66Z" style="fill: rgb(55, 92, 10); stroke: black; stroke-width: 0;"></path>
                </g>
                <g transform="matrix(1.00601,0,0,1.00601,-24923.9,3267.7)">
                    <path d="M25074,2821.66L25074,2614.69C25167.2,2647.72 25251.9,2698.63 25324,2763.29L25324,2821.66L25074,2821.66Z" style="fill: rgb(55, 92, 10); stroke: black; stroke-width: 0;"></path>
                </g>
                <g transform="matrix(1.00601,0,0,1.00601,-24923.9,3267.7)">
                    <path d="M25074,2571.66L25074,2614.69C24995.9,2586.89 24911.7,2571.75 24824,2571.67L24824,2571.66L25074,2571.66Z" style="fill: rgb(79, 121, 27); stroke: black; stroke-width: 0;"></path>
                </g>
                <g transform="matrix(1.00601,0,0,1.00601,-24923.9,3267.7)">
                    <path d="M25074,2571.66L25074,2354.17C25162.7,2377.03 25246.7,2411.77 25324,2456.62L25324,2571.66L25074,2571.66Z" style="fill: rgb(79, 121, 27); stroke: black; stroke-width: 0;"></path>
                </g>
                <g transform="matrix(1.00601,0,0,1.00601,-24923.9,3267.7)">
                    <path d="M25074,2321.66L25074,2354.17C25009.1,2337.43 24941.6,2327.06 24872.3,2323.76L24856.3,2323.12L24840.2,2322.74L24824,2322.61C24824,2322.61 24824,2321.66 24824,2321.66L25074,2321.66Z" style="fill: rgb(143, 194, 81); stroke: black; stroke-width: 0;"></path>
                </g>
                <g transform="matrix(1.00601,0,0,1.00601,-24923.9,3267.7)">
                    <path d="M25074,2321.66L25074,2098.06C25161,2115.71 25244.7,2142.41 25324,2177.15L25324,2321.66L25074,2321.66Z" style="fill: rgb(143, 194, 81); stroke: black; stroke-width: 0;"></path>
                </g>
                <g transform="matrix(1.00601,0,0,1.00601,-24923.9,3267.7)">
                    <path d="M25074,2071.66L25074,2098.06C24993.4,2081.68 24910,2073.09 24824.5,2073.09L24824,2073.09L24824,2071.66L25074,2071.66Z" style="fill: rgb(189, 234, 134); stroke: black; stroke-width: 0;"></path>
                </g>
                <g transform="matrix(1.00601,0,0,1.00601,-24923.9,3267.7)">
                    <path d="M25074,2071.66L25074,1842.45C25160.1,1856.91 25243.6,1878.69 25324,1907.16L25324,2071.66L25074,2071.66Z" style="fill: rgb(189, 234, 134); stroke: black; stroke-width: 0;"></path>
                </g>
                <g transform="matrix(1.00601,0,0,1.00601,-24923.9,3267.7)">
                    <path d="M25324,3071.66L25324,3297.34C25320,3215.38 25296.1,3138.61 25257.2,3071.66L25324,3071.66Z" style="fill: rgb(55, 92, 10); stroke: black; stroke-width: 0;"></path>
                </g>
                <g transform="matrix(1.00601,0,0,1.00601,-24923.9,3267.7)">
                    <path d="M25324,2821.66L25324,3071.66L25257.2,3071.66C25213.1,2995.92 25149.9,2932.74 25074,2888.84L25074,2821.66L25324,2821.66Z" style="fill: rgb(55, 92, 10); stroke: black; stroke-width: 0;"></path>
                </g>
                <g transform="matrix(1.00601,0,0,1.00601,-24923.9,3267.7)">
                    <path d="M25324,2571.66L25324,2763.29C25251.9,2698.63 25167.2,2647.72 25074,2614.69L25074,2821.66C25074,2821.66 25074,2571.66 25074,2571.66L25324,2571.66Z" style="fill: rgb(79, 121, 27); stroke: black; stroke-width: 0;"></path>
                </g>
                <g transform="matrix(1.00601,0,0,1.00601,-24923.9,3267.7)">
                    <path d="M25324,2321.66L25324,2456.62C25246.7,2411.77 25162.7,2377.03 25074,2354.17L25074,2321.66L25324,2321.66Z" style="fill: rgb(143, 194, 81); stroke: black; stroke-width: 0;"></path>
                </g>
                <g transform="matrix(1.00601,0,0,1.00601,-24923.9,3267.7)">
                    <path d="M25324,2071.66L25324,2177.15C25244.7,2142.41 25161,2115.71 25074,2098.06L25074,2071.66L25324,2071.66Z" style="fill: rgb(189, 234, 134); stroke: black; stroke-width: 0;"></path>
                </g>
                <g transform="matrix(1.00601,0,0,1.00601,-24923.9,3267.7)">
                    <path d="M25324,1821.66L25324,1907.16C25243.6,1878.69 25160,1856.89 25074,1842.45L25074,1821.66L25324,1821.66Z" style="fill: rgb(234, 140, 134); stroke: black; stroke-width: 0;"></path>
                </g>
                <g transform="matrix(1.00601,0,0,1.00601,-24923.9,3267.7)">
                    <path d="M25074,1821.66L25074,1842.45C24992.8,1828.77 24909.2,1821.66 24824,1821.66L25074,1821.66Z" style="fill: rgb(234, 140, 134); stroke: black; stroke-width: 0;"></path>
                </g>
                <g transform="matrix(1.00601,0,0,1.00601,-24923.9,3267.7)">
                    <path d="M25324,1821.66L25574,1821.66L25574,2022.62C25495,1976.84 25411.4,1938.07 25324,1907.16L25324,1821.66Z" style="fill: rgb(234, 140, 134); stroke: black; stroke-width: 0;"></path>
                </g>
                <g transform="matrix(1.00601,0,0,1.00601,-24923.9,3267.7)">
                    <path d="M25574,2071.66L25324,2071.66L25324,1907.16C25411.4,1938.07 25495,1976.84 25574,2022.62L25574,2071.66Z" style="fill: rgb(189, 234, 134); stroke: black; stroke-width: 0;"></path>
                </g>
                <g transform="matrix(1.00601,0,0,1.00601,-24923.9,3267.7)">
                    <path d="M25324,2071.66L25574,2071.66L25574,2321.66L25572.1,2321.66C25495.7,2264.45 25412.5,2215.83 25324,2177.15L25324,2071.66Z" style="fill: rgb(143, 194, 81); stroke: black; stroke-width: 0;"></path>
                </g>
                <g transform="matrix(1.00601,0,0,1.00601,-24923.9,3267.7)">
                    <path d="M25572.1,2321.66L25324,2321.66L25324,2177.15C25412.5,2215.83 25495.7,2264.45 25572.1,2321.66Z" style="fill: rgb(143, 194, 81); stroke: black; stroke-width: 0;"></path>
                </g>
                <g transform="matrix(1.00601,0,0,1.00601,-24923.9,3267.7)">
                    <path d="M25484.1,2571.66L25324,2571.66L25324,2456.62C25381.2,2489.7 25434.8,2528.28 25484.1,2571.66Z" style="fill: rgb(79, 121, 27); stroke: black; stroke-width: 0;"></path>
                </g>
                <g transform="matrix(1.00601,0,0,1.00601,-24923.9,3267.7)">
                    <path d="M25484.1,2571.66L25574,2571.66L25574,2661.47C25546,2629.67 25515.9,2599.67 25484.1,2571.66Z" style="fill: rgb(143, 194, 81); stroke: black; stroke-width: 0;"></path>
                </g>
                <g transform="matrix(1.00601,0,0,1.00601,-24923.9,3267.7)">
                    <path d="M25382.4,2821.66L25324,2821.66L25324,2763.29C25344.6,2781.67 25364,2801.15 25382.4,2821.66Z" style="fill: rgb(55, 92, 10); stroke: black; stroke-width: 0;"></path>
                </g>
                <g transform="matrix(1.00601,0,0,1.00601,-24923.9,3267.7)">
                    <path d="M25574,2821.66L25382.4,2821.66C25364,2801.15 25344.6,2781.67 25324,2763.29L25324,2821.66C25324,2821.66 25324,2571.66 25324,2571.66L25484.1,2571.66C25515.9,2599.67 25546,2629.67 25574,2661.47L25574,2821.66Z" style="fill: rgb(55, 92, 10); stroke: black; stroke-width: 0;"></path>
                </g>
                <g transform="matrix(1.00601,0,0,1.00601,-24923.9,3267.7)">
                    <path d="M25531.1,3071.66L25324,3071.66L25324,2821.66L25382.4,2821.66C25447.1,2893.79 25498.1,2978.5 25531.1,3071.66Z" style="fill: rgb(55, 92, 10); stroke: black; stroke-width: 0;"></path>
                </g>
                <g transform="matrix(1.00601,0,0,1.00601,-24923.9,3267.7)">
                    <path d="M25531.1,3071.66L25574,3071.66L25574,3309.45C25572.6,3226.18 25557.6,3146.21 25531.1,3071.66Z" style="fill: rgb(79, 121, 27); stroke: black; stroke-width: 0;"></path>
                </g>
                <g transform="matrix(1.00601,0,0,1.00601,-24923.9,3267.7)">
                    <path d="M25574,2821.66L25574,3071.66L25531.1,3071.66C25498.1,2978.5 25447.1,2893.79 25382.4,2821.66L25574,2821.66Z" style="fill: rgb(79, 121, 27); stroke: black; stroke-width: 0;"></path>
                </g>
                <g transform="matrix(1.00601,0,0,1.00601,-24923.9,3267.7)">
                    <path d="M25574,3321.66L25324,3321.66L25324,3071.66L25531.1,3071.66C25557.6,3146.21 25572.6,3226.18 25574,3309.45L25574,3321.66Z" style="fill: rgb(55, 92, 10); stroke: black; stroke-width: 0;"></path>
                </g>
                <g transform="matrix(1.00601,0,0,1.00601,-24923.9,3267.7)">
                    <path d="M25574,1821.66L25824,1821.66L25824,2071.66L25653,2071.66C25627.2,2054.52 25600.9,2038.16 25574,2022.62L25574,1821.66Z" style="fill: rgb(234, 169, 134); stroke: black; stroke-width: 0;"></path>
                </g>
                <g transform="matrix(1.00601,0,0,1.00601,-24923.9,3267.7)">
                    <path d="M25653,2071.66L25574,2071.66L25574,2022.62C25600.9,2038.16 25627.2,2054.51 25653,2071.66Z" style="fill: rgb(234, 140, 134); stroke: black; stroke-width: 0;"></path>
                </g>
                <g transform="matrix(1.00601,0,0,1.00601,-24923.9,3267.7)">
                    <path d="M25824,2321.66L25574,2321.66L25574,2071.66L25653,2071.66C25713.2,2111.69 25770.4,2155.95 25824,2204.03L25824,2321.66Z" style="fill: rgb(189, 234, 134); stroke: black; stroke-width: 0;"></path>
                </g>
                <g transform="matrix(1.00601,0,0,1.00601,-24923.9,3267.7)">
                    <path d="M25574,2321.66L25824,2321.66L25824,2571.66L25822.9,2571.66C25752.1,2477.58 25668.2,2393.86 25574,2323.14L25574,2321.66Z" style="fill: rgb(143, 194, 81); stroke: black; stroke-width: 0;"></path>
                </g>
                <g transform="matrix(1.00601,0,0,1.00601,-7309.95,-14601.9)">
                    <path d="M8063.39,20084.5L8065.34,20086L8065.34,20084.5L8063.39,20084.5Z" style="fill: rgb(234, 169, 134); stroke: black; stroke-width: 0;"></path>
                </g>
                <g transform="matrix(1.00601,0,0,1.00601,-24923.9,3267.7)">
                    <path d="M25822.9,2571.66L25574,2571.66L25574,2323.14C25668.2,2393.86 25752.1,2477.57 25822.9,2571.66Z" style="fill: rgb(143, 194, 81); stroke: black; stroke-width: 0;"></path>
                </g>
                <g transform="matrix(1.00601,0,0,1.00601,-24923.9,3267.7)">
                    <path d="M25574,2571.66L25822.9,2571.66L25824,2573.12L25824,2821.66L25689.5,2821.66C25656.3,2764.42 25617.5,2710.77 25574,2661.47L25574,2571.66Z" style="fill: rgb(79, 121, 27); stroke: black; stroke-width: 0;"></path>
                </g>
                <g transform="matrix(1.00601,0,0,1.00601,-24923.9,3267.7)">
                    <path d="M25689.5,2821.66L25574,2821.66L25574,2661.47C25617.5,2710.77 25656.3,2764.42 25689.5,2821.66Z" style="fill: rgb(79, 121, 27); stroke: black; stroke-width: 0;"></path>
                </g>
                <g transform="matrix(1.00601,0,0,1.00601,-24923.9,3267.7)">
                    <path d="M25792.2,3071.66L25824,3071.66L25824,3321.66L25824,3321.66C25824,3235.32 25812.9,3151.53 25792.2,3071.66Z" style="fill: rgb(143, 194, 81); stroke: black; stroke-width: 0;"></path>
                </g>
                <g transform="matrix(1.00601,0,0,1.00601,-24923.9,3267.7)">
                    <path d="M25689.5,2821.66L25824,2821.66L25824,3071.66L25792.2,3071.66C25769.3,2982.96 25734.4,2899.02 25689.5,2821.66Z" style="fill: rgb(143, 194, 81); stroke: black; stroke-width: 0;"></path>
                </g>
                <g transform="matrix(1.00601,0,0,1.00601,-24923.9,3267.7)">
                    <path d="M25792.2,3071.66L25574,3071.66L25574,2821.66L25689.5,2821.66C25734.4,2899.02 25769.3,2982.96 25792.2,3071.66Z" style="fill: rgb(79, 121, 27); stroke: black; stroke-width: 0;"></path>
                </g>
                <g transform="matrix(1.00601,0,0,1.00601,-24923.9,3267.7)">
                    <path d="M25653,2071.66L25824,2071.66L25824,2204.03C25770.4,2155.96 25713.2,2111.7 25653,2071.66Z" style="fill: rgb(234, 140, 134); stroke: black; stroke-width: 0;"></path>
                </g>
                <g transform="matrix(1.00601,0,0,1.00601,-24923.9,3267.7)">
                    <path d="M25824,3321.66L25574,3321.66L25574,3071.66L25792.2,3071.66C25812.9,3151.58 25824,3235.34 25824,3321.66Z" style="fill: rgb(79, 121, 27); stroke: black; stroke-width: 0;"></path>
                </g>
                <g transform="matrix(1.00601,0,0,1.00601,-24923.9,3267.7)">
                    <path d="M25824,2071.66L26074,2071.66L26074,2321.66L25824,2321.66L25941.6,2321.66C25904.6,2280.3 25865.4,2241.04 25824,2204.03L25824,2071.66Z" style="fill: rgb(234, 140, 134); stroke: black; stroke-width: 0;"></path>
                </g>
                <g transform="matrix(1.00601,0,0,1.00601,-24923.9,3267.7)">
                    <path d="M25941.6,2321.66L26074,2321.66L26074,2492.72C26034,2432.5 25989.7,2375.33 25941.6,2321.66Z" style="fill: rgb(234, 140, 134); stroke: black; stroke-width: 0;"></path>
                </g>
                <g transform="matrix(1.00601,0,0,1.00601,-24923.9,3267.7)">
                    <path d="M25824,2571.66L26074,2571.66L26074,2821.66L25969.4,2821.66C25930.5,2732.94 25881.6,2649.61 25824,2573.12L25824,2571.66Z" style="fill: rgb(143, 194, 81); stroke: black; stroke-width: 0;"></path>
                </g>
                <g transform="matrix(1.00601,0,0,1.00601,-24923.9,3267.7)">
                    <path d="M26074,2571.66L25824,2571.66L25824,2321.66L25941.6,2321.66C25989.7,2375.33 26034,2432.48 26074,2492.72L26074,2571.66Z" style="fill: rgb(189, 234, 134); stroke: black; stroke-width: 0;"></path>
                </g>
                <g transform="matrix(1.00601,0,0,1.00601,-24923.9,3267.7)">
                    <path d="M25969.4,2821.66L26074,2821.66L26074,3071.66L26048.8,3071.66C26031,2984.7 26004.2,2901.01 25969.4,2821.66Z" style="fill: rgb(189, 234, 134); stroke: black; stroke-width: 0;"></path>
                </g>
                <g transform="matrix(1.00601,0,0,1.00601,-24923.9,3267.7)">
                    <path d="M26048.8,3071.66L25824,3071.66L25824,2821.66L25969.4,2821.66C26004.2,2901.01 26031,2984.7 26048.8,3071.66Z" style="fill: rgb(143, 194, 81); stroke: black; stroke-width: 0;"></path>
                </g>
                <g transform="matrix(1.00601,0,0,1.00601,-24923.9,3267.7)">
                    <path d="M26048.8,3071.66L26074,3071.66L26074,3321.66L26074,3321.66C26074,3236.05 26065.3,3152.45 26048.8,3071.66Z" style="fill: rgb(189, 234, 134); stroke: black; stroke-width: 0;"></path>
                </g>
                <g transform="matrix(1.00601,0,0,1.00601,-24923.9,3267.7)">
                    <path d="M26074,3321.66L25824,3321.66L25824,3071.66L26048.8,3071.66C26065.3,3152.47 26074,3236.06 26074,3321.66Z" style="fill: rgb(143, 194, 81); stroke: black; stroke-width: 0;"></path>
                </g>
                <g transform="matrix(1.00601,0,0,1.00601,-24923.9,3267.7)">
                    <path d="M25969.4,2821.66L25824,2821.66L25824,2573.12C25881.6,2649.61 25930.5,2732.94 25969.4,2821.66Z" style="fill: rgb(143, 194, 81); stroke: black; stroke-width: 0;"></path>
                </g>
                <g transform="matrix(1.00601,0,0,1.00601,-24923.9,3267.7)">
                    <path d="M25941.6,2321.66L25824,2321.66L25824,2204.03C25865.4,2241.04 25904.6,2280.3 25941.6,2321.66Z" style="fill: rgb(234, 140, 134); stroke: black; stroke-width: 0;"></path>
                </g>
                <g transform="matrix(1.00601,0,0,1.00601,-24923.9,3267.7)">
                    <path d="M26324,3321.66L26074,3321.66L26074,3071.66L26303.2,3071.66C26315.8,3146.35 26322.8,3222.9 26323.9,3300.89L26324,3321.66Z" style="fill: rgb(189, 234, 134); stroke: black; stroke-width: 0;"></path>
                </g>
                <g transform="matrix(1.00601,0,0,1.00601,-24923.9,3267.7)">
                    <path d="M26324,3071.66L26324,3321.66C26324,3236.49 26316.9,3152.97 26303.2,3071.66L26324,3071.66Z" style="fill: rgb(234, 140, 134); stroke: black; stroke-width: 0;"></path>
                </g>
                <g transform="matrix(1.00601,0,0,1.00601,-24923.9,3267.7)">
                    <path d="M26303.2,3071.66L26074,3071.66L26074,2821.66L26238.5,2821.66C26267,2902.09 26288.8,2985.65 26303.2,3071.66Z" style="fill: rgb(189, 234, 134); stroke: black; stroke-width: 0;"></path>
                </g>
                <g transform="matrix(1.00601,0,0,1.00601,-24923.9,3267.7)">
                    <path d="M26324,3071.66L26303.2,3071.66C26288.8,2985.61 26267,2902.04 26238.5,2821.66L26324,2821.66L26324,3071.66Z" style="fill: rgb(234, 140, 134); stroke: black; stroke-width: 0;"></path>
                </g>
                <g transform="matrix(1.00601,0,0,1.00601,-24923.9,3267.7)">
                    <path d="M26238.5,2821.66L26074,2821.66L26074,2571.66L26123.1,2571.66C26168.8,2650.71 26207.6,2734.32 26238.5,2821.66Z" style="fill: rgb(189, 234, 134); stroke: black; stroke-width: 0;"></path>
                </g>
                <g transform="matrix(1.00601,0,0,1.00601,-24923.9,3267.7)">
                    <path d="M26324,2821.66L26238.5,2821.66C26207.6,2734.34 26168.9,2650.72 26123.1,2571.66L26324,2571.66L26324,2821.66Z" style="fill: rgb(234, 140, 134); stroke: black; stroke-width: 0;"></path>
                </g>
                <g transform="matrix(1.00601,0,0,1.00601,-24923.9,3267.7)">
                    <path d="M26123.1,2571.66L26074,2571.66L26074,2492.72C26091.2,2518.49 26107.5,2544.82 26123.1,2571.66Z" style="fill: rgb(234, 140, 134); stroke: black; stroke-width: 0;"></path>
                </g>
                <g transform="matrix(1.00601,0,0,1.00601,-24923.9,3267.7)">
                    <path d="M26324,2571.66L26123.1,2571.66C26107.5,2544.81 26091.2,2518.48 26074,2492.72L26074,2321.66L26324,2321.66L26324,2571.66Z" style="fill: rgb(234, 140, 134); stroke: black; stroke-width: 0;"></path>
                </g>
                <g transform="matrix(1.00601,0,0,1.00601,-24923.9,3267.7)">
                    <rect x="26074" y="2071.66" width="250" height="250" style="fill: rgb(234, 169, 134); stroke: black; stroke-width: 0;"></rect>
                </g>
                <g transform="matrix(1.00601,0,0,1.00601,-24923.9,3267.7)">
                    <rect x="26074" y="1821.66" width="250" height="250" style="fill: rgb(160, 80, 226); stroke: black; stroke-width: 0;"></rect>
                </g>
                <g transform="matrix(1.00601,0,0,1.00601,-7309.95,-14601.9)">
                    <path d="M8063.39,20084.5L8065.34,20086L8065.34,20334.5L7975.39,20334.5C7926.11,20291.2 7872.53,20252.6 7815.34,20219.5L7815.34,20084.5L8063.39,20084.5Z" style="fill: rgb(79, 121, 27); stroke: black; stroke-width: 0;"></path>
                </g>
                <g transform="matrix(-1.00601,0,0,1.00601,28040.6,3267.7)">
                    <rect x="25824" y="1821.66" width="250" height="250" style="fill: rgb(234, 169, 134); stroke: black; stroke-width: 0;"></rect>
                </g>
                <g transform="matrix(-0.868064,0,0,0.868064,2497.81,5693.54)">
                    <path d="M502.779,187.469L501.485,185.778L502.779,185.778L502.779,187.469Z" style="fill: rgb(234, 169, 134); stroke: black; stroke-width: 0;"></path>
                </g>
                <g transform="matrix(-1.00601,0,0,1.00601,28040.6,3267.7)">
                    <path d="M25073.8,3321.66L24824,3321.66L24824,3071.66C24961.9,3071.66 25073.8,3183.56 25073.8,3321.39L25073.8,3321.66Z" style="fill: rgb(234, 140, 134); stroke: black; stroke-width: 0;"></path>
                </g>
                <g transform="matrix(-1.00601,0,0,1.00601,28040.6,3267.7)">
                    <path d="M25074,3071.66L24824,3071.66L24824,2821.67C24915.1,2821.78 25000.5,2846.22 25074,2888.84L25074,3071.66Z" style="fill: rgb(234, 169, 134); stroke: black; stroke-width: 0;"></path>
                </g>
                <g transform="matrix(-1.00601,0,0,1.00601,28040.6,3267.7)">
                    <path d="M25074,2821.66L24824,2821.66L24824,2571.67C24911.7,2571.76 24995.9,2586.91 25074,2614.69L25074,2821.66Z" style="fill: rgb(55, 92, 10); stroke: black; stroke-width: 0;"></path>
                </g>
                <g transform="matrix(-1.00601,0,0,1.00601,28040.6,3267.7)">
                    <path d="M25074,2571.66L24824,2571.66L24824,2322.61L24840.2,2322.74C24840.2,2322.74 24856.3,2323.12 24856.3,2323.12L24872.3,2323.76C24941.6,2327.06 25009.1,2337.43 25074,2354.17L25074,2571.66Z" style="fill: rgb(79, 121, 27); stroke: black; stroke-width: 0;"></path>
                </g>
                <g transform="matrix(-1.00601,0,0,1.00601,28040.6,3267.7)">
                    <path d="M25074,2321.66L24824,2321.66L24824,2073.09L24824.5,2073.09C24910,2073.09 24993.4,2081.68 25074,2098.06L25074,2321.66Z" style="fill: rgb(143, 194, 81); stroke: black; stroke-width: 0;"></path>
                </g>
                <g transform="matrix(-1.00601,0,0,1.00601,28040.6,3267.7)">
                    <path d="M25074,2071.66L24824,2071.66L24824,1821.66C24909.2,1821.66 24992.8,1828.77 25074,1842.45L25074,2071.66Z" style="fill: rgb(189, 234, 134); stroke: black; stroke-width: 0;"></path>
                </g>
                <g transform="matrix(-1.00601,0,0,1.00601,28040.6,3267.7)">
                    <path d="M25074,3071.66L25074,3321.66L25073.8,3321.66L25073.8,3321.39C25073.8,3183.56 24961.9,3071.66 24824,3071.66L25074,3071.66Z" style="fill: rgb(234, 169, 134); stroke: black; stroke-width: 0;"></path>
                </g>
                <g transform="matrix(-1.00601,0,0,1.00601,28040.6,3267.7)">
                    <path d="M25074,3071.66L25074,2888.84C25149.9,2932.72 25213.1,2995.9 25257.2,3071.66L25074,3071.66Z" style="fill: rgb(234, 169, 134); stroke: black; stroke-width: 0;"></path>
                </g>
                <g transform="matrix(-1.00601,0,0,1.00601,28040.6,3267.7)">
                    <path d="M25074,3321.66L25074,3071.66L25257.2,3071.66C25296.1,3138.61 25320,3215.38 25324,3297.34L25324,3321.66L25074,3321.66Z" style="fill: rgb(234, 169, 134); stroke: black; stroke-width: 0;"></path>
                </g>
                <g transform="matrix(-1.00601,0,0,1.00601,28040.6,3267.7)">
                    <path d="M25074,2821.66L25074,2888.84C25000.5,2846.22 24915.1,2821.78 24824,2821.67L24824,2821.66L25074,2821.66Z" style="fill: rgb(55, 92, 10); stroke: black; stroke-width: 0;"></path>
                </g>
                <g transform="matrix(-1.00601,0,0,1.00601,28040.6,3267.7)">
                    <path d="M25074,2821.66L25074,2614.69C25167.2,2647.72 25251.9,2698.63 25324,2763.29L25324,2821.66L25074,2821.66Z" style="fill: rgb(55, 92, 10); stroke: black; stroke-width: 0;"></path>
                </g>
                <g transform="matrix(-1.00601,0,0,1.00601,28040.6,3267.7)">
                    <path d="M25074,2571.66L25074,2614.69C24995.9,2586.89 24911.7,2571.75 24824,2571.67L24824,2571.66L25074,2571.66Z" style="fill: rgb(79, 121, 27); stroke: black; stroke-width: 0;"></path>
                </g>
                <g transform="matrix(-1.00601,0,0,1.00601,28040.6,3267.7)">
                    <path d="M25074,2571.66L25074,2354.17C25162.7,2377.03 25246.7,2411.77 25324,2456.62L25324,2571.66L25074,2571.66Z" style="fill: rgb(79, 121, 27); stroke: black; stroke-width: 0;"></path>
                </g>
                <g transform="matrix(-1.00601,0,0,1.00601,28040.6,3267.7)">
                    <path d="M25074,2321.66L25074,2354.17C25009.1,2337.43 24941.6,2327.06 24872.3,2323.76L24856.3,2323.12L24840.2,2322.74L24824,2322.61C24824,2322.61 24824,2321.66 24824,2321.66L25074,2321.66Z" style="fill: rgb(143, 194, 81); stroke: black; stroke-width: 0;"></path>
                </g>
                <g transform="matrix(-1.00601,0,0,1.00601,28040.6,3267.7)">
                    <path d="M25074,2321.66L25074,2098.06C25161,2115.71 25244.7,2142.41 25324,2177.15L25324,2321.66L25074,2321.66Z" style="fill: rgb(143, 194, 81); stroke: black; stroke-width: 0;"></path>
                </g>
                <g transform="matrix(-1.00601,0,0,1.00601,28040.6,3267.7)">
                    <path d="M25074,2071.66L25074,2098.06C24993.4,2081.68 24910,2073.09 24824.5,2073.09L24824,2073.09L24824,2071.66L25074,2071.66Z" style="fill: rgb(189, 234, 134); stroke: black; stroke-width: 0;"></path>
                </g>
                <g transform="matrix(-1.00601,0,0,1.00601,28040.6,3267.7)">
                    <path d="M25074,2071.66L25074,1842.45C25160.1,1856.91 25243.6,1878.69 25324,1907.16L25324,2071.66L25074,2071.66Z" style="fill: rgb(189, 234, 134); stroke: black; stroke-width: 0;"></path>
                </g>
                <g transform="matrix(-1.00601,0,0,1.00601,28040.6,3267.7)">
                    <path d="M25324,3071.66L25324,3297.34C25320,3215.38 25296.1,3138.61 25257.2,3071.66L25324,3071.66Z" style="fill: rgb(55, 92, 10); stroke: black; stroke-width: 0;"></path>
                </g>
                <g transform="matrix(-1.00601,0,0,1.00601,28040.6,3267.7)">
                    <path d="M25324,2821.66L25324,3071.66L25257.2,3071.66C25213.1,2995.92 25149.9,2932.74 25074,2888.84L25074,2821.66L25324,2821.66Z" style="fill: rgb(55, 92, 10); stroke: black; stroke-width: 0;"></path>
                </g>
                <g transform="matrix(-1.00601,0,0,1.00601,28040.6,3267.7)">
                    <path d="M25324,2571.66L25324,2763.29C25251.9,2698.63 25167.2,2647.72 25074,2614.69L25074,2821.66C25074,2821.66 25074,2571.66 25074,2571.66L25324,2571.66Z" style="fill: rgb(79, 121, 27); stroke: black; stroke-width: 0;"></path>
                </g>
                <g transform="matrix(-1.00601,0,0,1.00601,28040.6,3267.7)">
                    <path d="M25324,2321.66L25324,2456.62C25246.7,2411.77 25162.7,2377.03 25074,2354.17L25074,2321.66L25324,2321.66Z" style="fill: rgb(143, 194, 81); stroke: black; stroke-width: 0;"></path>
                </g>
                <g transform="matrix(-1.00601,0,0,1.00601,28040.6,3267.7)">
                    <path d="M25324,2071.66L25324,2177.15C25244.7,2142.41 25161,2115.71 25074,2098.06L25074,2071.66L25324,2071.66Z" style="fill: rgb(189, 234, 134); stroke: black; stroke-width: 0;"></path>
                </g>
                <g transform="matrix(-1.00601,0,0,1.00601,28040.6,3267.7)">
                    <path d="M25324,1821.66L25324,1907.16C25243.6,1878.69 25160,1856.89 25074,1842.45L25074,1821.66L25324,1821.66Z" style="fill: rgb(234, 140, 134); stroke: black; stroke-width: 0;"></path>
                </g>
                <g transform="matrix(-1.00601,0,0,1.00601,28040.6,3267.7)">
                    <path d="M25074,1821.66L25074,1842.45C24992.8,1828.77 24909.2,1821.66 24824,1821.66L25074,1821.66Z" style="fill: rgb(234, 140, 134); stroke: black; stroke-width: 0;"></path>
                </g>
                <g transform="matrix(-1.00601,0,0,1.00601,28040.6,3267.7)">
                    <path d="M25324,1821.66L25574,1821.66L25574,2022.62C25495,1976.84 25411.4,1938.07 25324,1907.16L25324,1821.66Z" style="fill: rgb(234, 169, 134); stroke: black; stroke-width: 0;"></path>
                </g>
                <g transform="matrix(-1.00601,0,0,1.00601,28040.6,3267.7)">
                    <path d="M25574,2071.66L25324,2071.66L25324,1907.16C25411.4,1938.07 25495,1976.84 25574,2022.62L25574,2071.66Z" style="fill: rgb(189, 234, 134); stroke: black; stroke-width: 0;"></path>
                </g>
                <g transform="matrix(-1.00601,0,0,1.00601,28040.6,3267.7)">
                    <path d="M25324,2071.66L25574,2071.66L25574,2321.66L25572.1,2321.66C25495.7,2264.45 25412.5,2215.83 25324,2177.15L25324,2071.66Z" style="fill: rgb(143, 194, 81); stroke: black; stroke-width: 0;"></path>
                </g>
                <g transform="matrix(-1.00601,0,0,1.00601,28040.6,3267.7)">
                    <path d="M25572.1,2321.66L25324,2321.66L25324,2177.15C25412.5,2215.83 25495.7,2264.45 25572.1,2321.66Z" style="fill: rgb(143, 194, 81); stroke: black; stroke-width: 0;"></path>
                </g>
                <g transform="matrix(-1.00601,0,0,1.00601,28040.6,3267.7)">
                    <path d="M25484.1,2571.66L25324,2571.66L25324,2456.62C25381.2,2489.7 25434.8,2528.28 25484.1,2571.66Z" style="fill: rgb(79, 121, 27); stroke: black; stroke-width: 0;"></path>
                </g>
                <g transform="matrix(-1.00601,0,0,1.00601,28040.6,3267.7)">
                    <path d="M25484.1,2571.66L25574,2571.66L25574,2661.47C25546,2629.67 25515.9,2599.67 25484.1,2571.66Z" style="fill: rgb(143, 194, 81); stroke: black; stroke-width: 0;"></path>
                </g>
                <g transform="matrix(-1.00601,0,0,1.00601,28040.6,3267.7)">
                    <path d="M25382.4,2821.66L25324,2821.66L25324,2763.29C25344.6,2781.67 25364,2801.15 25382.4,2821.66Z" style="fill: rgb(55, 92, 10); stroke: black; stroke-width: 0;"></path>
                </g>
                <g transform="matrix(-1.00601,0,0,1.00601,28040.6,3267.7)">
                    <path d="M25574,2821.66L25382.4,2821.66C25364,2801.15 25344.6,2781.67 25324,2763.29L25324,2821.66C25324,2821.66 25324,2571.66 25324,2571.66L25484.1,2571.66C25515.9,2599.67 25546,2629.67 25574,2661.47L25574,2821.66Z" style="fill: rgb(55, 92, 10); stroke: black; stroke-width: 0;"></path>
                </g>
                <g transform="matrix(-1.00601,0,0,1.00601,28040.6,3267.7)">
                    <path d="M25531.1,3071.66L25324,3071.66L25324,2821.66L25382.4,2821.66C25447.1,2893.79 25498.1,2978.5 25531.1,3071.66Z" style="fill: rgb(55, 92, 10); stroke: black; stroke-width: 0;"></path>
                </g>
                <g transform="matrix(-1.00601,0,0,1.00601,28040.6,3267.7)">
                    <path d="M25531.1,3071.66L25574,3071.66L25574,3309.45C25572.6,3226.18 25557.6,3146.21 25531.1,3071.66Z" style="fill: rgb(79, 121, 27); stroke: black; stroke-width: 0;"></path>
                </g>
                <g transform="matrix(-1.00601,0,0,1.00601,28040.6,3267.7)">
                    <path d="M25574,2821.66L25574,3071.66L25531.1,3071.66C25498.1,2978.5 25447.1,2893.79 25382.4,2821.66L25574,2821.66Z" style="fill: rgb(79, 121, 27); stroke: black; stroke-width: 0;"></path>
                </g>
                <g transform="matrix(-1.00601,0,0,1.00601,28040.6,3267.7)">
                    <path d="M25574,3321.66L25324,3321.66L25324,3071.66L25531.1,3071.66C25557.6,3146.21 25572.6,3226.18 25574,3309.45L25574,3321.66Z" style="fill: rgb(55, 92, 10); stroke: black; stroke-width: 0;"></path>
                </g>
                <g transform="matrix(-1.00601,0,0,1.00601,28040.6,3267.7)">
                    <path d="M25574,1821.66L25824,1821.66L25824,2071.66L25653,2071.66C25627.2,2054.52 25600.9,2038.16 25574,2022.62L25574,1821.66Z" style="fill: rgb(234, 169, 134); stroke: black; stroke-width: 0;"></path>
                </g>
                <g transform="matrix(-1.00601,0,0,1.00601,28040.6,3267.7)">
                    <path d="M25653,2071.66L25574,2071.66L25574,2022.62C25600.9,2038.16 25627.2,2054.51 25653,2071.66Z" style="fill: rgb(234, 140, 134); stroke: black; stroke-width: 0;"></path>
                </g>
                <g transform="matrix(-1.00601,0,0,1.00601,28040.6,3267.7)">
                    <path d="M25824,2321.66L25574,2321.66L25574,2071.66L25653,2071.66C25713.2,2111.69 25770.4,2155.95 25824,2204.03L25824,2321.66Z" style="fill: rgb(189, 234, 134); stroke: black; stroke-width: 0;"></path>
                </g>
                <g transform="matrix(-1.00601,0,0,1.00601,28040.6,3267.7)">
                    <path d="M25574,2321.66L25824,2321.66L25824,2571.66L25822.9,2571.66C25752.1,2477.58 25668.2,2393.86 25574,2323.14L25574,2321.66Z" style="fill: rgb(143, 194, 81); stroke: black; stroke-width: 0;"></path>
                </g>
                <g transform="matrix(-1.00601,0,0,1.00601,10426.7,-14601.9)">
                    <path d="M8063.39,20084.5L8065.34,20086L8065.34,20084.5L8063.39,20084.5Z" style="fill: rgb(234, 169, 134); stroke: black; stroke-width: 0;"></path>
                </g>
                <g transform="matrix(-1.00601,0,0,1.00601,28040.6,3267.7)">
                    <path d="M25822.9,2571.66L25574,2571.66L25574,2323.14C25668.2,2393.86 25752.1,2477.57 25822.9,2571.66Z" style="fill: rgb(143, 194, 81); stroke: black; stroke-width: 0;"></path>
                </g>
                <g transform="matrix(-1.00601,0,0,1.00601,28040.6,3267.7)">
                    <path d="M25574,2571.66L25822.9,2571.66L25824,2573.12L25824,2821.66L25689.5,2821.66C25656.3,2764.42 25617.5,2710.77 25574,2661.47L25574,2571.66Z" style="fill: rgb(79, 121, 27); stroke: black; stroke-width: 0;"></path>
                </g>
                <g transform="matrix(-1.00601,0,0,1.00601,28040.6,3267.7)">
                    <path d="M25689.5,2821.66L25574,2821.66L25574,2661.47C25617.5,2710.77 25656.3,2764.42 25689.5,2821.66Z" style="fill: rgb(79, 121, 27); stroke: black; stroke-width: 0;"></path>
                </g>
                <g transform="matrix(-1.00601,0,0,1.00601,28040.6,3267.7)">
                    <path d="M25792.2,3071.66L25824,3071.66L25824,3321.66L25824,3321.66C25824,3235.32 25812.9,3151.53 25792.2,3071.66Z" style="fill: rgb(143, 194, 81); stroke: black; stroke-width: 0;"></path>
                </g>
                <g transform="matrix(-1.00601,0,0,1.00601,28040.6,3267.7)">
                    <path d="M25689.5,2821.66L25824,2821.66L25824,3071.66L25792.2,3071.66C25769.3,2982.96 25734.4,2899.02 25689.5,2821.66Z" style="fill: rgb(143, 194, 81); stroke: black; stroke-width: 0;"></path>
                </g>
                <g transform="matrix(-1.00601,0,0,1.00601,28040.6,3267.7)">
                    <path d="M25792.2,3071.66L25574,3071.66L25574,2821.66L25689.5,2821.66C25734.4,2899.02 25769.3,2982.96 25792.2,3071.66Z" style="fill: rgb(79, 121, 27); stroke: black; stroke-width: 0;"></path>
                </g>
                <g transform="matrix(-1.00601,0,0,1.00601,28040.6,3267.7)">
                    <path d="M25653,2071.66L25824,2071.66L25824,2204.03C25770.4,2155.96 25713.2,2111.7 25653,2071.66Z" style="fill: rgb(234, 140, 134); stroke: black; stroke-width: 0;"></path>
                </g>
                <g transform="matrix(-1.00601,0,0,1.00601,28040.6,3267.7)">
                    <path d="M25824,3321.66L25574,3321.66L25574,3071.66L25792.2,3071.66C25812.9,3151.58 25824,3235.34 25824,3321.66Z" style="fill: rgb(79, 121, 27); stroke: black; stroke-width: 0;"></path>
                </g>
                <g transform="matrix(-1.00601,0,0,1.00601,28040.6,3267.7)">
                    <path d="M25824,2071.66L26074,2071.66L26074,2321.66L25824,2321.66L25941.6,2321.66C25904.6,2280.3 25865.4,2241.04 25824,2204.03L25824,2071.66Z" style="fill: rgb(234, 140, 134); stroke: black; stroke-width: 0;"></path>
                </g>
                <g transform="matrix(-1.00601,0,0,1.00601,28040.6,3267.7)">
                    <path d="M25941.6,2321.66L26074,2321.66L26074,2492.72C26034,2432.5 25989.7,2375.33 25941.6,2321.66Z" style="fill: rgb(234, 140, 134); stroke: black; stroke-width: 0;"></path>
                </g>
                <g transform="matrix(-1.00601,0,0,1.00601,28040.6,3267.7)">
                    <path d="M25824,2571.66L26074,2571.66L26074,2821.66L25969.4,2821.66C25930.5,2732.94 25881.6,2649.61 25824,2573.12L25824,2571.66Z" style="fill: rgb(143, 194, 81); stroke: black; stroke-width: 0;"></path>
                </g>
                <g transform="matrix(-1.00601,0,0,1.00601,28040.6,3267.7)">
                    <path d="M26074,2571.66L25824,2571.66L25824,2321.66L25941.6,2321.66C25989.7,2375.33 26034,2432.48 26074,2492.72L26074,2571.66Z" style="fill: rgb(189, 234, 134); stroke: black; stroke-width: 0;"></path>
                </g>
                <g transform="matrix(-1.00601,0,0,1.00601,28040.6,3267.7)">
                    <path d="M25969.4,2821.66L26074,2821.66L26074,3071.66L26048.8,3071.66C26031,2984.7 26004.2,2901.01 25969.4,2821.66Z" style="fill: rgb(189, 234, 134); stroke: black; stroke-width: 0;"></path>
                </g>
                <g transform="matrix(-1.00601,0,0,1.00601,28040.6,3267.7)">
                    <path d="M26048.8,3071.66L25824,3071.66L25824,2821.66L25969.4,2821.66C26004.2,2901.01 26031,2984.7 26048.8,3071.66Z" style="fill: rgb(143, 194, 81); stroke: black; stroke-width: 0;"></path>
                </g>
                <g transform="matrix(-1.00601,0,0,1.00601,28040.6,3267.7)">
                    <path d="M26048.8,3071.66L26074,3071.66L26074,3321.66L26074,3321.66C26074,3236.05 26065.3,3152.45 26048.8,3071.66Z" style="fill: rgb(189, 234, 134); stroke: black; stroke-width: 0;"></path>
                </g>
                <g transform="matrix(-1.00601,0,0,1.00601,28040.6,3267.7)">
                    <path d="M26074,3321.66L25824,3321.66L25824,3071.66L26048.8,3071.66C26065.3,3152.47 26074,3236.06 26074,3321.66Z" style="fill: rgb(143, 194, 81); stroke: black; stroke-width: 0;"></path>
                </g>
                <g transform="matrix(-1.00601,0,0,1.00601,28040.6,3267.7)">
                    <path d="M25969.4,2821.66L25824,2821.66L25824,2573.12C25881.6,2649.61 25930.5,2732.94 25969.4,2821.66Z" style="fill: rgb(143, 194, 81); stroke: black; stroke-width: 0;"></path>
                </g>
                <g transform="matrix(-1.00601,0,0,1.00601,28040.6,3267.7)">
                    <path d="M25941.6,2321.66L25824,2321.66L25824,2204.03C25865.4,2241.04 25904.6,2280.3 25941.6,2321.66Z" style="fill: rgb(234, 140, 134); stroke: black; stroke-width: 0;"></path>
                </g>
                <g transform="matrix(-1.00601,0,0,1.00601,28040.6,3267.7)">
                    <path d="M26324,3321.66L26074,3321.66L26074,3071.66L26303.2,3071.66C26315.8,3146.35 26322.8,3222.9 26323.9,3300.89L26324,3321.66Z" style="fill: rgb(189, 234, 134); stroke: black; stroke-width: 0;"></path>
                </g>
                <g transform="matrix(-1.00601,0,0,1.00601,28040.6,3267.7)">
                    <path d="M26324,3071.66L26324,3321.66C26324,3236.49 26316.9,3152.97 26303.2,3071.66L26324,3071.66Z" style="fill: rgb(234, 140, 134); stroke: black; stroke-width: 0;"></path>
                </g>
                <g transform="matrix(-1.00601,0,0,1.00601,28040.6,3267.7)">
                    <path d="M26303.2,3071.66L26074,3071.66L26074,2821.66L26238.5,2821.66C26267,2902.09 26288.8,2985.65 26303.2,3071.66Z" style="fill: rgb(189, 234, 134); stroke: black; stroke-width: 0;"></path>
                </g>
                <g transform="matrix(-1.00601,0,0,1.00601,28040.6,3267.7)">
                    <path d="M26324,3071.66L26303.2,3071.66C26288.8,2985.61 26267,2902.04 26238.5,2821.66L26324,2821.66L26324,3071.66Z" style="fill: rgb(234, 140, 134); stroke: black; stroke-width: 0;"></path>
                </g>
                <g transform="matrix(-1.00601,0,0,1.00601,28040.6,3267.7)">
                    <path d="M26238.5,2821.66L26074,2821.66L26074,2571.66L26123.1,2571.66C26168.8,2650.71 26207.6,2734.32 26238.5,2821.66Z" style="fill: rgb(189, 234, 134); stroke: black; stroke-width: 0;"></path>
                </g>
                <g transform="matrix(-1.00601,0,0,1.00601,28040.6,3267.7)">
                    <path d="M26324,2821.66L26238.5,2821.66C26207.6,2734.34 26168.9,2650.72 26123.1,2571.66L26324,2571.66L26324,2821.66Z" style="fill: rgb(234, 140, 134); stroke: black; stroke-width: 0;"></path>
                </g>
                <g transform="matrix(-1.00601,0,0,1.00601,28040.6,3267.7)">
                    <path d="M26123.1,2571.66L26074,2571.66L26074,2492.72C26091.2,2518.49 26107.5,2544.82 26123.1,2571.66Z" style="fill: rgb(234, 140, 134); stroke: black; stroke-width: 0;"></path>
                </g>
                <g transform="matrix(-1.00601,0,0,1.00601,28040.6,3267.7)">
                    <path d="M26324,2571.66L26123.1,2571.66C26107.5,2544.81 26091.2,2518.48 26074,2492.72L26074,2321.66L26324,2321.66L26324,2571.66Z" style="fill: rgb(234, 140, 134); stroke: black; stroke-width: 0;"></path>
                </g>
                <g transform="matrix(-1.00601,0,0,1.00601,28040.6,3267.7)">
                    <rect x="26074" y="2071.66" width="250" height="250" style="fill: rgb(234, 169, 134); stroke: black; stroke-width: 0;"></rect>
                </g>
                <g transform="matrix(-1.00601,0,0,1.00601,28040.6,3267.7)">
                    <rect x="26074" y="1821.66" width="250" height="250" style="fill: rgb(226, 80, 200); stroke: black; stroke-width: 0;"></rect>
                </g>
                <g transform="matrix(-1.00601,0,0,1.00601,10426.7,-14601.9)">
                    <path d="M8063.39,20084.5L8065.34,20086L8065.34,20334.5L7975.39,20334.5C7926.11,20291.2 7872.53,20252.6 7815.34,20219.5L7815.34,20084.5L8063.39,20084.5Z" style="fill: rgb(79, 121, 27); stroke: black; stroke-width: 0;"></path>
                </g>
                <g transform="matrix(1.00601,0,0,-1.00601,-24923.9,6932.91)">
                    <rect x="25824" y="1821.66" width="250" height="250" style="fill: rgb(234, 169, 134); stroke: black; stroke-width: 0;"></rect>
                </g>
                <g transform="matrix(0.868064,0,0,-0.868064,618.912,4507.06)">
                    <path d="M502.779,187.469L501.485,185.778L502.779,185.778L502.779,187.469Z" style="fill: rgb(234, 169, 134); stroke: black; stroke-width: 0;"></path>
                </g>
                <g transform="matrix(1.00601,0,0,-1.00601,-24923.9,6932.91)">
                    <path d="M25073.8,3321.66L24824,3321.66L24824,3071.66C24961.9,3071.66 25073.8,3183.56 25073.8,3321.39L25073.8,3321.66Z" style="fill: rgb(234, 140, 134); stroke: black; stroke-width: 0;"></path>
                </g>
                <g transform="matrix(1.00601,0,0,-1.00601,-24923.9,6932.91)">
                    <path d="M25074,3071.66L24824,3071.66L24824,2821.67C24915.1,2821.78 25000.5,2846.22 25074,2888.84L25074,3071.66Z" style="fill: rgb(234, 169, 134); stroke: black; stroke-width: 0;"></path>
                </g>
                <g transform="matrix(1.00601,0,0,-1.00601,-24923.9,6932.91)">
                    <path d="M25074,2821.66L24824,2821.66L24824,2571.67C24911.7,2571.76 24995.9,2586.91 25074,2614.69L25074,2821.66Z" style="fill: rgb(55, 92, 10); stroke: black; stroke-width: 0;"></path>
                </g>
                <g transform="matrix(1.00601,0,0,-1.00601,-24923.9,6932.91)">
                    <path d="M25074,2571.66L24824,2571.66L24824,2322.61L24840.2,2322.74C24840.2,2322.74 24856.3,2323.12 24856.3,2323.12L24872.3,2323.76C24941.6,2327.06 25009.1,2337.43 25074,2354.17L25074,2571.66Z" style="fill: rgb(79, 121, 27); stroke: black; stroke-width: 0;"></path>
                </g>
                <g transform="matrix(1.00601,0,0,-1.00601,-24923.9,6932.91)">
                    <path d="M25074,2321.66L24824,2321.66L24824,2073.09L24824.5,2073.09C24910,2073.09 24993.4,2081.68 25074,2098.06L25074,2321.66Z" style="fill: rgb(143, 194, 81); stroke: black; stroke-width: 0;"></path>
                </g>
                <g transform="matrix(1.00601,0,0,-1.00601,-24923.9,6932.91)">
                    <path d="M25074,2071.66L24824,2071.66L24824,1821.66C24909.2,1821.66 24992.8,1828.77 25074,1842.45L25074,2071.66Z" style="fill: rgb(189, 234, 134); stroke: black; stroke-width: 0;"></path>
                </g>
                <g transform="matrix(1.00601,0,0,-1.00601,-24923.9,6932.91)">
                    <path d="M25074,3071.66L25074,3321.66L25073.8,3321.66L25073.8,3321.39C25073.8,3183.56 24961.9,3071.66 24824,3071.66L25074,3071.66Z" style="fill: rgb(234, 169, 134); stroke: black; stroke-width: 0;"></path>
                </g>
                <g transform="matrix(1.00601,0,0,-1.00601,-24923.9,6932.91)">
                    <path d="M25074,3071.66L25074,2888.84C25149.9,2932.72 25213.1,2995.9 25257.2,3071.66L25074,3071.66Z" style="fill: rgb(234, 169, 134); stroke: black; stroke-width: 0;"></path>
                </g>
                <g transform="matrix(1.00601,0,0,-1.00601,-24923.9,6932.91)">
                    <path d="M25074,3321.66L25074,3071.66L25257.2,3071.66C25296.1,3138.61 25320,3215.38 25324,3297.34L25324,3321.66L25074,3321.66Z" style="fill: rgb(234, 169, 134); stroke: black; stroke-width: 0;"></path>
                </g>
                <g transform="matrix(1.00601,0,0,-1.00601,-24923.9,6932.91)">
                    <path d="M25074,2821.66L25074,2888.84C25000.5,2846.22 24915.1,2821.78 24824,2821.67L24824,2821.66L25074,2821.66Z" style="fill: rgb(55, 92, 10); stroke: black; stroke-width: 0;"></path>
                </g>
                <g transform="matrix(1.00601,0,0,-1.00601,-24923.9,6932.91)">
                    <path d="M25074,2821.66L25074,2614.69C25167.2,2647.72 25251.9,2698.63 25324,2763.29L25324,2821.66L25074,2821.66Z" style="fill: rgb(55, 92, 10); stroke: black; stroke-width: 0;"></path>
                </g>
                <g transform="matrix(1.00601,0,0,-1.00601,-24923.9,6932.91)">
                    <path d="M25074,2571.66L25074,2614.69C24995.9,2586.89 24911.7,2571.75 24824,2571.67L24824,2571.66L25074,2571.66Z" style="fill: rgb(79, 121, 27); stroke: black; stroke-width: 0;"></path>
                </g>
                <g transform="matrix(1.00601,0,0,-1.00601,-24923.9,6932.91)">
                    <path d="M25074,2571.66L25074,2354.17C25162.7,2377.03 25246.7,2411.77 25324,2456.62L25324,2571.66L25074,2571.66Z" style="fill: rgb(79, 121, 27); stroke: black; stroke-width: 0;"></path>
                </g>
                <g transform="matrix(1.00601,0,0,-1.00601,-24923.9,6932.91)">
                    <path d="M25074,2321.66L25074,2354.17C25009.1,2337.43 24941.6,2327.06 24872.3,2323.76L24856.3,2323.12L24840.2,2322.74L24824,2322.61C24824,2322.61 24824,2321.66 24824,2321.66L25074,2321.66Z" style="fill: rgb(143, 194, 81); stroke: black; stroke-width: 0;"></path>
                </g>
                <g transform="matrix(1.00601,0,0,-1.00601,-24923.9,6932.91)">
                    <path d="M25074,2321.66L25074,2098.06C25161,2115.71 25244.7,2142.41 25324,2177.15L25324,2321.66L25074,2321.66Z" style="fill: rgb(143, 194, 81); stroke: black; stroke-width: 0;"></path>
                </g>
                <g transform="matrix(1.00601,0,0,-1.00601,-24923.9,6932.91)">
                    <path d="M25074,2071.66L25074,2098.06C24993.4,2081.68 24910,2073.09 24824.5,2073.09L24824,2073.09L24824,2071.66L25074,2071.66Z" style="fill: rgb(189, 234, 134); stroke: black; stroke-width: 0;"></path>
                </g>
                <g transform="matrix(1.00601,0,0,-1.00601,-24923.9,6932.91)">
                    <path d="M25074,2071.66L25074,1842.45C25160.1,1856.91 25243.6,1878.69 25324,1907.16L25324,2071.66L25074,2071.66Z" style="fill: rgb(189, 234, 134); stroke: black; stroke-width: 0;"></path>
                </g>
                <g transform="matrix(1.00601,0,0,-1.00601,-24923.9,6932.91)">
                    <path d="M25324,3071.66L25324,3297.34C25320,3215.38 25296.1,3138.61 25257.2,3071.66L25324,3071.66Z" style="fill: rgb(55, 92, 10); stroke: black; stroke-width: 0;"></path>
                </g>
                <g transform="matrix(1.00601,0,0,-1.00601,-24923.9,6932.91)">
                    <path d="M25324,2821.66L25324,3071.66L25257.2,3071.66C25213.1,2995.92 25149.9,2932.74 25074,2888.84L25074,2821.66L25324,2821.66Z" style="fill: rgb(55, 92, 10); stroke: black; stroke-width: 0;"></path>
                </g>
                <g transform="matrix(1.00601,0,0,-1.00601,-24923.9,6932.91)">
                    <path d="M25324,2571.66L25324,2763.29C25251.9,2698.63 25167.2,2647.72 25074,2614.69L25074,2821.66C25074,2821.66 25074,2571.66 25074,2571.66L25324,2571.66Z" style="fill: rgb(79, 121, 27); stroke: black; stroke-width: 0;"></path>
                </g>
                <g transform="matrix(1.00601,0,0,-1.00601,-24923.9,6932.91)">
                    <path d="M25324,2321.66L25324,2456.62C25246.7,2411.77 25162.7,2377.03 25074,2354.17L25074,2321.66L25324,2321.66Z" style="fill: rgb(143, 194, 81); stroke: black; stroke-width: 0;"></path>
                </g>
                <g transform="matrix(1.00601,0,0,-1.00601,-24923.9,6932.91)">
                    <path d="M25324,2071.66L25324,2177.15C25244.7,2142.41 25161,2115.71 25074,2098.06L25074,2071.66L25324,2071.66Z" style="fill: rgb(189, 234, 134); stroke: black; stroke-width: 0;"></path>
                </g>
                <g transform="matrix(1.00601,0,0,-1.00601,-24923.9,6932.91)">
                    <path d="M25324,1821.66L25324,1907.16C25243.6,1878.69 25160,1856.89 25074,1842.45L25074,1821.66L25324,1821.66Z" style="fill: rgb(234, 140, 134); stroke: black; stroke-width: 0;"></path>
                </g>
                <g transform="matrix(1.00601,0,0,-1.00601,-24923.9,6932.91)">
                    <path d="M25074,1821.66L25074,1842.45C24992.8,1828.77 24909.2,1821.66 24824,1821.66L25074,1821.66Z" style="fill: rgb(234, 140, 134); stroke: black; stroke-width: 0;"></path>
                </g>
                <g transform="matrix(1.00601,0,0,-1.00601,-24923.9,6932.91)">
                    <path d="M25324,1821.66L25574,1821.66L25574,2022.62C25495,1976.84 25411.4,1938.07 25324,1907.16L25324,1821.66Z" style="fill: rgb(234, 140, 134); stroke: black; stroke-width: 0;"></path>
                </g>
                <g transform="matrix(1.00601,0,0,-1.00601,-24923.9,6932.91)">
                    <path d="M25574,2071.66L25324,2071.66L25324,1907.16C25411.4,1938.07 25495,1976.84 25574,2022.62L25574,2071.66Z" style="fill: rgb(189, 234, 134); stroke: black; stroke-width: 0;"></path>
                </g>
                <g transform="matrix(1.00601,0,0,-1.00601,-24923.9,6932.91)">
                    <path d="M25324,2071.66L25574,2071.66L25574,2321.66L25572.1,2321.66C25495.7,2264.45 25412.5,2215.83 25324,2177.15L25324,2071.66Z" style="fill: rgb(143, 194, 81); stroke: black; stroke-width: 0;"></path>
                </g>
                <g transform="matrix(1.00601,0,0,-1.00601,-24923.9,6932.91)">
                    <path d="M25572.1,2321.66L25324,2321.66L25324,2177.15C25412.5,2215.83 25495.7,2264.45 25572.1,2321.66Z" style="fill: rgb(143, 194, 81); stroke: black; stroke-width: 0;"></path>
                </g>
                <g transform="matrix(1.00601,0,0,-1.00601,-24923.9,6932.91)">
                    <path d="M25484.1,2571.66L25324,2571.66L25324,2456.62C25381.2,2489.7 25434.8,2528.28 25484.1,2571.66Z" style="fill: rgb(79, 121, 27); stroke: black; stroke-width: 0;"></path>
                </g>
                <g transform="matrix(1.00601,0,0,-1.00601,-24923.9,6932.91)">
                    <path d="M25484.1,2571.66L25574,2571.66L25574,2661.47C25546,2629.67 25515.9,2599.67 25484.1,2571.66Z" style="fill: rgb(143, 194, 81); stroke: black; stroke-width: 0;"></path>
                </g>
                <g transform="matrix(1.00601,0,0,-1.00601,-24923.9,6932.91)">
                    <path d="M25382.4,2821.66L25324,2821.66L25324,2763.29C25344.6,2781.67 25364,2801.15 25382.4,2821.66Z" style="fill: rgb(55, 92, 10); stroke: black; stroke-width: 0;"></path>
                </g>
                <g transform="matrix(1.00601,0,0,-1.00601,-24923.9,6932.91)">
                    <path d="M25574,2821.66L25382.4,2821.66C25364,2801.15 25344.6,2781.67 25324,2763.29L25324,2821.66C25324,2821.66 25324,2571.66 25324,2571.66L25484.1,2571.66C25515.9,2599.67 25546,2629.67 25574,2661.47L25574,2821.66Z" style="fill: rgb(55, 92, 10); stroke: black; stroke-width: 0;"></path>
                </g>
                <g transform="matrix(1.00601,0,0,-1.00601,-24923.9,6932.91)">
                    <path d="M25531.1,3071.66L25324,3071.66L25324,2821.66L25382.4,2821.66C25447.1,2893.79 25498.1,2978.5 25531.1,3071.66Z" style="fill: rgb(55, 92, 10); stroke: black; stroke-width: 0;"></path>
                </g>
                <g transform="matrix(1.00601,0,0,-1.00601,-24923.9,6932.91)">
                    <path d="M25531.1,3071.66L25574,3071.66L25574,3309.45C25572.6,3226.18 25557.6,3146.21 25531.1,3071.66Z" style="fill: rgb(79, 121, 27); stroke: black; stroke-width: 0;"></path>
                </g>
                <g transform="matrix(1.00601,0,0,-1.00601,-24923.9,6932.91)">
                    <path d="M25574,2821.66L25574,3071.66L25531.1,3071.66C25498.1,2978.5 25447.1,2893.79 25382.4,2821.66L25574,2821.66Z" style="fill: rgb(79, 121, 27); stroke: black; stroke-width: 0;"></path>
                </g>
                <g transform="matrix(1.00601,0,0,-1.00601,-24923.9,6932.91)">
                    <path d="M25574,3321.66L25324,3321.66L25324,3071.66L25531.1,3071.66C25557.6,3146.21 25572.6,3226.18 25574,3309.45L25574,3321.66Z" style="fill: rgb(55, 92, 10); stroke: black; stroke-width: 0;"></path>
                </g>
                <g transform="matrix(1.00601,0,0,-1.00601,-24923.9,6932.91)">
                    <path d="M25574,1821.66L25824,1821.66L25824,2071.66L25653,2071.66C25627.2,2054.52 25600.9,2038.16 25574,2022.62L25574,1821.66Z" style="fill: rgb(234, 169, 134); stroke: black; stroke-width: 0;"></path>
                </g>
                <g transform="matrix(1.00601,0,0,-1.00601,-24923.9,6932.91)">
                    <path d="M25653,2071.66L25574,2071.66L25574,2022.62C25600.9,2038.16 25627.2,2054.51 25653,2071.66Z" style="fill: rgb(234, 140, 134); stroke: black; stroke-width: 0;"></path>
                </g>
                <g transform="matrix(1.00601,0,0,-1.00601,-24923.9,6932.91)">
                    <path d="M25824,2321.66L25574,2321.66L25574,2071.66L25653,2071.66C25713.2,2111.69 25770.4,2155.95 25824,2204.03L25824,2321.66Z" style="fill: rgb(189, 234, 134); stroke: black; stroke-width: 0;"></path>
                </g>
                <g transform="matrix(1.00601,0,0,-1.00601,-24923.9,6932.91)">
                    <path d="M25574,2321.66L25824,2321.66L25824,2571.66L25822.9,2571.66C25752.1,2477.58 25668.2,2393.86 25574,2323.14L25574,2321.66Z" style="fill: rgb(143, 194, 81); stroke: black; stroke-width: 0;"></path>
                </g>
                <g transform="matrix(1.00601,0,0,-1.00601,-7309.95,24802.5)">
                    <path d="M8063.39,20084.5L8065.34,20086L8065.34,20084.5L8063.39,20084.5Z" style="fill: rgb(234, 169, 134); stroke: black; stroke-width: 0;"></path>
                </g>
                <g transform="matrix(1.00601,0,0,-1.00601,-24923.9,6932.91)">
                    <path d="M25822.9,2571.66L25574,2571.66L25574,2323.14C25668.2,2393.86 25752.1,2477.57 25822.9,2571.66Z" style="fill: rgb(143, 194, 81); stroke: black; stroke-width: 0;"></path>
                </g>
                <g transform="matrix(1.00601,0,0,-1.00601,-24923.9,6932.91)">
                    <path d="M25574,2571.66L25822.9,2571.66L25824,2573.12L25824,2821.66L25689.5,2821.66C25656.3,2764.42 25617.5,2710.77 25574,2661.47L25574,2571.66Z" style="fill: rgb(79, 121, 27); stroke: black; stroke-width: 0;"></path>
                </g>
                <g transform="matrix(1.00601,0,0,-1.00601,-24923.9,6932.91)">
                    <path d="M25689.5,2821.66L25574,2821.66L25574,2661.47C25617.5,2710.77 25656.3,2764.42 25689.5,2821.66Z" style="fill: rgb(79, 121, 27); stroke: black; stroke-width: 0;"></path>
                </g>
                <g transform="matrix(1.00601,0,0,-1.00601,-24923.9,6932.91)">
                    <path d="M25792.2,3071.66L25824,3071.66L25824,3321.66L25824,3321.66C25824,3235.32 25812.9,3151.53 25792.2,3071.66Z" style="fill: rgb(143, 194, 81); stroke: black; stroke-width: 0;"></path>
                </g>
                <g transform="matrix(1.00601,0,0,-1.00601,-24923.9,6932.91)">
                    <path d="M25689.5,2821.66L25824,2821.66L25824,3071.66L25792.2,3071.66C25769.3,2982.96 25734.4,2899.02 25689.5,2821.66Z" style="fill: rgb(143, 194, 81); stroke: black; stroke-width: 0;"></path>
                </g>
                <g transform="matrix(1.00601,0,0,-1.00601,-24923.9,6932.91)">
                    <path d="M25792.2,3071.66L25574,3071.66L25574,2821.66L25689.5,2821.66C25734.4,2899.02 25769.3,2982.96 25792.2,3071.66Z" style="fill: rgb(79, 121, 27); stroke: black; stroke-width: 0;"></path>
                </g>
                <g transform="matrix(1.00601,0,0,-1.00601,-24923.9,6932.91)">
                    <path d="M25653,2071.66L25824,2071.66L25824,2204.03C25770.4,2155.96 25713.2,2111.7 25653,2071.66Z" style="fill: rgb(234, 140, 134); stroke: black; stroke-width: 0;"></path>
                </g>
                <g transform="matrix(1.00601,0,0,-1.00601,-24923.9,6932.91)">
                    <path d="M25824,3321.66L25574,3321.66L25574,3071.66L25792.2,3071.66C25812.9,3151.58 25824,3235.34 25824,3321.66Z" style="fill: rgb(79, 121, 27); stroke: black; stroke-width: 0;"></path>
                </g>
                <g transform="matrix(1.00601,0,0,-1.00601,-24923.9,6932.91)">
                    <path d="M25824,2071.66L26074,2071.66L26074,2321.66L25824,2321.66L25941.6,2321.66C25904.6,2280.3 25865.4,2241.04 25824,2204.03L25824,2071.66Z" style="fill: rgb(234, 169, 134); stroke: black; stroke-width: 0;"></path>
                </g>
                <g transform="matrix(1.00601,0,0,-1.00601,-24923.9,6932.91)">
                    <path d="M25941.6,2321.66L26074,2321.66L26074,2492.72C26034,2432.5 25989.7,2375.33 25941.6,2321.66Z" style="fill: rgb(234, 140, 134); stroke: black; stroke-width: 0;"></path>
                </g>
                <g transform="matrix(1.00601,0,0,-1.00601,-24923.9,6932.91)">
                    <path d="M25824,2571.66L26074,2571.66L26074,2821.66L25969.4,2821.66C25930.5,2732.94 25881.6,2649.61 25824,2573.12L25824,2571.66Z" style="fill: rgb(143, 194, 81); stroke: black; stroke-width: 0;"></path>
                </g>
                <g transform="matrix(1.00601,0,0,-1.00601,-24923.9,6932.91)">
                    <path d="M26074,2571.66L25824,2571.66L25824,2321.66L25941.6,2321.66C25989.7,2375.33 26034,2432.48 26074,2492.72L26074,2571.66Z" style="fill: rgb(189, 234, 134); stroke: black; stroke-width: 0;"></path>
                </g>
                <g transform="matrix(1.00601,0,0,-1.00601,-24923.9,6932.91)">
                    <path d="M25969.4,2821.66L26074,2821.66L26074,3071.66L26048.8,3071.66C26031,2984.7 26004.2,2901.01 25969.4,2821.66Z" style="fill: rgb(189, 234, 134); stroke: black; stroke-width: 0;"></path>
                </g>
                <g transform="matrix(1.00601,0,0,-1.00601,-24923.9,6932.91)">
                    <path d="M26048.8,3071.66L25824,3071.66L25824,2821.66L25969.4,2821.66C26004.2,2901.01 26031,2984.7 26048.8,3071.66Z" style="fill: rgb(143, 194, 81); stroke: black; stroke-width: 0;"></path>
                </g>
                <g transform="matrix(1.00601,0,0,-1.00601,-24923.9,6932.91)">
                    <path d="M26048.8,3071.66L26074,3071.66L26074,3321.66L26074,3321.66C26074,3236.05 26065.3,3152.45 26048.8,3071.66Z" style="fill: rgb(189, 234, 134); stroke: black; stroke-width: 0;"></path>
                </g>
                <g transform="matrix(1.00601,0,0,-1.00601,-24923.9,6932.91)">
                    <path d="M26074,3321.66L25824,3321.66L25824,3071.66L26048.8,3071.66C26065.3,3152.47 26074,3236.06 26074,3321.66Z" style="fill: rgb(143, 194, 81); stroke: black; stroke-width: 0;"></path>
                </g>
                <g transform="matrix(1.00601,0,0,-1.00601,-24923.9,6932.91)">
                    <path d="M25969.4,2821.66L25824,2821.66L25824,2573.12C25881.6,2649.61 25930.5,2732.94 25969.4,2821.66Z" style="fill: rgb(143, 194, 81); stroke: black; stroke-width: 0;"></path>
                </g>
                <g transform="matrix(1.00601,0,0,-1.00601,-24923.9,6932.91)">
                    <path d="M25941.6,2321.66L25824,2321.66L25824,2204.03C25865.4,2241.04 25904.6,2280.3 25941.6,2321.66Z" style="fill: rgb(234, 140, 134); stroke: black; stroke-width: 0;"></path>
                </g>
                <g transform="matrix(1.00601,0,0,-1.00601,-24923.9,6932.91)">
                    <path d="M26324,3321.66L26074,3321.66L26074,3071.66L26303.2,3071.66C26315.8,3146.35 26322.8,3222.9 26323.9,3300.89L26324,3321.66Z" style="fill: rgb(189, 234, 134); stroke: black; stroke-width: 0;"></path>
                </g>
                <g transform="matrix(1.00601,0,0,-1.00601,-24923.9,6932.91)">
                    <path d="M26324,3071.66L26324,3321.66C26324,3236.49 26316.9,3152.97 26303.2,3071.66L26324,3071.66Z" style="fill: rgb(234, 140, 134); stroke: black; stroke-width: 0;"></path>
                </g>
                <g transform="matrix(1.00601,0,0,-1.00601,-24923.9,6932.91)">
                    <path d="M26303.2,3071.66L26074,3071.66L26074,2821.66L26238.5,2821.66C26267,2902.09 26288.8,2985.65 26303.2,3071.66Z" style="fill: rgb(189, 234, 134); stroke: black; stroke-width: 0;"></path>
                </g>
                <g transform="matrix(1.00601,0,0,-1.00601,-24923.9,6932.91)">
                    <path d="M26324,3071.66L26303.2,3071.66C26288.8,2985.61 26267,2902.04 26238.5,2821.66L26324,2821.66L26324,3071.66Z" style="fill: rgb(234, 140, 134); stroke: black; stroke-width: 0;"></path>
                </g>
                <g transform="matrix(1.00601,0,0,-1.00601,-24923.9,6932.91)">
                    <path d="M26238.5,2821.66L26074,2821.66L26074,2571.66L26123.1,2571.66C26168.8,2650.71 26207.6,2734.32 26238.5,2821.66Z" style="fill: rgb(189, 234, 134); stroke: black; stroke-width: 0;"></path>
                </g>
                <g transform="matrix(1.00601,0,0,-1.00601,-24923.9,6932.91)">
                    <path d="M26324,2821.66L26238.5,2821.66C26207.6,2734.34 26168.9,2650.72 26123.1,2571.66L26324,2571.66L26324,2821.66Z" style="fill: rgb(234, 169, 134); stroke: black; stroke-width: 0;"></path>
                </g>
                <g transform="matrix(1.00601,0,0,-1.00601,-24923.9,6932.91)">
                    <path d="M26123.1,2571.66L26074,2571.66L26074,2492.72C26091.2,2518.49 26107.5,2544.82 26123.1,2571.66Z" style="fill: rgb(234, 140, 134); stroke: black; stroke-width: 0;"></path>
                </g>
                <g transform="matrix(1.00601,0,0,-1.00601,-24923.9,6932.91)">
                    <path d="M26324,2571.66L26123.1,2571.66C26107.5,2544.81 26091.2,2518.48 26074,2492.72L26074,2321.66L26324,2321.66L26324,2571.66Z" style="fill: rgb(234, 169, 134); stroke: black; stroke-width: 0;"></path>
                </g>
                <g transform="matrix(1.00601,0,0,-1.00601,-24923.9,6932.91)">
                    <rect x="26074" y="2071.66" width="250" height="250" style="fill: rgb(234, 169, 134); stroke: black; stroke-width: 0;"></rect>
                </g>
                <g transform="matrix(1.00601,0,0,-1.00601,-24923.9,6932.91)">
                    <rect x="26074" y="1821.66" width="250" height="250" style="fill: rgb(226, 80, 200); stroke: black; stroke-width: 0;"></rect>
                </g>
                <g transform="matrix(1.00601,0,0,-1.00601,-7309.95,24802.5)">
                    <path d="M8063.39,20084.5L8065.34,20086L8065.34,20334.5L7975.39,20334.5C7926.11,20291.2 7872.53,20252.6 7815.34,20219.5L7815.34,20084.5L8063.39,20084.5Z" style="fill: rgb(79, 121, 27); stroke: black; stroke-width: 0;"></path>
                </g>
                <g transform="matrix(-1.00601,0,0,-1.00601,28040.6,6932.91)">
                    <rect x="25824" y="1821.66" width="250" height="250" style="fill: rgb(234, 169, 134); stroke: black; stroke-width: 0;"></rect>
                </g>
                <g transform="matrix(-0.868064,0,0,-0.868064,2497.81,4507.06)">
                    <path d="M502.779,187.469L501.485,185.778L502.779,185.778L502.779,187.469Z" style="fill: rgb(234, 169, 134); stroke: black; stroke-width: 0;"></path>
                </g>
                <g transform="matrix(-1.00601,0,0,-1.00601,28040.6,6932.91)">
                    <path d="M25073.8,3321.66L24824,3321.66L24824,3071.66C24961.9,3071.66 25073.8,3183.56 25073.8,3321.39L25073.8,3321.66Z" style="fill: rgb(234, 140, 134); stroke: black; stroke-width: 0;"></path>
                </g>
                <g transform="matrix(-1.00601,0,0,-1.00601,28040.6,6932.91)">
                    <path d="M25074,3071.66L24824,3071.66L24824,2821.67C24915.1,2821.78 25000.5,2846.22 25074,2888.84L25074,3071.66Z" style="fill: rgb(234, 169, 134); stroke: black; stroke-width: 0;"></path>
                </g>
                <g transform="matrix(-1.00601,0,0,-1.00601,28040.6,6932.91)">
                    <path d="M25074,2821.66L24824,2821.66L24824,2571.67C24911.7,2571.76 24995.9,2586.91 25074,2614.69L25074,2821.66Z" style="fill: rgb(55, 92, 10); stroke: black; stroke-width: 0;"></path>
                </g>
                <g transform="matrix(-1.00601,0,0,-1.00601,28040.6,6932.91)">
                    <path d="M25074,2571.66L24824,2571.66L24824,2322.61L24840.2,2322.74C24840.2,2322.74 24856.3,2323.12 24856.3,2323.12L24872.3,2323.76C24941.6,2327.06 25009.1,2337.43 25074,2354.17L25074,2571.66Z" style="fill: rgb(79, 121, 27); stroke: black; stroke-width: 0;"></path>
                </g>
                <g transform="matrix(-1.00601,0,0,-1.00601,28040.6,6932.91)">
                    <path d="M25074,2321.66L24824,2321.66L24824,2073.09L24824.5,2073.09C24910,2073.09 24993.4,2081.68 25074,2098.06L25074,2321.66Z" style="fill: rgb(143, 194, 81); stroke: black; stroke-width: 0;"></path>
                </g>
                <g transform="matrix(-1.00601,0,0,-1.00601,28040.6,6932.91)">
                    <path d="M25074,2071.66L24824,2071.66L24824,1821.66C24909.2,1821.66 24992.8,1828.77 25074,1842.45L25074,2071.66Z" style="fill: rgb(189, 234, 134); stroke: black; stroke-width: 0;"></path>
                </g>
                <g transform="matrix(-1.00601,0,0,-1.00601,28040.6,6932.91)">
                    <path d="M25074,3071.66L25074,3321.66L25073.8,3321.66L25073.8,3321.39C25073.8,3183.56 24961.9,3071.66 24824,3071.66L25074,3071.66Z" style="fill: rgb(234, 169, 134); stroke: black; stroke-width: 0;"></path>
                </g>
                <g transform="matrix(-1.00601,0,0,-1.00601,28040.6,6932.91)">
                    <path d="M25074,3071.66L25074,2888.84C25149.9,2932.72 25213.1,2995.9 25257.2,3071.66L25074,3071.66Z" style="fill: rgb(234, 169, 134); stroke: black; stroke-width: 0;"></path>
                </g>
                <g transform="matrix(-1.00601,0,0,-1.00601,28040.6,6932.91)">
                    <path d="M25074,3321.66L25074,3071.66L25257.2,3071.66C25296.1,3138.61 25320,3215.38 25324,3297.34L25324,3321.66L25074,3321.66Z" style="fill: rgb(234, 169, 134); stroke: black; stroke-width: 0;"></path>
                </g>
                <g transform="matrix(-1.00601,0,0,-1.00601,28040.6,6932.91)">
                    <path d="M25074,2821.66L25074,2888.84C25000.5,2846.22 24915.1,2821.78 24824,2821.67L24824,2821.66L25074,2821.66Z" style="fill: rgb(55, 92, 10); stroke: black; stroke-width: 0;"></path>
                </g>
                <g transform="matrix(-1.00601,0,0,-1.00601,28040.6,6932.91)">
                    <path d="M25074,2821.66L25074,2614.69C25167.2,2647.72 25251.9,2698.63 25324,2763.29L25324,2821.66L25074,2821.66Z" style="fill: rgb(55, 92, 10); stroke: black; stroke-width: 0;"></path>
                </g>
                <g transform="matrix(-1.00601,0,0,-1.00601,28040.6,6932.91)">
                    <path d="M25074,2571.66L25074,2614.69C24995.9,2586.89 24911.7,2571.75 24824,2571.67L24824,2571.66L25074,2571.66Z" style="fill: rgb(79, 121, 27); stroke: black; stroke-width: 0;"></path>
                </g>
                <g transform="matrix(-1.00601,0,0,-1.00601,28040.6,6932.91)">
                    <path d="M25074,2571.66L25074,2354.17C25162.7,2377.03 25246.7,2411.77 25324,2456.62L25324,2571.66L25074,2571.66Z" style="fill: rgb(79, 121, 27); stroke: black; stroke-width: 0;"></path>
                </g>
                <g transform="matrix(-1.00601,0,0,-1.00601,28040.6,6932.91)">
                    <path d="M25074,2321.66L25074,2354.17C25009.1,2337.43 24941.6,2327.06 24872.3,2323.76L24856.3,2323.12L24840.2,2322.74L24824,2322.61C24824,2322.61 24824,2321.66 24824,2321.66L25074,2321.66Z" style="fill: rgb(143, 194, 81); stroke: black; stroke-width: 0;"></path>
                </g>
                <g transform="matrix(-1.00601,0,0,-1.00601,28040.6,6932.91)">
                    <path d="M25074,2321.66L25074,2098.06C25161,2115.71 25244.7,2142.41 25324,2177.15L25324,2321.66L25074,2321.66Z" style="fill: rgb(143, 194, 81); stroke: black; stroke-width: 0;"></path>
                </g>
                <g transform="matrix(-1.00601,0,0,-1.00601,28040.6,6932.91)">
                    <path d="M25074,2071.66L25074,2098.06C24993.4,2081.68 24910,2073.09 24824.5,2073.09L24824,2073.09L24824,2071.66L25074,2071.66Z" style="fill: rgb(189, 234, 134); stroke: black; stroke-width: 0;"></path>
                </g>
                <g transform="matrix(-1.00601,0,0,-1.00601,28040.6,6932.91)">
                    <path d="M25074,2071.66L25074,1842.45C25160.1,1856.91 25243.6,1878.69 25324,1907.16L25324,2071.66L25074,2071.66Z" style="fill: rgb(189, 234, 134); stroke: black; stroke-width: 0;"></path>
                </g>
                <g transform="matrix(-1.00601,0,0,-1.00601,28040.6,6932.91)">
                    <path d="M25324,3071.66L25324,3297.34C25320,3215.38 25296.1,3138.61 25257.2,3071.66L25324,3071.66Z" style="fill: rgb(55, 92, 10); stroke: black; stroke-width: 0;"></path>
                </g>
                <g transform="matrix(-1.00601,0,0,-1.00601,28040.6,6932.91)">
                    <path d="M25324,2821.66L25324,3071.66L25257.2,3071.66C25213.1,2995.92 25149.9,2932.74 25074,2888.84L25074,2821.66L25324,2821.66Z" style="fill: rgb(55, 92, 10); stroke: black; stroke-width: 0;"></path>
                </g>
                <g transform="matrix(-1.00601,0,0,-1.00601,28040.6,6932.91)">
                    <path d="M25324,2571.66L25324,2763.29C25251.9,2698.63 25167.2,2647.72 25074,2614.69L25074,2821.66C25074,2821.66 25074,2571.66 25074,2571.66L25324,2571.66Z" style="fill: rgb(79, 121, 27); stroke: black; stroke-width: 0;"></path>
                </g>
                <g transform="matrix(-1.00601,0,0,-1.00601,28040.6,6932.91)">
                    <path d="M25324,2321.66L25324,2456.62C25246.7,2411.77 25162.7,2377.03 25074,2354.17L25074,2321.66L25324,2321.66Z" style="fill: rgb(143, 194, 81); stroke: black; stroke-width: 0;"></path>
                </g>
                <g transform="matrix(-1.00601,0,0,-1.00601,28040.6,6932.91)">
                    <path d="M25324,2071.66L25324,2177.15C25244.7,2142.41 25161,2115.71 25074,2098.06L25074,2071.66L25324,2071.66Z" style="fill: rgb(189, 234, 134); stroke: black; stroke-width: 0;"></path>
                </g>
                <g transform="matrix(-1.00601,0,0,-1.00601,28040.6,6932.91)">
                    <path d="M25324,1821.66L25324,1907.16C25243.6,1878.69 25160,1856.89 25074,1842.45L25074,1821.66L25324,1821.66Z" style="fill: rgb(234, 140, 134); stroke: black; stroke-width: 0;"></path>
                </g>
                <g transform="matrix(-1.00601,0,0,-1.00601,28040.6,6932.91)">
                    <path d="M25074,1821.66L25074,1842.45C24992.8,1828.77 24909.2,1821.66 24824,1821.66L25074,1821.66Z" style="fill: rgb(234, 140, 134); stroke: black; stroke-width: 0;"></path>
                </g>
                <g transform="matrix(-1.00601,0,0,-1.00601,28040.6,6932.91)">
                    <path d="M25324,1821.66L25574,1821.66L25574,2022.62C25495,1976.84 25411.4,1938.07 25324,1907.16L25324,1821.66Z" style="fill: rgb(234, 169, 134); stroke: black; stroke-width: 0;"></path>
                </g>
                <g transform="matrix(-1.00601,0,0,-1.00601,28040.6,6932.91)">
                    <path d="M25574,2071.66L25324,2071.66L25324,1907.16C25411.4,1938.07 25495,1976.84 25574,2022.62L25574,2071.66Z" style="fill: rgb(189, 234, 134); stroke: black; stroke-width: 0;"></path>
                </g>
                <g transform="matrix(-1.00601,0,0,-1.00601,28040.6,6932.91)">
                    <path d="M25324,2071.66L25574,2071.66L25574,2321.66L25572.1,2321.66C25495.7,2264.45 25412.5,2215.83 25324,2177.15L25324,2071.66Z" style="fill: rgb(143, 194, 81); stroke: black; stroke-width: 0;"></path>
                </g>
                <g transform="matrix(-1.00601,0,0,-1.00601,28040.6,6932.91)">
                    <path d="M25572.1,2321.66L25324,2321.66L25324,2177.15C25412.5,2215.83 25495.7,2264.45 25572.1,2321.66Z" style="fill: rgb(143, 194, 81); stroke: black; stroke-width: 0;"></path>
                </g>
                <g transform="matrix(-1.00601,0,0,-1.00601,28040.6,6932.91)">
                    <path d="M25484.1,2571.66L25324,2571.66L25324,2456.62C25381.2,2489.7 25434.8,2528.28 25484.1,2571.66Z" style="fill: rgb(79, 121, 27); stroke: black; stroke-width: 0;"></path>
                </g>
                <g transform="matrix(-1.00601,0,0,-1.00601,28040.6,6932.91)">
                    <path d="M25484.1,2571.66L25574,2571.66L25574,2661.47C25546,2629.67 25515.9,2599.67 25484.1,2571.66Z" style="fill: rgb(143, 194, 81); stroke: black; stroke-width: 0;"></path>
                </g>
                <g transform="matrix(-1.00601,0,0,-1.00601,28040.6,6932.91)">
                    <path d="M25382.4,2821.66L25324,2821.66L25324,2763.29C25344.6,2781.67 25364,2801.15 25382.4,2821.66Z" style="fill: rgb(55, 92, 10); stroke: black; stroke-width: 0;"></path>
                </g>
                <g transform="matrix(-1.00601,0,0,-1.00601,28040.6,6932.91)">
                    <path d="M25574,2821.66L25382.4,2821.66C25364,2801.15 25344.6,2781.67 25324,2763.29L25324,2821.66C25324,2821.66 25324,2571.66 25324,2571.66L25484.1,2571.66C25515.9,2599.67 25546,2629.67 25574,2661.47L25574,2821.66Z" style="fill: rgb(55, 92, 10); stroke: black; stroke-width: 0;"></path>
                </g>
                <g transform="matrix(-1.00601,0,0,-1.00601,28040.6,6932.91)">
                    <path d="M25531.1,3071.66L25324,3071.66L25324,2821.66L25382.4,2821.66C25447.1,2893.79 25498.1,2978.5 25531.1,3071.66Z" style="fill: rgb(55, 92, 10); stroke: black; stroke-width: 0;"></path>
                </g>
                <g transform="matrix(-1.00601,0,0,-1.00601,28040.6,6932.91)">
                    <path d="M25531.1,3071.66L25574,3071.66L25574,3309.45C25572.6,3226.18 25557.6,3146.21 25531.1,3071.66Z" style="fill: rgb(79, 121, 27); stroke: black; stroke-width: 0;"></path>
                </g>
                <g transform="matrix(-1.00601,0,0,-1.00601,28040.6,6932.91)">
                    <path d="M25574,2821.66L25574,3071.66L25531.1,3071.66C25498.1,2978.5 25447.1,2893.79 25382.4,2821.66L25574,2821.66Z" style="fill: rgb(79, 121, 27); stroke: black; stroke-width: 0;"></path>
                </g>
                <g transform="matrix(-1.00601,0,0,-1.00601,28040.6,6932.91)">
                    <path d="M25574,3321.66L25324,3321.66L25324,3071.66L25531.1,3071.66C25557.6,3146.21 25572.6,3226.18 25574,3309.45L25574,3321.66Z" style="fill: rgb(55, 92, 10); stroke: black; stroke-width: 0;"></path>
                </g>
                <g transform="matrix(-1.00601,0,0,-1.00601,28040.6,6932.91)">
                    <path d="M25574,1821.66L25824,1821.66L25824,2071.66L25653,2071.66C25627.2,2054.52 25600.9,2038.16 25574,2022.62L25574,1821.66Z" style="fill: rgb(234, 169, 134); stroke: black; stroke-width: 0;"></path>
                </g>
                <g transform="matrix(-1.00601,0,0,-1.00601,28040.6,6932.91)">
                    <path d="M25653,2071.66L25574,2071.66L25574,2022.62C25600.9,2038.16 25627.2,2054.51 25653,2071.66Z" style="fill: rgb(234, 140, 134); stroke: black; stroke-width: 0;"></path>
                </g>
                <g transform="matrix(-1.00601,0,0,-1.00601,28040.6,6932.91)">
                    <path d="M25824,2321.66L25574,2321.66L25574,2071.66L25653,2071.66C25713.2,2111.69 25770.4,2155.95 25824,2204.03L25824,2321.66Z" style="fill: rgb(189, 234, 134); stroke: black; stroke-width: 0;"></path>
                </g>
                <g transform="matrix(-1.00601,0,0,-1.00601,28040.6,6932.91)">
                    <path d="M25574,2321.66L25824,2321.66L25824,2571.66L25822.9,2571.66C25752.1,2477.58 25668.2,2393.86 25574,2323.14L25574,2321.66Z" style="fill: rgb(143, 194, 81); stroke: black; stroke-width: 0;"></path>
                </g>
                <g transform="matrix(-1.00601,0,0,-1.00601,10426.7,24802.5)">
                    <path d="M8063.39,20084.5L8065.34,20086L8065.34,20084.5L8063.39,20084.5Z" style="fill: rgb(234, 169, 134); stroke: black; stroke-width: 0;"></path>
                </g>
                <g transform="matrix(-1.00601,0,0,-1.00601,28040.6,6932.91)">
                    <path d="M25822.9,2571.66L25574,2571.66L25574,2323.14C25668.2,2393.86 25752.1,2477.57 25822.9,2571.66Z" style="fill: rgb(143, 194, 81); stroke: black; stroke-width: 0;"></path>
                </g>
                <g transform="matrix(-1.00601,0,0,-1.00601,28040.6,6932.91)">
                    <path d="M25574,2571.66L25822.9,2571.66L25824,2573.12L25824,2821.66L25689.5,2821.66C25656.3,2764.42 25617.5,2710.77 25574,2661.47L25574,2571.66Z" style="fill: rgb(79, 121, 27); stroke: black; stroke-width: 0;"></path>
                </g>
                <g transform="matrix(-1.00601,0,0,-1.00601,28040.6,6932.91)">
                    <path d="M25689.5,2821.66L25574,2821.66L25574,2661.47C25617.5,2710.77 25656.3,2764.42 25689.5,2821.66Z" style="fill: rgb(79, 121, 27); stroke: black; stroke-width: 0;"></path>
                </g>
                <g transform="matrix(-1.00601,0,0,-1.00601,28040.6,6932.91)">
                    <path d="M25792.2,3071.66L25824,3071.66L25824,3321.66L25824,3321.66C25824,3235.32 25812.9,3151.53 25792.2,3071.66Z" style="fill: rgb(143, 194, 81); stroke: black; stroke-width: 0;"></path>
                </g>
                <g transform="matrix(-1.00601,0,0,-1.00601,28040.6,6932.91)">
                    <path d="M25689.5,2821.66L25824,2821.66L25824,3071.66L25792.2,3071.66C25769.3,2982.96 25734.4,2899.02 25689.5,2821.66Z" style="fill: rgb(143, 194, 81); stroke: black; stroke-width: 0;"></path>
                </g>
                <g transform="matrix(-1.00601,0,0,-1.00601,28040.6,6932.91)">
                    <path d="M25792.2,3071.66L25574,3071.66L25574,2821.66L25689.5,2821.66C25734.4,2899.02 25769.3,2982.96 25792.2,3071.66Z" style="fill: rgb(79, 121, 27); stroke: black; stroke-width: 0;"></path>
                </g>
                <g transform="matrix(-1.00601,0,0,-1.00601,28040.6,6932.91)">
                    <path d="M25653,2071.66L25824,2071.66L25824,2204.03C25770.4,2155.96 25713.2,2111.7 25653,2071.66Z" style="fill: rgb(234, 140, 134); stroke: black; stroke-width: 0;"></path>
                </g>
                <g transform="matrix(-1.00601,0,0,-1.00601,28040.6,6932.91)">
                    <path d="M25824,3321.66L25574,3321.66L25574,3071.66L25792.2,3071.66C25812.9,3151.58 25824,3235.34 25824,3321.66Z" style="fill: rgb(79, 121, 27); stroke: black; stroke-width: 0;"></path>
                </g>
                <g transform="matrix(-1.00601,0,0,-1.00601,28040.6,6932.91)">
                    <path d="M25824,2071.66L26074,2071.66L26074,2321.66L25824,2321.66L25941.6,2321.66C25904.6,2280.3 25865.4,2241.04 25824,2204.03L25824,2071.66Z" style="fill: rgb(234, 169, 134); stroke: black; stroke-width: 0;"></path>
                </g>
                <g transform="matrix(-1.00601,0,0,-1.00601,28040.6,6932.91)">
                    <path d="M25941.6,2321.66L26074,2321.66L26074,2492.72C26034,2432.5 25989.7,2375.33 25941.6,2321.66Z" style="fill: rgb(234, 140, 134); stroke: black; stroke-width: 0;"></path>
                </g>
                <g transform="matrix(-1.00601,0,0,-1.00601,28040.6,6932.91)">
                    <path d="M25824,2571.66L26074,2571.66L26074,2821.66L25969.4,2821.66C25930.5,2732.94 25881.6,2649.61 25824,2573.12L25824,2571.66Z" style="fill: rgb(143, 194, 81); stroke: black; stroke-width: 0;"></path>
                </g>
                <g transform="matrix(-1.00601,0,0,-1.00601,28040.6,6932.91)">
                    <path d="M26074,2571.66L25824,2571.66L25824,2321.66L25941.6,2321.66C25989.7,2375.33 26034,2432.48 26074,2492.72L26074,2571.66Z" style="fill: rgb(189, 234, 134); stroke: black; stroke-width: 0;"></path>
                </g>
                <g transform="matrix(-1.00601,0,0,-1.00601,28040.6,6932.91)">
                    <path d="M25969.4,2821.66L26074,2821.66L26074,3071.66L26048.8,3071.66C26031,2984.7 26004.2,2901.01 25969.4,2821.66Z" style="fill: rgb(189, 234, 134); stroke: black; stroke-width: 0;"></path>
                </g>
                <g transform="matrix(-1.00601,0,0,-1.00601,28040.6,6932.91)">
                    <path d="M26048.8,3071.66L25824,3071.66L25824,2821.66L25969.4,2821.66C26004.2,2901.01 26031,2984.7 26048.8,3071.66Z" style="fill: rgb(143, 194, 81); stroke: black; stroke-width: 0;"></path>
                </g>
                <g transform="matrix(-1.00601,0,0,-1.00601,28040.6,6932.91)">
                    <path d="M26048.8,3071.66L26074,3071.66L26074,3321.66L26074,3321.66C26074,3236.05 26065.3,3152.45 26048.8,3071.66Z" style="fill: rgb(189, 234, 134); stroke: black; stroke-width: 0;"></path>
                </g>
                <g transform="matrix(-1.00601,0,0,-1.00601,28040.6,6932.91)">
                    <path d="M26074,3321.66L25824,3321.66L25824,3071.66L26048.8,3071.66C26065.3,3152.47 26074,3236.06 26074,3321.66Z" style="fill: rgb(143, 194, 81); stroke: black; stroke-width: 0;"></path>
                </g>
                <g transform="matrix(-1.00601,0,0,-1.00601,28040.6,6932.91)">
                    <path d="M25969.4,2821.66L25824,2821.66L25824,2573.12C25881.6,2649.61 25930.5,2732.94 25969.4,2821.66Z" style="fill: rgb(143, 194, 81); stroke: black; stroke-width: 0;"></path>
                </g>
                <g transform="matrix(-1.00601,0,0,-1.00601,28040.6,6932.91)">
                    <path d="M25941.6,2321.66L25824,2321.66L25824,2204.03C25865.4,2241.04 25904.6,2280.3 25941.6,2321.66Z" style="fill: rgb(234, 140, 134); stroke: black; stroke-width: 0;"></path>
                </g>
                <g transform="matrix(-1.00601,0,0,-1.00601,28040.6,6932.91)">
                    <path d="M26324,3321.66L26074,3321.66L26074,3071.66L26303.2,3071.66C26315.8,3146.35 26322.8,3222.9 26323.9,3300.89L26324,3321.66Z" style="fill: rgb(189, 234, 134); stroke: black; stroke-width: 0;"></path>
                </g>
                <g transform="matrix(-1.00601,0,0,-1.00601,28040.6,6932.91)">
                    <path d="M26324,3071.66L26324,3321.66C26324,3236.49 26316.9,3152.97 26303.2,3071.66L26324,3071.66Z" style="fill: rgb(234, 140, 134); stroke: black; stroke-width: 0;"></path>
                </g>
                <g transform="matrix(-1.00601,0,0,-1.00601,28040.6,6932.91)">
                    <path d="M26303.2,3071.66L26074,3071.66L26074,2821.66L26238.5,2821.66C26267,2902.09 26288.8,2985.65 26303.2,3071.66Z" style="fill: rgb(189, 234, 134); stroke: black; stroke-width: 0;"></path>
                </g>
                <g transform="matrix(-1.00601,0,0,-1.00601,28040.6,6932.91)">
                    <path d="M26324,3071.66L26303.2,3071.66C26288.8,2985.61 26267,2902.04 26238.5,2821.66L26324,2821.66L26324,3071.66Z" style="fill: rgb(234, 140, 134); stroke: black; stroke-width: 0;"></path>
                </g>
                <g transform="matrix(-1.00601,0,0,-1.00601,28040.6,6932.91)">
                    <path d="M26238.5,2821.66L26074,2821.66L26074,2571.66L26123.1,2571.66C26168.8,2650.71 26207.6,2734.32 26238.5,2821.66Z" style="fill: rgb(189, 234, 134); stroke: black; stroke-width: 0;"></path>
                </g>
                <g transform="matrix(-1.00601,0,0,-1.00601,28040.6,6932.91)">
                    <path d="M26324,2821.66L26238.5,2821.66C26207.6,2734.34 26168.9,2650.72 26123.1,2571.66L26324,2571.66L26324,2821.66Z" style="fill: rgb(234, 169, 134); stroke: black; stroke-width: 0;"></path>
                </g>
                <g transform="matrix(-1.00601,0,0,-1.00601,28040.6,6932.91)">
                    <path d="M26123.1,2571.66L26074,2571.66L26074,2492.72C26091.2,2518.49 26107.5,2544.82 26123.1,2571.66Z" style="fill: rgb(234, 140, 134); stroke: black; stroke-width: 0;"></path>
                </g>
                <g transform="matrix(-1.00601,0,0,-1.00601,28040.6,6932.91)">
                    <path d="M26324,2571.66L26123.1,2571.66C26107.5,2544.81 26091.2,2518.48 26074,2492.72L26074,2321.66L26324,2321.66L26324,2571.66Z" style="fill: rgb(234, 169, 134); stroke: black; stroke-width: 0;"></path>
                </g>
                <g transform="matrix(-1.00601,0,0,-1.00601,28040.6,6932.91)">
                    <rect x="26074" y="2071.66" width="250" height="250" style="fill: rgb(234, 169, 134); stroke: black; stroke-width: 0;"></rect>
                </g>
                <g transform="matrix(-1.00601,0,0,-1.00601,28040.6,6932.91)">
                    <rect x="26074" y="1821.66" width="250" height="250" style="fill: rgb(160, 80, 226); stroke: black; stroke-width: 0;"></rect>
                </g>
                <g transform="matrix(-1.00601,0,0,-1.00601,10426.7,24802.5)">
                    <path d="M8063.39,20084.5L8065.34,20086L8065.34,20334.5L7975.39,20334.5C7926.11,20291.2 7872.53,20252.6 7815.34,20219.5L7815.34,20084.5L8063.39,20084.5Z" style="fill: rgb(79, 121, 27); stroke: black; stroke-width: 0;"></path>
                </g>
            </g>
        </g>
    </g>
</svg>
