<?xml version="1.0" encoding="UTF-8" standalone="no"?>
<!DOCTYPE svg PUBLIC "-//W3C//DTD SVG 1.1//EN" "http://www.w3.org/Graphics/SVG/1.1/DTD/svg11.dtd">
<svg width="100%" height="100%" viewBox="0 0 34 34" version="1.1" xmlns="http://www.w3.org/2000/svg" xmlns:xlink="http://www.w3.org/1999/xlink" xml:space="preserve" xmlns:serif="http://www.serif.com/" style="fill-rule:evenodd;clip-rule:evenodd;stroke-linecap:round;stroke-linejoin:round;stroke-miterlimit:1.5;">
    <g transform="matrix(1,0,0,1,-66.8734,-511.623)">
        <g transform="matrix(6.12323e-17,-1,1,6.12323e-17,68.75,543.5)">
            <path d="M31.877,-0C31.877,-1.036 31.036,-1.877 30,-1.877L0,-1.877C-1.036,-1.877 -1.877,-1.036 -1.877,0L-1.877,30C-1.877,31.036 -1.036,31.877 -0,31.877L30,31.877C31.036,31.877 31.877,31.036 31.877,30L31.877,-0ZM30,0L0,0L0,30L30,30L30,0Z"/>
        </g>
        <g transform="matrix(6.56061e-17,-1,1.07143,6.12323e-17,35.5357,562)">
            <path d="M40,31L40,59" style="fill:none;stroke:black;stroke-width:1.81px;"/>
        </g>
        <g transform="matrix(6.56061e-17,-1,1.07143,6.12323e-17,35.5357,571.5)">
            <path d="M40,31L40,59" style="fill:none;stroke:black;stroke-width:1.81px;"/>
        </g>
        <g transform="matrix(4.77264e-17,-1,1.07143,7.90997e-17,35.5357,556.5)">
            <path d="M40,31L40,59" style="fill:none;stroke:black;stroke-width:1.81px;"/>
        </g>
    </g>
</svg>
