<?xml version="1.0" encoding="UTF-8" standalone="no"?>
<!DOCTYPE svg PUBLIC "-//W3C//DTD SVG 1.1//EN" "http://www.w3.org/Graphics/SVG/1.1/DTD/svg11.dtd">
<svg width="100%" height="100%" viewBox="0 0 34 34" version="1.1" xmlns="http://www.w3.org/2000/svg" xmlns:xlink="http://www.w3.org/1999/xlink" xml:space="preserve" xmlns:serif="http://www.serif.com/" style="fill-rule:evenodd;clip-rule:evenodd;stroke-linecap:round;stroke-linejoin:round;stroke-miterlimit:1.5;">
    <g transform="matrix(1,0,0,1,-68.1533,-938.288)">
        <g transform="matrix(-6.12323e-17,-1,-1,6.12323e-17,100.03,970.165)">
            <path d="M30,-1.877C31.036,-1.877 31.877,-1.036 31.877,0L31.877,30C31.877,31.036 31.036,31.877 30,31.877L0,31.877C-1.036,31.877 -1.877,31.036 -1.877,30L-1.877,0C-1.877,-1.036 -1.036,-1.877 0,-1.877L30,-1.877ZM30,0L0,0L0,30L30,30L30,0Z"/>
        </g>
        <g transform="matrix(0.493614,0,0,0.493614,40.7805,471.775)">
            <path d="M71,950C76.027,950 80.015,953.987 80.015,959.015" style="fill:none;stroke:black;stroke-width:2.92px;"/>
        </g>
        <g transform="matrix(-0.493614,0,0,0.493614,119.773,471.775)">
            <path d="M71,950C76.027,950 80.015,953.987 80.015,959.015" style="fill:none;stroke:black;stroke-width:2.92px;"/>
        </g>
        <g transform="matrix(0.493614,0,0,0.493614,50.2553,471.775)">
            <path d="M71,950C76.027,950 80.015,953.987 80.015,959.015" style="fill:none;stroke:black;stroke-width:2.92px;"/>
        </g>
        <g transform="matrix(-0.493614,0,0,0.493614,129.248,471.775)">
            <path d="M71,950C76.027,950 80.015,953.987 80.015,959.015" style="fill:none;stroke:black;stroke-width:2.92px;"/>
        </g>
        <g transform="matrix(0.493614,0,0,0.493614,59.7301,471.775)">
            <path d="M71,950C76.027,950 80.015,953.987 80.015,959.015" style="fill:none;stroke:black;stroke-width:2.92px;"/>
        </g>
        <g transform="matrix(1.11135,0,0,1.11135,-14.1876,-111.078)">
            <path d="M85,950C87.76,950 90,952.24 90,955C90,957.76 87.76,960 85,960C82.24,960 80,957.76 80,955C80,952.24 82.24,950 85,950ZM85,951.299C87.043,951.299 88.701,952.957 88.701,955C88.701,957.043 87.043,958.701 85,958.701C82.957,958.701 81.299,957.043 81.299,955C81.299,952.957 82.957,951.299 85,951.299Z"/>
        </g>
        <g transform="matrix(0.493614,0,0,0.493614,40.7805,481.318)">
            <path d="M71,950C76.027,950 80.015,953.987 80.015,959.015" style="fill:none;stroke:black;stroke-width:2.92px;"/>
        </g>
        <g transform="matrix(-0.493614,0,0,0.493614,119.773,481.318)">
            <path d="M71,950C76.027,950 80.015,953.987 80.015,959.015" style="fill:none;stroke:black;stroke-width:2.92px;"/>
        </g>
        <g transform="matrix(0.493614,0,0,-0.493614,40.7805,1419.19)">
            <path d="M71,950C76.027,950 80.015,953.987 80.015,959.015" style="fill:none;stroke:black;stroke-width:2.92px;"/>
        </g>
        <g transform="matrix(-0.493614,0,0,-0.493614,119.773,1419.19)">
            <path d="M71,950C76.027,950 80.015,953.987 80.015,959.015" style="fill:none;stroke:black;stroke-width:2.92px;"/>
        </g>
        <g transform="matrix(1.11135,0,0,1.11135,-18.9078,-115.866)">
            <path d="M85,950C87.76,950 90,952.24 90,955C90,957.76 87.76,960 85,960C82.24,960 80,957.76 80,955C80,952.24 82.24,950 85,950ZM85,951.299C87.043,951.299 88.701,952.957 88.701,955C88.701,957.043 87.043,958.701 85,958.701C82.957,958.701 81.299,957.043 81.299,955C81.299,952.957 82.957,951.299 85,951.299Z"/>
        </g>
        <g transform="matrix(0.493614,0,0,0.493614,36.0602,476.86)">
            <path d="M71,950C76.027,950 80.015,953.987 80.015,959.015" style="fill:none;stroke:black;stroke-width:2.92px;"/>
        </g>
        <g transform="matrix(-0.493614,0,0,0.493614,115.053,476.86)">
            <path d="M71,950C76.027,950 80.015,953.987 80.015,959.015" style="fill:none;stroke:black;stroke-width:2.92px;"/>
        </g>
        <g transform="matrix(0.493614,0,0,-0.493614,36.0602,1414.4)">
            <path d="M71,950C76.027,950 80.015,953.987 80.015,959.015" style="fill:none;stroke:black;stroke-width:2.92px;"/>
        </g>
        <g transform="matrix(-0.493614,0,0,-0.493614,115.053,1414.4)">
            <path d="M71,950C76.027,950 80.015,953.987 80.015,959.015" style="fill:none;stroke:black;stroke-width:2.92px;"/>
        </g>
        <g transform="matrix(1.11135,0,0,1.11135,-4.71279,-111.078)">
            <path d="M85,950C87.76,950 90,952.24 90,955C90,957.76 87.76,960 85,960C82.24,960 80,957.76 80,955C80,952.24 82.24,950 85,950ZM85,951.299C87.043,951.299 88.701,952.957 88.701,955C88.701,957.043 87.043,958.701 85,958.701C82.957,958.701 81.299,957.043 81.299,955C81.299,952.957 82.957,951.299 85,951.299Z"/>
        </g>
        <g transform="matrix(0.493614,0,0,0.493614,50.2553,481.318)">
            <path d="M71,950C76.027,950 80.015,953.987 80.015,959.015" style="fill:none;stroke:black;stroke-width:2.92px;"/>
        </g>
        <g transform="matrix(-0.493614,0,0,0.493614,129.248,481.318)">
            <path d="M71,950C76.027,950 80.015,953.987 80.015,959.015" style="fill:none;stroke:black;stroke-width:2.92px;"/>
        </g>
        <g transform="matrix(0.493614,0,0,-0.493614,50.2553,1419.19)">
            <path d="M71,950C76.027,950 80.015,953.987 80.015,959.015" style="fill:none;stroke:black;stroke-width:2.92px;"/>
        </g>
        <g transform="matrix(-0.493614,0,0,-0.493614,129.248,1419.19)">
            <path d="M71,950C76.027,950 80.015,953.987 80.015,959.015" style="fill:none;stroke:black;stroke-width:2.92px;"/>
        </g>
        <g transform="matrix(1.11135,0,0,1.11135,-9.433,-115.866)">
            <path d="M85,950C87.76,950 90,952.24 90,955C90,957.76 87.76,960 85,960C82.24,960 80,957.76 80,955C80,952.24 82.24,950 85,950ZM85,951.299C87.043,951.299 88.701,952.957 88.701,955C88.701,957.043 87.043,958.701 85,958.701C82.957,958.701 81.299,957.043 81.299,955C81.299,952.957 82.957,951.299 85,951.299Z"/>
        </g>
        <g transform="matrix(0.493614,0,0,0.493614,45.5351,476.86)">
            <path d="M71,950C76.027,950 80.015,953.987 80.015,959.015" style="fill:none;stroke:black;stroke-width:2.92px;"/>
        </g>
        <g transform="matrix(-0.493614,0,0,0.493614,124.528,476.86)">
            <path d="M71,950C76.027,950 80.015,953.987 80.015,959.015" style="fill:none;stroke:black;stroke-width:2.92px;"/>
        </g>
        <g transform="matrix(0.493614,0,0,-0.493614,45.5351,1414.4)">
            <path d="M71,950C76.027,950 80.015,953.987 80.015,959.015" style="fill:none;stroke:black;stroke-width:2.92px;"/>
        </g>
        <g transform="matrix(-0.493614,0,0,-0.493614,124.528,1414.4)">
            <path d="M71,950C76.027,950 80.015,953.987 80.015,959.015" style="fill:none;stroke:black;stroke-width:2.92px;"/>
        </g>
        <g transform="matrix(0.493614,0,0,0.493614,59.7301,481.318)">
            <path d="M71,950C76.027,950 80.015,953.987 80.015,959.015" style="fill:none;stroke:black;stroke-width:2.92px;"/>
        </g>
        <g transform="matrix(0.493614,0,0,-0.493614,59.7301,1419.19)">
            <path d="M71,950C76.027,950 80.015,953.987 80.015,959.015" style="fill:none;stroke:black;stroke-width:2.92px;"/>
        </g>
        <g transform="matrix(1,0,0,1,0,-40.0852)">
            <path d="M68.196,985.5C68.756,985.309 70.161,985.002 70.786,985.002C73.853,985.002 76.343,987.492 76.343,990.559C76.343,993.625 73.853,996.115 70.786,996.115C70.161,996.115 68.72,995.568 68.16,995.377L68.196,985.5ZM69.635,986.612C70.067,986.519 70.515,986.445 70.786,986.445C73.056,986.445 74.899,988.288 74.899,990.559C74.899,992.829 73.056,994.672 70.786,994.672C70.511,994.672 70.049,994.53 69.607,994.373L69.635,986.612Z"/>
        </g>
        <g transform="matrix(-0.493614,0,0,0.493614,110.283,481.532)">
            <path d="M71,950C76.027,950 80.015,953.987 80.015,959.015" style="fill:none;stroke:black;stroke-width:2.92px;"/>
        </g>
        <g transform="matrix(-0.493614,0,0,-0.493614,110.283,1419.41)">
            <path d="M71,950C76.027,950 80.015,953.987 80.015,959.015" style="fill:none;stroke:black;stroke-width:2.92px;"/>
        </g>
        <g transform="matrix(1.11135,0,0,1.11135,0.0418242,-115.866)">
            <path d="M85,950C87.76,950 90,952.24 90,955C90,957.76 87.76,960 85,960C82.24,960 80,957.76 80,955C80,952.24 82.24,950 85,950ZM85,951.299C87.043,951.299 88.701,952.957 88.701,955C88.701,957.043 87.043,958.701 85,958.701C82.957,958.701 81.299,957.043 81.299,955C81.299,952.957 82.957,951.299 85,951.299Z"/>
        </g>
        <g transform="matrix(0.493614,0,0,0.493614,55.0099,476.86)">
            <path d="M71,950C76.027,950 80.015,953.987 80.015,959.015" style="fill:none;stroke:black;stroke-width:2.92px;"/>
        </g>
        <g transform="matrix(0.493614,0,0,-0.493614,55.0099,1414.4)">
            <path d="M71,950C76.027,950 80.015,953.987 80.015,959.015" style="fill:none;stroke:black;stroke-width:2.92px;"/>
        </g>
        <g transform="matrix(-0.493614,0,0,-0.493614,134.003,1414.4)">
            <path d="M71,950C76.027,950 80.015,953.987 80.015,959.015" style="fill:none;stroke:black;stroke-width:2.92px;"/>
        </g>
        <g transform="matrix(0.493614,0,0,0.493614,40.7805,481.447)">
            <path d="M71,950C76.027,950 80.015,953.987 80.015,959.015" style="fill:none;stroke:black;stroke-width:2.92px;"/>
        </g>
        <g transform="matrix(-0.493614,0,0,0.493614,119.773,481.447)">
            <path d="M71,950C76.027,950 80.015,953.987 80.015,959.015" style="fill:none;stroke:black;stroke-width:2.92px;"/>
        </g>
        <g transform="matrix(0.493614,0,0,0.493614,50.2553,481.447)">
            <path d="M71,950C76.027,950 80.015,953.987 80.015,959.015" style="fill:none;stroke:black;stroke-width:2.92px;"/>
        </g>
        <g transform="matrix(-0.493614,0,0,0.493614,129.248,481.447)">
            <path d="M71,950C76.027,950 80.015,953.987 80.015,959.015" style="fill:none;stroke:black;stroke-width:2.92px;"/>
        </g>
        <g transform="matrix(0.493614,0,0,0.493614,59.7301,481.447)">
            <path d="M71,950C76.027,950 80.015,953.987 80.015,959.015" style="fill:none;stroke:black;stroke-width:2.92px;"/>
        </g>
        <g transform="matrix(1.11135,0,0,1.11135,-14.1876,-101.406)">
            <path d="M85,950C87.76,950 90,952.24 90,955C90,957.76 87.76,960 85,960C82.24,960 80,957.76 80,955C80,952.24 82.24,950 85,950ZM85,951.299C87.043,951.299 88.701,952.957 88.701,955C88.701,957.043 87.043,958.701 85,958.701C82.957,958.701 81.299,957.043 81.299,955C81.299,952.957 82.957,951.299 85,951.299Z"/>
        </g>
        <g transform="matrix(0.493614,0,0,0.493614,40.7805,490.99)">
            <path d="M71,950C76.027,950 80.015,953.987 80.015,959.015" style="fill:none;stroke:black;stroke-width:2.92px;"/>
        </g>
        <g transform="matrix(-0.493614,0,0,0.493614,119.773,490.99)">
            <path d="M71,950C76.027,950 80.015,953.987 80.015,959.015" style="fill:none;stroke:black;stroke-width:2.92px;"/>
        </g>
        <g transform="matrix(0.493614,0,0,-0.493614,40.7805,1428.86)">
            <path d="M71,950C76.027,950 80.015,953.987 80.015,959.015" style="fill:none;stroke:black;stroke-width:2.92px;"/>
        </g>
        <g transform="matrix(-0.493614,0,0,-0.493614,119.773,1428.86)">
            <path d="M71,950C76.027,950 80.015,953.987 80.015,959.015" style="fill:none;stroke:black;stroke-width:2.92px;"/>
        </g>
        <g transform="matrix(1.11135,0,0,1.11135,-18.9078,-106.194)">
            <path d="M85,950C87.76,950 90,952.24 90,955C90,957.76 87.76,960 85,960C82.24,960 80,957.76 80,955C80,952.24 82.24,950 85,950ZM85,951.299C87.043,951.299 88.701,952.957 88.701,955C88.701,957.043 87.043,958.701 85,958.701C82.957,958.701 81.299,957.043 81.299,955C81.299,952.957 82.957,951.299 85,951.299Z"/>
        </g>
        <g transform="matrix(0.493614,0,0,0.493614,36.0602,486.531)">
            <path d="M71,950C76.027,950 80.015,953.987 80.015,959.015" style="fill:none;stroke:black;stroke-width:2.92px;"/>
        </g>
        <g transform="matrix(-0.493614,0,0,0.493614,115.053,486.531)">
            <path d="M71,950C76.027,950 80.015,953.987 80.015,959.015" style="fill:none;stroke:black;stroke-width:2.92px;"/>
        </g>
        <g transform="matrix(0.493614,0,0,-0.493614,36.0602,1424.08)">
            <path d="M71,950C76.027,950 80.015,953.987 80.015,959.015" style="fill:none;stroke:black;stroke-width:2.92px;"/>
        </g>
        <g transform="matrix(-0.493614,0,0,-0.493614,115.053,1424.08)">
            <path d="M71,950C76.027,950 80.015,953.987 80.015,959.015" style="fill:none;stroke:black;stroke-width:2.92px;"/>
        </g>
        <g transform="matrix(1.11135,0,0,1.11135,-4.71279,-101.406)">
            <path d="M85,950C87.76,950 90,952.24 90,955C90,957.76 87.76,960 85,960C82.24,960 80,957.76 80,955C80,952.24 82.24,950 85,950ZM85,951.299C87.043,951.299 88.701,952.957 88.701,955C88.701,957.043 87.043,958.701 85,958.701C82.957,958.701 81.299,957.043 81.299,955C81.299,952.957 82.957,951.299 85,951.299Z"/>
        </g>
        <g transform="matrix(0.493614,0,0,0.493614,50.2553,490.99)">
            <path d="M71,950C76.027,950 80.015,953.987 80.015,959.015" style="fill:none;stroke:black;stroke-width:2.92px;"/>
        </g>
        <g transform="matrix(-0.493614,0,0,0.493614,129.248,490.99)">
            <path d="M71,950C76.027,950 80.015,953.987 80.015,959.015" style="fill:none;stroke:black;stroke-width:2.92px;"/>
        </g>
        <g transform="matrix(0.493614,0,0,-0.493614,50.2553,1428.86)">
            <path d="M71,950C76.027,950 80.015,953.987 80.015,959.015" style="fill:none;stroke:black;stroke-width:2.92px;"/>
        </g>
        <g transform="matrix(-0.493614,0,0,-0.493614,129.248,1428.86)">
            <path d="M71,950C76.027,950 80.015,953.987 80.015,959.015" style="fill:none;stroke:black;stroke-width:2.92px;"/>
        </g>
        <g transform="matrix(1.11135,0,0,1.11135,-9.433,-106.194)">
            <path d="M85,950C87.76,950 90,952.24 90,955C90,957.76 87.76,960 85,960C82.24,960 80,957.76 80,955C80,952.24 82.24,950 85,950ZM85,951.299C87.043,951.299 88.701,952.957 88.701,955C88.701,957.043 87.043,958.701 85,958.701C82.957,958.701 81.299,957.043 81.299,955C81.299,952.957 82.957,951.299 85,951.299Z"/>
        </g>
        <g transform="matrix(0.493614,0,0,0.493614,45.5351,486.531)">
            <path d="M71,950C76.027,950 80.015,953.987 80.015,959.015" style="fill:none;stroke:black;stroke-width:2.92px;"/>
        </g>
        <g transform="matrix(-0.493614,0,0,0.493614,124.528,486.531)">
            <path d="M71,950C76.027,950 80.015,953.987 80.015,959.015" style="fill:none;stroke:black;stroke-width:2.92px;"/>
        </g>
        <g transform="matrix(0.493614,0,0,-0.493614,45.5351,1424.08)">
            <path d="M71,950C76.027,950 80.015,953.987 80.015,959.015" style="fill:none;stroke:black;stroke-width:2.92px;"/>
        </g>
        <g transform="matrix(-0.493614,0,0,-0.493614,124.528,1424.08)">
            <path d="M71,950C76.027,950 80.015,953.987 80.015,959.015" style="fill:none;stroke:black;stroke-width:2.92px;"/>
        </g>
        <g transform="matrix(0.493614,0,0,0.493614,59.7301,490.99)">
            <path d="M71,950C76.027,950 80.015,953.987 80.015,959.015" style="fill:none;stroke:black;stroke-width:2.92px;"/>
        </g>
        <g transform="matrix(0.493614,0,0,-0.493614,59.7301,1428.86)">
            <path d="M71,950C76.027,950 80.015,953.987 80.015,959.015" style="fill:none;stroke:black;stroke-width:2.92px;"/>
        </g>
        <g transform="matrix(-0.493614,0,0,0.493614,110.283,491.204)">
            <path d="M71,950C76.027,950 80.015,953.987 80.015,959.015" style="fill:none;stroke:black;stroke-width:2.92px;"/>
        </g>
        <g transform="matrix(-0.493614,0,0,-0.493614,110.283,1429.08)">
            <path d="M71,950C76.027,950 80.015,953.987 80.015,959.015" style="fill:none;stroke:black;stroke-width:2.92px;"/>
        </g>
        <g transform="matrix(1.11135,0,0,1.11135,0.0418242,-106.194)">
            <path d="M85,950C87.76,950 90,952.24 90,955C90,957.76 87.76,960 85,960C82.24,960 80,957.76 80,955C80,952.24 82.24,950 85,950ZM85,951.299C87.043,951.299 88.701,952.957 88.701,955C88.701,957.043 87.043,958.701 85,958.701C82.957,958.701 81.299,957.043 81.299,955C81.299,952.957 82.957,951.299 85,951.299Z"/>
        </g>
        <g transform="matrix(0.493614,0,0,0.493614,55.0099,486.531)">
            <path d="M71,950C76.027,950 80.015,953.987 80.015,959.015" style="fill:none;stroke:black;stroke-width:2.92px;"/>
        </g>
        <g transform="matrix(0.493614,0,0,-0.493614,55.0099,1424.08)">
            <path d="M71,950C76.027,950 80.015,953.987 80.015,959.015" style="fill:none;stroke:black;stroke-width:2.92px;"/>
        </g>
        <g transform="matrix(0.493614,0,0,0.493614,40.7805,491.096)">
            <path d="M71,950C76.027,950 80.015,953.987 80.015,959.015" style="fill:none;stroke:black;stroke-width:2.92px;"/>
        </g>
        <g transform="matrix(-0.493614,0,0,0.493614,119.773,491.096)">
            <path d="M71,950C76.027,950 80.015,953.987 80.015,959.015" style="fill:none;stroke:black;stroke-width:2.92px;"/>
        </g>
        <g transform="matrix(0.493614,0,0,0.493614,50.2553,491.096)">
            <path d="M71,950C76.027,950 80.015,953.987 80.015,959.015" style="fill:none;stroke:black;stroke-width:2.92px;"/>
        </g>
        <g transform="matrix(-0.493614,0,0,0.493614,129.248,491.096)">
            <path d="M71,950C76.027,950 80.015,953.987 80.015,959.015" style="fill:none;stroke:black;stroke-width:2.92px;"/>
        </g>
        <g transform="matrix(0.493614,0,0,0.493614,59.7301,491.096)">
            <path d="M71,950C76.027,950 80.015,953.987 80.015,959.015" style="fill:none;stroke:black;stroke-width:2.92px;"/>
        </g>
        <g transform="matrix(0.493614,0,0,-0.493614,40.7805,1438.51)">
            <path d="M71,950C76.027,950 80.015,953.987 80.015,959.015" style="fill:none;stroke:black;stroke-width:2.92px;"/>
        </g>
        <g transform="matrix(-0.493614,0,0,-0.493614,119.773,1438.51)">
            <path d="M71,950C76.027,950 80.015,953.987 80.015,959.015" style="fill:none;stroke:black;stroke-width:2.92px;"/>
        </g>
        <g transform="matrix(1.11135,0,0,1.11135,-18.9078,-96.5454)">
            <path d="M85,950C87.76,950 90,952.24 90,955C90,957.76 87.76,960 85,960C82.24,960 80,957.76 80,955C80,952.24 82.24,950 85,950ZM85,951.299C87.043,951.299 88.701,952.957 88.701,955C88.701,957.043 87.043,958.701 85,958.701C82.957,958.701 81.299,957.043 81.299,955C81.299,952.957 82.957,951.299 85,951.299Z"/>
        </g>
        <g transform="matrix(0.493614,0,0,0.493614,36.0602,496.18)">
            <path d="M71,950C76.027,950 80.015,953.987 80.015,959.015" style="fill:none;stroke:black;stroke-width:2.92px;"/>
        </g>
        <g transform="matrix(0.493614,0,0,-0.493614,36.0602,1433.72)">
            <path d="M71,950C76.027,950 80.015,953.987 80.015,959.015" style="fill:none;stroke:black;stroke-width:2.92px;"/>
        </g>
        <g transform="matrix(-0.493614,0,0,-0.493614,115.053,1433.72)">
            <path d="M71,950C76.027,950 80.015,953.987 80.015,959.015" style="fill:none;stroke:black;stroke-width:2.92px;"/>
        </g>
        <g transform="matrix(0.493614,0,0,-0.493614,50.2553,1438.51)">
            <path d="M71,950C76.027,950 80.015,953.987 80.015,959.015" style="fill:none;stroke:black;stroke-width:2.92px;"/>
        </g>
        <g transform="matrix(-0.493614,0,0,-0.493614,129.248,1438.51)">
            <path d="M71,950C76.027,950 80.015,953.987 80.015,959.015" style="fill:none;stroke:black;stroke-width:2.92px;"/>
        </g>
        <g transform="matrix(1.11135,0,0,1.11135,-9.433,-96.5454)">
            <path d="M85,950C87.76,950 90,952.24 90,955C90,957.76 87.76,960 85,960C82.24,960 80,957.76 80,955C80,952.24 82.24,950 85,950ZM85,951.299C87.043,951.299 88.701,952.957 88.701,955C88.701,957.043 87.043,958.701 85,958.701C82.957,958.701 81.299,957.043 81.299,955C81.299,952.957 82.957,951.299 85,951.299Z"/>
        </g>
        <g transform="matrix(0.493614,0,0,-0.493614,45.5351,1433.72)">
            <path d="M71,950C76.027,950 80.015,953.987 80.015,959.015" style="fill:none;stroke:black;stroke-width:2.92px;"/>
        </g>
        <g transform="matrix(-0.493614,0,0,-0.493614,124.528,1433.72)">
            <path d="M71,950C76.027,950 80.015,953.987 80.015,959.015" style="fill:none;stroke:black;stroke-width:2.92px;"/>
        </g>
        <g transform="matrix(0.493614,0,0,-0.493614,59.7301,1438.51)">
            <path d="M71,950C76.027,950 80.015,953.987 80.015,959.015" style="fill:none;stroke:black;stroke-width:2.92px;"/>
        </g>
        <g transform="matrix(-0.493614,0,0,-0.493614,110.283,1438.73)">
            <path d="M71,950C76.027,950 80.015,953.987 80.015,959.015" style="fill:none;stroke:black;stroke-width:2.92px;"/>
        </g>
        <g transform="matrix(1.11135,0,0,1.11135,0.0418242,-96.5454)">
            <path d="M85,950C87.76,950 90,952.24 90,955C90,957.76 87.76,960 85,960C82.24,960 80,957.76 80,955C80,952.24 82.24,950 85,950ZM85,951.299C87.043,951.299 88.701,952.957 88.701,955C88.701,957.043 87.043,958.701 85,958.701C82.957,958.701 81.299,957.043 81.299,955C81.299,952.957 82.957,951.299 85,951.299Z"/>
        </g>
        <g transform="matrix(-0.493614,0,0,0.493614,134.003,496.18)">
            <path d="M71,950C76.027,950 80.015,953.987 80.015,959.015" style="fill:none;stroke:black;stroke-width:2.92px;"/>
        </g>
        <g transform="matrix(0.493614,0,0,-0.493614,55.0099,1433.72)">
            <path d="M71,950C76.027,950 80.015,953.987 80.015,959.015" style="fill:none;stroke:black;stroke-width:2.92px;"/>
        </g>
        <g transform="matrix(1,0,0,1,0,-40.0852)">
            <path d="M68.16,995.228C68.72,995.038 70.161,994.673 70.786,994.673C73.853,994.673 76.343,997.163 76.343,1000.23C76.343,1003.3 73.853,1005.79 70.786,1005.79C70.161,1005.79 68.72,1005.44 68.16,1005.25L68.16,995.228ZM69.603,996.317C70.047,996.208 70.512,996.117 70.786,996.117C73.056,996.117 74.899,997.96 74.899,1000.23C74.899,1002.5 73.056,1004.34 70.786,1004.34C70.512,1004.34 70.047,1004.26 69.603,1004.15L69.603,996.317Z"/>
        </g>
        <g transform="matrix(1,0,0,1,0,-40.0852)">
            <path d="M101.75,1010.11C101.75,1011.02 101.016,1011.75 100.112,1011.75C97.857,1011.75 94.075,1011.75 94.075,1011.75C93.814,1011.11 93.67,1010.4 93.67,1009.67C93.67,1006.6 96.16,1004.11 99.227,1004.11C100.135,1004.11 100.993,1004.33 101.75,1004.71L101.75,1010.11ZM100.306,1010.11C100.306,1010.22 100.219,1010.31 100.112,1010.31C100.112,1010.31 95.163,1010.31 95.163,1010.31C95.13,1010.1 95.113,1009.88 95.113,1009.67C95.113,1007.39 96.956,1005.55 99.227,1005.55C99.6,1005.55 99.962,1005.6 100.306,1005.7L100.306,1010.11Z"/>
        </g>
        <g transform="matrix(1,0,0,1,0,-40.0852)">
            <path d="M101.875,1004.9C101.088,1005.33 100.185,1005.57 99.227,1005.57C96.16,1005.57 93.67,1003.08 93.67,1000.02C93.67,996.949 96.16,994.46 99.227,994.46C100.185,994.46 101.088,994.703 101.875,995.131L101.875,1004.9ZM100.431,1003.95C100.05,1004.07 99.646,1004.13 99.227,1004.13C96.956,1004.13 95.113,1002.29 95.113,1000.02C95.113,997.746 96.956,995.903 99.227,995.903C99.646,995.903 100.05,995.966 100.431,996.082C100.431,996.083 100.431,1003.95 100.431,1003.95L100.431,1003.95Z"/>
        </g>
        <g transform="matrix(1,0,0,1,0,-40.0852)">
            <path d="M101.75,995.296C100.993,995.683 100.135,995.901 99.227,995.901C96.16,995.901 93.67,993.412 93.67,990.345C93.67,987.278 96.16,984.788 99.227,984.788C100.135,984.788 100.993,985.006 101.75,985.393L101.75,995.296ZM100.306,994.315C99.962,994.408 99.6,994.458 99.227,994.458C96.956,994.458 95.113,992.615 95.113,990.345C95.113,988.075 96.956,986.232 99.227,986.232C99.6,986.232 99.962,986.281 100.306,986.375L100.306,994.315Z"/>
        </g>
        <g transform="matrix(1,0,0,1,0,-40.0852)">
            <path d="M84.6,1011.75C84.339,1011.11 84.195,1010.4 84.195,1009.67C84.195,1006.6 86.685,1004.11 89.752,1004.11C92.819,1004.11 95.309,1006.6 95.309,1009.67C95.309,1010.4 95.165,1011.11 94.903,1011.75L84.6,1011.75ZM85.688,1010.31C85.656,1010.1 85.639,1009.88 85.639,1009.67C85.639,1007.39 87.482,1005.55 89.752,1005.55C92.022,1005.55 93.865,1007.39 93.865,1009.67C93.865,1009.88 93.848,1010.1 93.815,1010.31L85.688,1010.31Z"/>
        </g>
        <g transform="matrix(1,0,0,1,0,-40.0852)">
            <path d="M75.125,1011.75C74.864,1011.11 74.72,1010.4 74.72,1009.67C74.72,1006.6 77.21,1004.11 80.277,1004.11C83.344,1004.11 85.834,1006.6 85.834,1009.67C85.834,1010.4 85.69,1011.11 85.429,1011.75L75.125,1011.75ZM76.213,1010.31C76.181,1010.1 76.164,1009.88 76.164,1009.67C76.164,1007.39 78.007,1005.55 80.277,1005.55C82.547,1005.55 84.39,1007.39 84.39,1009.67C84.39,1009.88 84.373,1010.1 84.34,1010.31L76.213,1010.31Z"/>
        </g>
        <g transform="matrix(1,0,0,1,0,-40.0852)">
            <path d="M70.551,1012.07C69.694,1012.07 69,1011.38 69,1010.52C69,1008.34 69,1004.62 69,1004.62C69.561,1004.43 70.161,1004.32 70.786,1004.32C73.853,1004.32 76.343,1006.81 76.343,1009.88C76.343,1010.44 76.019,1011.57 75.862,1012.09C75.862,1012.09 72.575,1012.08 70.551,1012.07ZM70.554,1010.63C70.554,1010.63 70.554,1010.63 70.554,1010.63C70.493,1010.63 70.444,1010.58 70.444,1010.52C70.444,1010.52 70.444,1005.78 70.444,1005.78C70.557,1005.77 70.671,1005.77 70.786,1005.77C73.056,1005.77 74.899,1007.61 74.899,1009.88C74.899,1010.07 74.846,1010.35 74.776,1010.64C74.776,1010.64 70.554,1010.63 70.554,1010.63Z"/>
        </g>
    </g>
</svg>
