<?xml version="1.0" encoding="UTF-8" standalone="no"?>
<!DOCTYPE svg PUBLIC "-//W3C//DTD SVG 1.1//EN" "http://www.w3.org/Graphics/SVG/1.1/DTD/svg11.dtd">
<svg width="100%" height="100%" viewBox="0 0 34 34" version="1.1" xmlns="http://www.w3.org/2000/svg" xmlns:xlink="http://www.w3.org/1999/xlink" xml:space="preserve" xmlns:serif="http://www.serif.com/" style="fill-rule:evenodd;clip-rule:evenodd;stroke-linecap:round;stroke-linejoin:round;stroke-miterlimit:1.5;">
    <g transform="matrix(1,0,0,1,-68.1204,-858.123)">
        <g transform="matrix(-6.12323e-17,-1,-1,6.12323e-17,100.03,890)">
            <path d="M30,-1.877C31.036,-1.877 31.877,-1.036 31.877,-0L31.877,30C31.877,31.036 31.036,31.877 30,31.877L0,31.877C-1.036,31.877 -1.877,31.036 -1.877,30L-1.877,0C-1.877,-1.036 -1.036,-1.877 0,-1.877L30,-1.877ZM30,0L0,0L0,30L30,30L30,0Z"/>
        </g>
        <g transform="matrix(1,0,0,1,40,830)">
            <path d="M30,32L60.03,48" style="fill:none;stroke:black;stroke-width:1.88px;"/>
        </g>
        <g transform="matrix(1.0323,0,0,1.0323,38.5309,835.7)">
            <path d="M30,32L60.03,48" style="fill:none;stroke:black;stroke-width:1.82px;"/>
        </g>
        <g transform="matrix(1.06713,5.55112e-17,-5.55112e-17,1.06713,35.97,819.778)">
            <path d="M39.386,37L60.03,48" style="fill:none;stroke:black;stroke-width:1.76px;"/>
        </g>
        <g transform="matrix(1.24704,5.84364e-17,-5.84364e-17,1.24704,25.6401,804.392)">
            <path d="M52.5,44L60.03,48" style="fill:none;stroke:black;stroke-width:1.5px;"/>
        </g>
        <g transform="matrix(1.06655,-5.71638e-17,5.71638e-17,1.06655,37.5035,841.604)">
            <path d="M30,32L56.253,46" style="fill:none;stroke:black;stroke-width:1.76px;"/>
        </g>
        <g transform="matrix(1.11538,0,0,1.11538,36.5385,847.308)">
            <path d="M30,32L43,38.926" style="fill:none;stroke:black;stroke-width:1.68px;"/>
        </g>
        <g transform="matrix(-1.04105,5.64134e-17,5.64134e-17,1.04105,131.994,828.296)">
            <path d="M30,32L60.03,48" style="fill:none;stroke:black;stroke-width:1.8px;"/>
        </g>
        <g transform="matrix(-1.03134,0,0,1.03134,130.97,835.997)">
            <path d="M30,32L60.03,48" style="fill:none;stroke:black;stroke-width:1.82px;"/>
        </g>
        <g transform="matrix(-1.04545,0,0,1.04545,132.759,820.818)">
            <path d="M39.386,37L60.03,48" style="fill:none;stroke:black;stroke-width:1.8px;"/>
        </g>
        <g transform="matrix(-1.32023,5.03186e-18,5.03186e-18,1.32023,148.312,801.129)">
            <path d="M52.5,44L60.03,48" style="fill:none;stroke:black;stroke-width:1.42px;"/>
        </g>
        <g transform="matrix(-1.06655,-5.65051e-17,-5.65051e-17,1.06655,132.496,841.62)">
            <path d="M30,32L56.253,46" style="fill:none;stroke:black;stroke-width:1.76px;"/>
        </g>
        <g transform="matrix(-1.11769,-5.55112e-17,-5.55112e-17,1.11769,133.561,847.234)">
            <path d="M30,32L43,38.926" style="fill:none;stroke:black;stroke-width:1.68px;"/>
        </g>
    </g>
</svg>
