<?xml version="1.0" encoding="UTF-8" standalone="no"?>
<!DOCTYPE svg PUBLIC "-//W3C//DTD SVG 1.1//EN" "http://www.w3.org/Graphics/SVG/1.1/DTD/svg11.dtd">
<svg width="100%" height="100%" viewBox="0 0 34 34" version="1.1" xmlns="http://www.w3.org/2000/svg" xmlns:xlink="http://www.w3.org/1999/xlink" xml:space="preserve" xmlns:serif="http://www.serif.com/" style="fill-rule:evenodd;clip-rule:evenodd;stroke-linecap:round;stroke-linejoin:round;stroke-miterlimit:1.5;">
    <g transform="matrix(1,0,0,1,-68.1234,-818.123)">
        <g transform="matrix(1,0,0,1,70,820)">
            <path d="M31.877,0C31.877,-1.036 31.036,-1.877 30,-1.877L-0,-1.877C-1.036,-1.877 -1.877,-1.036 -1.877,-0L-1.877,30C-1.877,31.036 -1.036,31.877 -0,31.877L30,31.877C31.036,31.877 31.877,31.036 31.877,30L31.877,0ZM30,0L0,0L0,30L30,30L30,0Z"/>
        </g>
        <g transform="matrix(1.09091,0,0,1.09091,34.5455,785.091)">
            <circle cx="46.25" cy="45.75" r="13.75" style="fill:none;stroke:black;stroke-width:1.72px;"/>
        </g>
        <g transform="matrix(0.727273,0,0,0.727273,51.3636,801.727)">
            <circle cx="46.25" cy="45.75" r="13.75" style="fill:none;stroke:black;stroke-width:2.58px;"/>
        </g>
        <g transform="matrix(0.363636,0,0,0.363636,68.1818,818.364)">
            <circle cx="46.25" cy="45.75" r="13.75" style="fill:none;stroke:black;stroke-width:5.16px;"/>
        </g>
        <g transform="matrix(1.48998,1.48998,-2,2,1403.35,-736.648)">
            <path d="M85,715L85,730" style="fill:none;stroke:black;stroke-width:0.84px;"/>
        </g>
        <g transform="matrix(1.48998,-1.48998,2,2,-1486.65,-483.352)">
            <path d="M85,715L85,730" style="fill:none;stroke:black;stroke-width:0.84px;"/>
        </g>
        <g transform="matrix(1.33227e-15,1.96667,-1.96667,1.33227e-15,1505.92,667.833)">
            <path d="M85,715L85,730" style="fill:none;stroke:black;stroke-width:1.06px;"/>
        </g>
        <g transform="matrix(1.96667,-6.21725e-15,6.21725e-15,1.96667,-82.1667,-585.917)">
            <path d="M85,715L85,730" style="fill:none;stroke:black;stroke-width:1.06px;"/>
        </g>
    </g>
</svg>
