<?xml version="1.0" encoding="UTF-8" standalone="no"?>
<!DOCTYPE svg PUBLIC "-//W3C//DTD SVG 1.1//EN" "http://www.w3.org/Graphics/SVG/1.1/DTD/svg11.dtd">
<svg width="100%" height="100%" viewBox="0 0 34 34" version="1.1" xmlns="http://www.w3.org/2000/svg" xmlns:xlink="http://www.w3.org/1999/xlink" xml:space="preserve" xmlns:serif="http://www.serif.com/" style="fill-rule:evenodd;clip-rule:evenodd;stroke-linecap:round;stroke-linejoin:round;stroke-miterlimit:1.5;">
    <g transform="matrix(1,0,0,1,-68.1533,-978.288)">
        <g transform="matrix(-6.12323e-17,-1,-1,6.12323e-17,100.03,1010.16)">
            <path d="M30,-1.877C31.036,-1.877 31.877,-1.036 31.877,0L31.877,30C31.877,31.036 31.036,31.877 30,31.877L0,31.877C-1.036,31.877 -1.877,31.036 -1.877,30L-1.877,0C-1.877,-1.036 -1.036,-1.877 0,-1.877L30,-1.877ZM30,0L0,0L0,30L30,30L30,0Z"/>
        </g>
        <g transform="matrix(1.49626,0,0,1.49626,-42.1898,-494.357)">
            <path d="M80.4,993.593C82.028,990.082 88.145,990.098 89.659,993.714" style="fill:none;stroke:black;stroke-width:0.96px;"/>
        </g>
        <g transform="matrix(0.897758,0,0,0.897758,8.68316,101.598)">
            <path d="M80.648,993.137C82.458,990.273 87.554,990.253 89.358,993.132" style="fill:none;stroke:black;stroke-width:1.61px;"/>
        </g>
        <g transform="matrix(0.250822,0,0,0.21331,63.6727,782.966)">
            <path d="M80,995.5C80,989.501 90,989.448 90,995.5" style="fill:none;stroke:black;stroke-width:6.2px;"/>
        </g>
        <g transform="matrix(1.49626,0,0,1.49626,-34.6637,-490.228)">
            <path d="M80,995.5C80,989.501 90,989.448 90,995.5" style="fill:none;stroke:black;stroke-width:0.96px;"/>
        </g>
        <g transform="matrix(0.897758,0,0,0.897758,16.2093,105.727)">
            <path d="M80,995.5C80,989.501 90,989.448 90,995.5" style="fill:none;stroke:black;stroke-width:1.61px;"/>
        </g>
        <g transform="matrix(1.49626,0,0,1.49626,-49.6711,-490.228)">
            <path d="M80,995.5C80,989.501 90,989.448 90,995.5" style="fill:none;stroke:black;stroke-width:0.96px;"/>
        </g>
        <g transform="matrix(0.897758,0,0,0.897758,1.20185,105.727)">
            <path d="M80,995.5C80,989.501 90,989.448 90,995.5" style="fill:none;stroke:black;stroke-width:1.61px;"/>
        </g>
        <g transform="matrix(0.43076,0,0,0.553202,40.8967,450.287)">
            <path d="M80,995.5C80,989.501 90,989.448 90,995.5" style="fill:none;stroke:black;stroke-width:2.91px;"/>
        </g>
        <g transform="matrix(0.43076,0,0,0.553202,55.8854,450.287)">
            <path d="M80,995.5C80,989.501 90,989.448 90,995.5" style="fill:none;stroke:black;stroke-width:2.91px;"/>
        </g>
        <g transform="matrix(1.49626,0,0,1.49626,-42.1898,-505.803)">
            <path d="M88.892,992.525C89.199,992.856 89.456,993.24 89.644,993.677M80.335,993.74C80.528,993.277 80.797,992.872 81.123,992.525" style="fill:none;stroke:black;stroke-width:0.96px;"/>
        </g>
        <g transform="matrix(0.897758,0,0,0.897758,8.68316,90.1531)">
            <path d="M80.615,993.19C82.38,990.299 87.454,990.237 89.309,993.056" style="fill:none;stroke:black;stroke-width:1.61px;"/>
        </g>
        <g transform="matrix(0.301486,0,0,0.21331,59.3663,771.521)">
            <path d="M80,995.5C80,989.501 90,989.448 90,995.5" style="fill:none;stroke:black;stroke-width:5.53px;"/>
        </g>
        <g transform="matrix(1.49626,0,0,1.49626,-34.6637,-501.268)">
            <path d="M80,995.5C80,989.501 90,989.448 90,995.5" style="fill:none;stroke:black;stroke-width:0.96px;"/>
        </g>
        <g transform="matrix(0.897758,0,0,0.897758,16.2093,94.6879)">
            <path d="M80,995.5C80,989.501 90,989.448 90,995.5" style="fill:none;stroke:black;stroke-width:1.61px;"/>
        </g>
        <g transform="matrix(0.43076,0,0,0.553202,55.8854,439.248)">
            <path d="M80,995.5C80,989.501 90,989.448 90,995.5" style="fill:none;stroke:black;stroke-width:2.91px;"/>
        </g>
        <g transform="matrix(1.49626,0,0,1.49626,-49.701,-501.268)">
            <path d="M80,995.5C80,989.501 90,989.448 90,995.5" style="fill:none;stroke:black;stroke-width:0.96px;"/>
        </g>
        <g transform="matrix(0.897758,0,0,0.897758,1.17191,94.6879)">
            <path d="M80,995.5C80,989.501 90,989.448 90,995.5" style="fill:none;stroke:black;stroke-width:1.61px;"/>
        </g>
        <g transform="matrix(0.43076,0,0,0.553202,40.8481,439.248)">
            <path d="M80,995.5C80,989.501 90,989.448 90,995.5" style="fill:none;stroke:black;stroke-width:2.91px;"/>
        </g>
        <g transform="matrix(1.49626,0,0,1.49626,-42.1898,-483.467)">
            <path d="M80.335,993.74C81.851,990.099 88.067,990.049 89.638,993.664" style="fill:none;stroke:black;stroke-width:0.96px;"/>
        </g>
        <g transform="matrix(0.897758,0,0,0.897758,8.68316,112.489)">
            <path d="M80.71,993.042C82.572,990.273 87.575,990.286 89.358,993.132" style="fill:none;stroke:black;stroke-width:1.61px;"/>
        </g>
        <g transform="matrix(0.250822,0,0,0.21331,63.6727,793.857)">
            <path d="M80,995.5C80,989.501 90,989.448 90,995.5" style="fill:none;stroke:black;stroke-width:6.2px;"/>
        </g>
        <g transform="matrix(1.49626,0,0,1.49626,-27.1637,-483.467)">
            <path d="M80.335,993.74C81.183,991.703 83.502,990.79 85.656,991.014" style="fill:none;stroke:black;stroke-width:0.96px;"/>
        </g>
        <g transform="matrix(0.897758,0,0,0.897758,23.7093,112.489)">
            <path d="M80.646,993.141C81.741,991.403 84.046,990.71 86.093,991.075" style="fill:none;stroke:black;stroke-width:1.61px;"/>
        </g>
        <g transform="matrix(0.21331,0,0,0.21331,81.8874,793.857)">
            <path d="M80,995.5C80,989.501 90,989.448 90,995.5" style="fill:none;stroke:black;stroke-width:6.77px;"/>
        </g>
        <g transform="matrix(1.49626,0,0,1.49626,-57.1637,-483.467)">
            <path d="M84.411,991.01C86.55,990.801 88.835,991.706 89.67,993.74" style="fill:none;stroke:black;stroke-width:0.96px;"/>
        </g>
        <g transform="matrix(0.897758,0,0,0.897758,-6.29072,112.489)">
            <path d="M83.865,991.089C85.889,990.703 88.176,991.35 89.3,993.042" style="fill:none;stroke:black;stroke-width:1.61px;"/>
        </g>
        <g transform="matrix(0.21331,0,0,0.21331,51.8874,793.857)">
            <path d="M80,995.5C80,989.501 90,989.448 90,995.5" style="fill:none;stroke:black;stroke-width:6.77px;"/>
        </g>
        <g transform="matrix(1.49626,0,0,1.49626,-27.1637,-494.174)">
            <path d="M80.459,993.47C81.393,991.623 83.6,990.8 85.656,991.014" style="fill:none;stroke:black;stroke-width:0.96px;"/>
        </g>
        <g transform="matrix(0.897758,0,0,0.897758,23.7093,101.782)">
            <path d="M80.786,992.932C81.93,991.348 84.13,990.725 86.093,991.075" style="fill:none;stroke:black;stroke-width:1.61px;"/>
        </g>
        <g transform="matrix(0.21331,0,0,0.21331,81.8874,783.15)">
            <path d="M80,995.5C80,989.501 90,989.448 90,995.5" style="fill:none;stroke:black;stroke-width:6.77px;"/>
        </g>
        <g transform="matrix(1.49626,0,0,1.49626,-57.1637,-494.174)">
            <path d="M84.478,991.004C86.501,990.828 88.638,991.647 89.548,993.47" style="fill:none;stroke:black;stroke-width:0.96px;"/>
        </g>
        <g transform="matrix(0.897758,0,0,0.897758,-6.29072,101.782)">
            <path d="M84.131,991.044C86.041,990.768 88.127,991.394 89.224,992.932" style="fill:none;stroke:black;stroke-width:1.61px;"/>
        </g>
        <g transform="matrix(0.21331,0,0,0.21331,51.8874,783.15)">
            <path d="M80,995.5C80,989.501 90,989.448 90,995.5" style="fill:none;stroke:black;stroke-width:6.77px;"/>
        </g>
        <g transform="matrix(1.49626,0,0,1.49626,-27.1637,-505.674)">
            <path d="M80.372,993.654C80.579,993.188 80.864,992.783 81.206,992.438" style="fill:none;stroke:black;stroke-width:0.96px;"/>
        </g>
        <g transform="matrix(0.897758,0,0,0.897758,23.7093,90.2822)">
            <path d="M80.707,993.046C81.826,991.378 84.083,990.717 86.093,991.075" style="fill:none;stroke:black;stroke-width:1.61px;"/>
        </g>
        <g transform="matrix(0.237693,0,0,0.21331,79.6929,771.65)">
            <path d="M80,995.5C80,989.501 90,989.448 90,995.5" style="fill:none;stroke:black;stroke-width:6.39px;"/>
        </g>
        <g transform="matrix(1.49626,0,0,1.49626,-57.1637,-505.674)">
            <path d="M88.809,992.438C89.133,992.767 89.404,993.151 89.606,993.591" style="fill:none;stroke:black;stroke-width:0.96px;"/>
        </g>
        <g transform="matrix(0.897758,0,0,0.897758,-6.29072,90.2822)">
            <path d="M84.422,991.009C86.297,990.829 88.282,991.505 89.303,993.046" style="fill:none;stroke:black;stroke-width:1.61px;"/>
        </g>
        <g transform="matrix(0.233941,0,0,0.21331,50.2368,771.65)">
            <path d="M80,995.5C80,989.501 90,989.448 90,995.5" style="fill:none;stroke:black;stroke-width:6.45px;"/>
        </g>
        <g transform="matrix(1.49626,0,0,1.49626,-34.6637,-479.337)">
            <path d="M80,995.5C80,989.501 90,989.448 90,995.5" style="fill:none;stroke:black;stroke-width:0.96px;"/>
        </g>
        <g transform="matrix(0.897758,0,0,0.897758,16.2093,116.618)">
            <path d="M80,995.5C80,989.501 90,989.448 90,995.5" style="fill:none;stroke:black;stroke-width:1.61px;"/>
        </g>
        <g transform="matrix(0.21331,0,0,0.21331,74.3874,797.986)">
            <path d="M80,995.5C80,989.501 90,989.448 90,995.5" style="fill:none;stroke:black;stroke-width:6.77px;"/>
        </g>
        <g transform="matrix(1.49626,0,0,1.49626,-49.6711,-479.337)">
            <path d="M80,995.5C80,989.501 90,989.448 90,995.5" style="fill:none;stroke:black;stroke-width:0.96px;"/>
        </g>
        <g transform="matrix(0.897758,0,0,0.897758,1.20185,116.618)">
            <path d="M80,995.5C80,989.501 90,989.448 90,995.5" style="fill:none;stroke:black;stroke-width:1.61px;"/>
        </g>
        <g transform="matrix(0.21331,0,0,0.21331,59.3799,797.986)">
            <path d="M80,995.5C80,989.501 90,989.448 90,995.5" style="fill:none;stroke:black;stroke-width:6.77px;"/>
        </g>
    </g>
</svg>
