<?xml version="1.0" encoding="UTF-8" standalone="no"?>
<!DOCTYPE svg PUBLIC "-//W3C//DTD SVG 1.1//EN" "http://www.w3.org/Graphics/SVG/1.1/DTD/svg11.dtd">
<svg width="100%" height="100%" viewBox="0 0 34 34" version="1.1" xmlns="http://www.w3.org/2000/svg" xmlns:xlink="http://www.w3.org/1999/xlink" xml:space="preserve" xmlns:serif="http://www.serif.com/" style="fill-rule:evenodd;clip-rule:evenodd;stroke-linecap:round;stroke-linejoin:round;stroke-miterlimit:1.5;">
    <g transform="matrix(1,0,0,1,-67.6084,-662.608)">
        <g transform="matrix(6.12323e-17,1,-1,6.12323e-17,129.47,653.47)">
            <path d="M26,30C17.721,30 11,36.721 11,45C11,53.279 17.721,60 26,60C21.033,58 17,51.967 17,45C17,38.033 21.033,32 26,30ZM18.172,34.469C16.296,37.412 15.123,41.066 15.123,45C15.123,48.934 16.296,52.588 18.172,55.531C14.96,53.14 12.877,49.312 12.877,45C12.877,40.689 14.96,36.86 18.174,34.467L18.172,34.469Z"/>
        </g>
        <g transform="matrix(6.12323e-17,1,-1,6.12323e-17,129.47,474.47)">
            <path d="M205,30C213.279,30 220,36.721 220,45C220,53.279 213.279,60 205,60C196.721,60 190,53.279 190,45C190,36.721 196.721,30 205,30ZM205,32.083C212.129,32.083 217.917,37.871 217.917,45C217.917,52.129 212.129,57.917 205,57.917C197.871,57.917 192.083,52.129 192.083,45C192.083,37.871 197.871,32.083 205,32.083L205,32.083Z"/>
        </g>
        <g transform="matrix(1,0,0,1,58.4701,634.485)">
            <path d="M26,30C17.721,30 11,36.721 11,45C11,53.279 17.721,60 26,60C21.033,58 17,51.967 17,45C17,38.033 21.033,32 26,30ZM18.172,34.469C16.296,37.412 15.123,41.066 15.123,45C15.123,48.934 16.296,52.588 18.172,55.531C14.96,53.14 12.877,49.312 12.877,45C12.877,40.689 14.96,36.86 18.174,34.467L18.172,34.469Z"/>
        </g>
        <g transform="matrix(0.690014,0,0,0.971544,-58.9828,635.692)">
            <path d="M205,31.195C198.243,41.325 198.23,49.116 205,58.986" style="fill:none;stroke:black;stroke-width:2.47px;"/>
        </g>
        <g transform="matrix(-1,0,0,1,110.5,634.485)">
            <path d="M26,30C17.721,30 11,36.721 11,45C11,53.279 17.721,60 26,60C21.033,58 17,51.967 17,45C17,38.033 21.033,32 26,30ZM18.175,34.467C14.96,36.86 12.877,40.688 12.877,45C12.877,49.311 14.96,53.14 18.174,55.533C16.296,52.588 15.123,48.934 15.123,45C15.123,41.066 16.296,37.412 18.172,34.469L18.175,34.467Z"/>
        </g>
        <g transform="matrix(-0.690014,0,0,0.971544,227.953,635.692)">
            <path d="M205,31.195C198.243,41.325 198.23,49.116 205,58.986" style="fill:none;stroke:black;stroke-width:2.47px;"/>
        </g>
        <g transform="matrix(1.07143,0,0,1.07143,41.6429,631.271)">
            <path d="M40,31L40,59" style="fill:none;stroke:black;stroke-width:1.75px;"/>
        </g>
        <g transform="matrix(-6.12323e-17,-1,-1,6.12323e-17,99.485,694.485)">
            <path d="M30,-1.877C31.036,-1.877 31.877,-1.036 31.877,-0L31.877,30C31.877,31.036 31.036,31.877 30,31.877L0,31.877C-1.036,31.877 -1.877,31.036 -1.877,30L-1.877,0C-1.877,-1.036 -1.036,-1.877 0,-1.877L30,-1.877ZM30,0L0,0L0,30L30,30L30,0Z"/>
        </g>
        <g transform="matrix(4.22512e-17,0.690014,-0.971544,5.94899e-17,128.263,536.017)">
            <path d="M205,31.149C198.243,41.279 198.23,49.07 205,58.94" style="fill:none;stroke:black;stroke-width:2.47px;"/>
        </g>
        <g transform="matrix(-6.12323e-17,-1,-1,6.12323e-17,129.47,705.5)">
            <path d="M26,30C17.721,30 11,36.721 11,45C11,53.279 17.721,60 26,60C21.033,58 17,51.967 17,45C17,38.033 21.033,32 26,30ZM18.175,34.467C14.96,36.86 12.877,40.688 12.877,45C12.877,49.311 14.96,53.14 18.174,55.533C16.296,52.588 15.123,48.934 15.123,45C15.123,41.066 16.296,37.412 18.172,34.469L18.175,34.467Z"/>
        </g>
        <g transform="matrix(-4.22512e-17,-0.690014,-0.971544,5.94899e-17,128.263,822.953)">
            <path d="M205,31.149C198.243,41.279 198.23,49.07 205,58.94" style="fill:none;stroke:black;stroke-width:2.47px;"/>
        </g>
        <g transform="matrix(6.56061e-17,1.07143,-1.07143,6.56061e-17,132.684,636.643)">
            <path d="M40,31L40,59" style="fill:none;stroke:black;stroke-width:1.75px;"/>
        </g>
    </g>
</svg>
