<?xml version="1.0" encoding="UTF-8" standalone="no"?>
<!DOCTYPE svg PUBLIC "-//W3C//DTD SVG 1.1//EN" "http://www.w3.org/Graphics/SVG/1.1/DTD/svg11.dtd">
<svg width="100%" height="100%" viewBox="0 0 34 34" version="1.1" xmlns="http://www.w3.org/2000/svg" xmlns:xlink="http://www.w3.org/1999/xlink" xml:space="preserve" xmlns:serif="http://www.serif.com/" style="fill-rule:evenodd;clip-rule:evenodd;stroke-linecap:round;stroke-linejoin:round;stroke-miterlimit:1.5;">
    <g transform="matrix(1,0,0,1,-68.1234,-228.123)">
        <g transform="matrix(1,0,0,1,70,230)">
            <path d="M31.877,0C31.877,-1.036 31.036,-1.877 30,-1.877L0,-1.877C-1.036,-1.877 -1.877,-1.036 -1.877,-0L-1.877,30C-1.877,31.036 -1.036,31.877 0,31.877L30,31.877C31.036,31.877 31.877,31.036 31.877,30L31.877,0ZM30,0L0,0L0,30L30,30L30,0Z"/>
        </g>
        <g transform="matrix(1.77778,0,0,1.77778,43.2847,169.383)">
            <path d="M23.5,51.5C23.5,46.529 19.471,42.5 14.5,42.5L14.5,50.488C14.5,50.756 14.607,51.014 14.796,51.204C14.986,51.393 15.244,51.5 15.512,51.5L23.5,51.5ZM15.556,50.444L15.556,43.625C19.099,44.096 21.904,46.901 22.375,50.444L15.556,50.444Z"/>
        </g>
        <g transform="matrix(1.33333,0,0,1.33333,49.7292,192.272)">
            <path d="M23.5,51.5C23.5,46.529 19.471,42.5 14.5,42.5L14.5,50.169C14.5,50.904 15.096,51.5 15.831,51.5L23.5,51.5ZM15.907,50.093L15.907,44.038C18.972,44.612 21.388,47.028 21.962,50.093L15.907,50.093Z"/>
        </g>
        <g transform="matrix(0.833333,0,0,0.833333,56.9792,218.022)">
            <path d="M23.5,51.5C23.5,46.529 19.471,42.5 14.5,42.5L14.5,49.353C14.5,50.539 15.461,51.5 16.647,51.5L23.5,51.5ZM16.752,49.248L16.752,45.137C18.667,45.815 20.185,47.333 20.863,49.248L16.752,49.248Z"/>
        </g>
        <g transform="matrix(-1.77778,0,0,1.77778,126.715,169.383)">
            <path d="M23.5,51.5C23.5,46.529 19.471,42.5 14.5,42.5L14.5,50.488C14.5,50.756 14.607,51.014 14.796,51.204C14.986,51.393 15.244,51.5 15.512,51.5L23.5,51.5ZM15.556,50.444L22.375,50.444C21.904,46.901 19.099,44.096 15.556,43.625L15.556,50.444Z"/>
        </g>
        <g transform="matrix(-1.33333,0,0,1.33333,120.271,192.272)">
            <path d="M23.5,51.5C23.5,46.529 19.471,42.5 14.5,42.5L14.5,50.169C14.5,50.904 15.096,51.5 15.831,51.5L23.5,51.5ZM15.907,50.093L21.962,50.093C21.388,47.028 18.972,44.612 15.907,44.038L15.907,50.093Z"/>
        </g>
        <g transform="matrix(-0.833333,0,0,0.833333,113.021,218.022)">
            <path d="M23.5,51.5C23.5,46.529 19.471,42.5 14.5,42.5L14.5,49.353C14.5,50.539 15.461,51.5 16.647,51.5L23.5,51.5ZM16.752,49.248L20.863,49.248C20.185,47.333 18.667,45.815 16.752,45.137L16.752,49.248Z"/>
        </g>
        <g transform="matrix(6.74344e-17,-1,1.10129,6.12323e-17,35.3585,290)">
            <path d="M40,31L40,59" style="fill:none;stroke:black;stroke-width:1.78px;"/>
        </g>
        <g transform="matrix(6.74344e-17,-1,1.10129,6.12323e-17,35.6885,280)">
            <path d="M40,31L40,59" style="fill:none;stroke:black;stroke-width:1.78px;"/>
        </g>
        <g transform="matrix(-1,-1.35586e-16,1.22465e-16,-1.10714,129.932,294.821)">
            <path d="M40,31L40,59" style="fill:none;stroke:black;stroke-width:1.78px;"/>
        </g>
        <g transform="matrix(-1,-1.35586e-16,1.22465e-16,-1.10714,119.932,294.821)">
            <path d="M40,31L40,59" style="fill:none;stroke:black;stroke-width:1.78px;"/>
        </g>
    </g>
</svg>
