<?xml version="1.0" encoding="UTF-8" standalone="no"?>
<!DOCTYPE svg PUBLIC "-//W3C//DTD SVG 1.1//EN" "http://www.w3.org/Graphics/SVG/1.1/DTD/svg11.dtd">
<svg width="100%" height="100%" viewBox="0 0 3000 3000" version="1.1" xmlns="http://www.w3.org/2000/svg" xmlns:xlink="http://www.w3.org/1999/xlink" xml:space="preserve" xmlns:serif="http://www.serif.com/" style="fill-rule:evenodd;clip-rule:evenodd;stroke-linecap:round;stroke-linejoin:round;stroke-miterlimit:1.5;">
    <g transform="matrix(0.654545,0,0,0.654545,54.7273,369.055)">
        <circle cx="46.25" cy="45.75" r="13.75" style="fill:none;stroke:black;stroke-width:2.87px;"/>
    </g>
    <g transform="matrix(0.436364,0,0,0.436364,64.8182,379.036)">
        <circle cx="46.25" cy="45.75" r="13.75" style="fill:none;stroke:black;stroke-width:4.3px;"/>
    </g>
    <g transform="matrix(0.218182,0,0,0.218182,74.9091,389.018)">
        <circle cx="46.25" cy="45.75" r="13.75" style="fill:none;stroke:black;stroke-width:8.6px;"/>
    </g>
    <g transform="matrix(6.12323e-17,1,-1,6.12323e-17,129.47,653.47)">
        <path d="M26,30C17.721,30 11,36.721 11,45C11,53.279 17.721,60 26,60C21.033,58 17,51.967 17,45C17,38.033 21.033,32 26,30ZM18.172,34.469C16.296,37.412 15.123,41.066 15.123,45C15.123,48.934 16.296,52.588 18.172,55.531C14.96,53.14 12.877,49.312 12.877,45C12.877,40.689 14.96,36.86 18.174,34.467L18.172,34.469Z"/>
    </g>
    <g transform="matrix(6.12323e-17,1,-1,6.12323e-17,129.47,474.47)">
        <path d="M205,30C213.279,30 220,36.721 220,45C220,53.279 213.279,60 205,60C196.721,60 190,53.279 190,45C190,36.721 196.721,30 205,30ZM205,32.083C212.129,32.083 217.917,37.871 217.917,45C217.917,52.129 212.129,57.917 205,57.917C197.871,57.917 192.083,52.129 192.083,45C192.083,37.871 197.871,32.083 205,32.083L205,32.083Z"/>
    </g>
    <g transform="matrix(1,0,0,1,70,70)">
        <path d="M31.877,0C31.877,-1.036 31.036,-1.877 30,-1.877L0,-1.877C-1.036,-1.877 -1.877,-1.036 -1.877,-0L-1.877,30C-1.877,31.036 -1.036,31.877 0,31.877L30,31.877C31.036,31.877 31.877,31.036 31.877,30L31.877,0ZM30,0L0,0L0,30L30,30L30,0Z"/>
    </g>
    <g transform="matrix(1,0,0,1.10714,40,35.1786)">
        <path d="M40,31L40,59" style="fill:none;stroke:black;stroke-width:1.78px;"/>
    </g>
    <g transform="matrix(1,0,0,1.10714,50,35.1786)">
        <path d="M40,31L40,59" style="fill:none;stroke:black;stroke-width:1.78px;"/>
    </g>
    <g transform="matrix(6.77929e-17,-1,1.10714,6.12323e-17,35.1786,130)">
        <path d="M40,31L40,59" style="fill:none;stroke:black;stroke-width:1.78px;"/>
    </g>
    <g transform="matrix(6.77929e-17,-1,1.10714,6.12323e-17,35.1786,120)">
        <path d="M40,31L40,59" style="fill:none;stroke:black;stroke-width:1.78px;"/>
    </g>
    <g transform="matrix(1,0,0,1,70,110)">
        <path d="M31.877,0C31.877,-1.036 31.036,-1.877 30,-1.877L-0,-1.877C-1.036,-1.877 -1.877,-1.036 -1.877,-0L-1.877,30C-1.877,31.036 -1.036,31.877 0,31.877L30,31.877C31.036,31.877 31.877,31.036 31.877,30L31.877,0ZM30,0L0,0L0,30L30,30L30,0Z"/>
    </g>
    <g transform="matrix(1.09091,0,0,1.09091,34.5455,75.0909)">
        <path d="M46.25,32C53.839,32 60,38.161 60,45.75C60,53.339 53.839,59.5 46.25,59.5C38.661,59.5 32.5,53.339 32.5,45.75C32.5,38.161 38.661,32 46.25,32ZM46.25,33.72C52.889,33.72 58.28,39.111 58.28,45.75C58.28,52.389 52.889,57.78 46.25,57.78C39.611,57.78 34.22,52.389 34.22,45.75C34.22,39.111 39.611,33.72 46.25,33.72Z"/>
    </g>
    <g transform="matrix(0.690909,0,0,0.690909,53.0455,93.3909)">
        <circle cx="46.25" cy="45.75" r="13.75" style="fill:none;stroke:black;stroke-width:2.72px;"/>
    </g>
    <g transform="matrix(0.351515,0,0,0.351515,68.7424,108.918)">
        <circle cx="46.25" cy="45.75" r="13.75" style="fill:none;stroke:black;stroke-width:5.34px;"/>
    </g>
    <g transform="matrix(1,0,0,1,70,700)">
        <path d="M31.877,0C31.877,-1.036 31.036,-1.877 30,-1.877L-0,-1.877C-1.036,-1.877 -1.877,-1.036 -1.877,-0L-1.877,30C-1.877,31.036 -1.036,31.877 -0,31.877L30,31.877C31.036,31.877 31.877,31.036 31.877,30L31.877,0ZM30,0L0,0L0,30L30,30L30,0Z"/>
    </g>
    <g transform="matrix(1.09091,0,0,1.09091,34.5455,665.091)">
        <path d="M46.25,32C53.839,32 60,38.161 60,45.75C60,53.339 53.839,59.5 46.25,59.5C38.661,59.5 32.5,53.339 32.5,45.75C32.5,38.161 38.661,32 46.25,32ZM46.25,33.72C52.889,33.72 58.28,39.111 58.28,45.75C58.28,52.389 52.889,57.78 46.25,57.78C39.611,57.78 34.22,52.389 34.22,45.75C34.22,39.111 39.611,33.72 46.25,33.72Z"/>
    </g>
    <g transform="matrix(0.872727,0,0,0.872727,44.6364,675.073)">
        <circle cx="46.25" cy="45.75" r="13.75" style="fill:none;stroke:black;stroke-width:2.15px;"/>
    </g>
    <g transform="matrix(0.654545,0,0,0.654545,54.7273,685.055)">
        <circle cx="46.25" cy="45.75" r="13.75" style="fill:none;stroke:black;stroke-width:2.87px;"/>
    </g>
    <g transform="matrix(1,0,0,1,70,740)">
        <path d="M31.877,0C31.877,-1.036 31.036,-1.877 30,-1.877L-0,-1.877C-1.036,-1.877 -1.877,-1.036 -1.877,-0L-1.877,30C-1.877,31.036 -1.036,31.877 -0,31.877L30,31.877C31.036,31.877 31.877,31.036 31.877,30L31.877,0ZM30,0L0,0L0,30L30,30L30,0Z"/>
    </g>
    <g transform="matrix(1.09091,0,0,1.09091,34.5455,705.091)">
        <path d="M46.25,32C53.839,32 60,38.161 60,45.75C60,53.339 53.839,59.5 46.25,59.5C38.661,59.5 32.5,53.339 32.5,45.75C32.5,38.161 38.661,32 46.25,32ZM46.25,33.72C52.889,33.72 58.28,39.111 58.28,45.75C58.28,52.389 52.889,57.78 46.25,57.78C39.611,57.78 34.22,52.389 34.22,45.75C34.22,39.111 39.611,33.72 46.25,33.72Z"/>
    </g>
    <g transform="matrix(0.872727,0,0,0.872727,44.6364,715.073)">
        <circle cx="46.25" cy="45.75" r="13.75" style="fill:none;stroke:black;stroke-width:2.15px;"/>
    </g>
    <g transform="matrix(0.654545,0,0,0.654545,54.7273,725.055)">
        <circle cx="46.25" cy="45.75" r="13.75" style="fill:none;stroke:black;stroke-width:2.87px;"/>
    </g>
    <g transform="matrix(1.3,1.3,-1.3,1.3,913.75,-334.5)">
        <path d="M85,715L85,730" style="fill:none;stroke:black;stroke-width:1.13px;"/>
    </g>
    <g transform="matrix(1.3,-1.3,1.3,1.3,-964.75,-113.5)">
        <path d="M85,715L85,730" style="fill:none;stroke:black;stroke-width:1.13px;"/>
    </g>
    <g transform="matrix(1.33227e-15,1.96667,-1.96667,1.33227e-15,1505.92,548.083)">
        <path d="M85,715L85,730" style="fill:none;stroke:black;stroke-width:1.06px;"/>
    </g>
    <g transform="matrix(1.9,-6.00649e-15,6.00649e-15,1.9,-76.5,-657.5)">
        <path d="M85,715L85,730" style="fill:none;stroke:black;stroke-width:1.1px;"/>
    </g>
    <g transform="matrix(1,0,0,1,70,780)">
        <path d="M31.877,0C31.877,-1.036 31.036,-1.877 30,-1.877L-0,-1.877C-1.036,-1.877 -1.877,-1.036 -1.877,-0L-1.877,30C-1.877,31.036 -1.036,31.877 -0,31.877L30,31.877C31.036,31.877 31.877,31.036 31.877,30L31.877,0ZM30,0L0,0L0,30L30,30L30,0Z"/>
    </g>
    <g transform="matrix(1.09091,0,0,1.09091,34.5455,745.091)">
        <path d="M46.25,32C53.839,32 60,38.161 60,45.75C60,53.339 53.839,59.5 46.25,59.5C38.661,59.5 32.5,53.339 32.5,45.75C32.5,38.161 38.661,32 46.25,32ZM46.25,33.72C52.889,33.72 58.28,39.111 58.28,45.75C58.28,52.389 52.889,57.78 46.25,57.78C39.611,57.78 34.22,52.389 34.22,45.75C34.22,39.111 39.611,33.72 46.25,33.72Z"/>
    </g>
    <g transform="matrix(0.870634,0,0,0.870634,44.7332,755.168)">
        <circle cx="46.25" cy="45.75" r="13.75" style="fill:none;stroke:black;stroke-width:2.16px;"/>
    </g>
    <g transform="matrix(0.6151,0,0,0.6151,56.5516,766.859)">
        <circle cx="46.25" cy="45.75" r="13.75" style="fill:none;stroke:black;stroke-width:3.05px;"/>
    </g>
    <g transform="matrix(0.892586,-0.239168,0.239168,0.892586,-165.462,163.741)">
        <path d="M85,715L85,730" style="fill:none;stroke:black;stroke-width:2.25px;"/>
    </g>
    <g transform="matrix(0.908411,-2.87177e-15,2.87177e-15,0.908411,7.78507,131.86)">
        <path d="M85,715L85,730" style="fill:none;stroke:black;stroke-width:2.29px;"/>
    </g>
    <g transform="matrix(0.642343,-0.642343,0.642343,0.642343,-438.51,380.688)">
        <path d="M85,715L85,730" style="fill:none;stroke:black;stroke-width:2.29px;"/>
    </g>
    <g transform="matrix(-0.235114,-0.877458,0.877458,-0.235114,-535.791,1041.22)">
        <path d="M85,715L85,730" style="fill:none;stroke:black;stroke-width:2.29px;"/>
    </g>
    <g transform="matrix(-0.877458,0.235114,-0.235114,-0.877458,331.217,1415.55)">
        <path d="M85,715L85,730" style="fill:none;stroke:black;stroke-width:2.29px;"/>
    </g>
    <g transform="matrix(1,0,0,1,70,190)">
        <path d="M31.877,0C31.877,-1.036 31.036,-1.877 30,-1.877L-0,-1.877C-1.036,-1.877 -1.877,-1.036 -1.877,-0L-1.877,30C-1.877,31.036 -1.036,31.877 0,31.877L30,31.877C31.036,31.877 31.877,31.036 31.877,30L31.877,0ZM30,0L0,0L0,30L30,30L30,0Z"/>
    </g>
    <g transform="matrix(1.77778,0,0,1.77778,43.2847,129.444)">
        <path d="M23.5,51.5C23.5,46.529 19.471,42.5 14.5,42.5" style="fill:none;stroke:black;stroke-width:1.06px;stroke-linecap:butt;"/>
    </g>
    <g transform="matrix(1.20768,0,0,1.20768,51.5512,158.805)">
        <path d="M23.5,51.5C23.5,46.529 19.471,42.5 14.5,42.5" style="fill:none;stroke:black;stroke-width:1.55px;stroke-linecap:butt;"/>
    </g>
    <g transform="matrix(0.659722,0,0,0.659722,59.4965,187.024)">
        <path d="M23.5,51.5C23.5,46.529 19.471,42.5 14.5,42.5" style="fill:none;stroke:black;stroke-width:2.84px;stroke-linecap:butt;"/>
    </g>
    <g transform="matrix(1,0,0,1,69.9375,270.938)">
        <path d="M31.877,0C31.877,-1.036 31.036,-1.877 30,-1.877L0,-1.877C-1.036,-1.877 -1.877,-1.036 -1.877,0L-1.877,30C-1.877,31.036 -1.036,31.877 -0,31.877L30,31.877C31.036,31.877 31.877,31.036 31.877,30L31.877,0ZM30,0L0,0L0,30L30,30L30,0Z"/>
    </g>
    <g transform="matrix(1.77778,0,0,1.77778,43.2222,210.32)">
        <path d="M23.5,51.5C23.5,46.529 19.471,42.5 14.5,42.5" style="fill:none;stroke:black;stroke-width:1.06px;"/>
    </g>
    <g transform="matrix(1.33333,0,0,1.33333,49.6667,233.209)">
        <path d="M23.5,51.5C23.5,46.529 19.471,42.5 14.5,42.5" style="fill:none;stroke:black;stroke-width:1.41px;"/>
    </g>
    <g transform="matrix(0.833333,0,0,0.833333,56.9167,258.959)">
        <path d="M23.5,51.5C23.5,46.529 19.471,42.5 14.5,42.5" style="fill:none;stroke:black;stroke-width:2.25px;"/>
    </g>
    <g transform="matrix(-1.77778,0,0,1.77778,126.653,210.32)">
        <path d="M23.5,51.5C23.5,46.529 19.471,42.5 14.5,42.5" style="fill:none;stroke:black;stroke-width:1.06px;"/>
    </g>
    <g transform="matrix(-1.33333,0,0,1.33333,120.208,233.209)">
        <path d="M23.5,51.5C23.5,46.529 19.471,42.5 14.5,42.5" style="fill:none;stroke:black;stroke-width:1.41px;"/>
    </g>
    <g transform="matrix(-0.833333,0,0,0.833333,112.958,258.959)">
        <path d="M23.5,51.5C23.5,46.529 19.471,42.5 14.5,42.5" style="fill:none;stroke:black;stroke-width:2.25px;"/>
    </g>
    <g transform="matrix(-1.77778,0,0,-1.77778,126.653,361.556)">
        <path d="M23.5,51.5C23.5,46.529 19.471,42.5 14.5,42.5" style="fill:none;stroke:black;stroke-width:1.06px;"/>
    </g>
    <g transform="matrix(1,0,0,1,70,310.092)">
        <path d="M31.877,0C31.877,-1.036 31.036,-1.877 30,-1.877L0,-1.877C-1.036,-1.877 -1.877,-1.036 -1.877,0L-1.877,30C-1.877,31.036 -1.036,31.877 -0,31.877L30,31.877C31.036,31.877 31.877,31.036 31.877,30L31.877,0ZM30,0L0,0L0,30L30,30L30,0Z"/>
    </g>
    <g transform="matrix(1.78589,0,0,1.88107,55.5328,245.237)">
        <path d="M24.899,34C20.26,34 16.5,37.76 16.5,42.399C16.5,47.038 20.26,50.798 24.899,50.798" style="fill:none;stroke:black;stroke-width:1.02px;"/>
    </g>
    <g transform="matrix(1.17415,0,0,1.28232,70.7647,270.723)">
        <path d="M24.899,34C20.26,34 16.5,37.76 16.5,42.399C16.5,47.038 20.26,50.798 24.899,50.798" style="fill:none;stroke:black;stroke-width:1.53px;"/>
    </g>
    <g transform="matrix(0.602739,0,0,0.714357,84.9923,294.804)">
        <path d="M24.899,34C20.26,34 16.5,37.76 16.5,42.399C16.5,47.038 20.26,50.798 24.899,50.798" style="fill:none;stroke:black;stroke-width:2.84px;"/>
    </g>
    <g transform="matrix(-1.78589,0,0,1.88107,114.467,245.237)">
        <path d="M24.899,34C20.26,34 16.5,37.76 16.5,42.399C16.5,47.038 20.26,50.798 24.899,50.798" style="fill:none;stroke:black;stroke-width:1.02px;"/>
    </g>
    <g transform="matrix(-1.17415,0,0,1.28232,99.2353,270.723)">
        <path d="M24.899,34C20.26,34 16.5,37.76 16.5,42.399C16.5,47.038 20.26,50.798 24.899,50.798" style="fill:none;stroke:black;stroke-width:1.53px;"/>
    </g>
    <g transform="matrix(-0.602739,0,0,0.714357,85.0077,294.804)">
        <path d="M24.899,34C20.26,34 16.5,37.76 16.5,42.399C16.5,47.038 20.26,50.798 24.899,50.798" style="fill:none;stroke:black;stroke-width:2.84px;"/>
    </g>
    <g transform="matrix(-6.12323e-17,-1,-1,6.12323e-17,99,618)">
        <path d="M30,-1.877C31.036,-1.877 31.877,-1.036 31.877,-0L31.877,30C31.877,31.036 31.036,31.877 30,31.877L-0,31.877C-1.036,31.877 -1.877,31.036 -1.877,30L-1.877,0C-1.877,-1.036 -1.036,-1.877 -0,-1.877L30,-1.877ZM30,0L0,0L0,30L30,30L30,0Z"/>
    </g>
    <g transform="matrix(-6.56061e-17,-1,-1.07143,6.12323e-17,132.214,636.5)">
        <path d="M40,31L40,59" style="fill:none;stroke:black;stroke-width:1.81px;"/>
    </g>
    <g transform="matrix(-6.56061e-17,-1,-1.07143,6.12323e-17,132.214,646)">
        <path d="M40,31L40,59" style="fill:none;stroke:black;stroke-width:1.81px;"/>
    </g>
    <g transform="matrix(-4.77264e-17,-1,-1.07143,7.90997e-17,132.214,631)">
        <path d="M40,31L40,59" style="fill:none;stroke:black;stroke-width:1.81px;"/>
    </g>
    <g transform="matrix(1,-1.26838e-16,-1.26838e-16,-1.07143,50.0299,651.214)">
        <path d="M40,31L40,59" style="fill:none;stroke:black;stroke-width:1.81px;"/>
    </g>
    <g transform="matrix(1,-1.26838e-16,-1.26838e-16,-1.07143,40.5299,651.214)">
        <path d="M40,31L40,59" style="fill:none;stroke:black;stroke-width:1.81px;"/>
    </g>
    <g transform="matrix(1,-1.08959e-16,-1.44706e-16,-1.07143,55.5299,651.214)">
        <path d="M40,31L40,59" style="fill:none;stroke:black;stroke-width:1.81px;"/>
    </g>
    <g transform="matrix(6.12323e-17,-1,1,6.12323e-17,68.75,543.5)">
        <path d="M31.877,-0C31.877,-1.036 31.036,-1.877 30,-1.877L0,-1.877C-1.036,-1.877 -1.877,-1.036 -1.877,0L-1.877,30C-1.877,31.036 -1.036,31.877 -0,31.877L30,31.877C31.036,31.877 31.877,31.036 31.877,30L31.877,-0ZM30,0L0,0L0,30L30,30L30,0Z"/>
    </g>
    <g transform="matrix(1.12836e-17,-0.184275,0.285122,1.74587e-17,13.4463,24)">
        <rect x="0" y="0" width="30" height="30" style="fill:rgb(235,235,235);stroke:black;stroke-width:7.82px;"/>
    </g>
    <g transform="matrix(6.56061e-17,-1,1.07143,6.12323e-17,35.5357,562)">
        <path d="M40,31L40,59" style="fill:none;stroke:black;stroke-width:1.81px;"/>
    </g>
    <g transform="matrix(6.56061e-17,-1,1.07143,6.12323e-17,35.5357,571.5)">
        <path d="M40,31L40,59" style="fill:none;stroke:black;stroke-width:1.81px;"/>
    </g>
    <g transform="matrix(4.77264e-17,-1,1.07143,7.90997e-17,35.5357,556.5)">
        <path d="M40,31L40,59" style="fill:none;stroke:black;stroke-width:1.81px;"/>
    </g>
    <g transform="matrix(6.12323e-17,-1,1,6.12323e-17,69.2671,504.55)">
        <path d="M31.877,-0C31.877,-1.036 31.036,-1.877 30,-1.877L-0,-1.877C-1.036,-1.877 -1.877,-1.036 -1.877,0L-1.877,30C-1.877,31.036 -1.036,31.877 0,31.877L30,31.877C31.036,31.877 31.877,31.036 31.877,30L31.877,-0ZM30,0L0,0L0,30L30,30L30,0Z"/>
    </g>
    <g transform="matrix(6.74344e-17,-1,1.10129,6.12323e-17,34.694,534.55)">
        <path d="M40,31L40,59" style="fill:none;stroke:black;stroke-width:1.78px;"/>
    </g>
    <g transform="matrix(6.74344e-17,-1,1.10129,6.12323e-17,35.024,524.55)">
        <path d="M40,31L40,59" style="fill:none;stroke:black;stroke-width:1.78px;"/>
    </g>
    <g transform="matrix(-1,-1.31212e-16,1.22465e-16,-1.07143,129.267,537.764)">
        <path d="M40,31L40,59" style="fill:none;stroke:black;stroke-width:1.81px;"/>
    </g>
    <g transform="matrix(-1,-1.31212e-16,1.22465e-16,-1.07143,119.267,537.764)">
        <path d="M40,31L40,59" style="fill:none;stroke:black;stroke-width:1.81px;"/>
    </g>
    <g transform="matrix(-1.15182e-16,1.88107,1.88107,1.15182e-16,4.47424,458.613)">
        <path d="M24.899,34.684C24.899,34.5 24.823,34.325 24.689,34.2C24.555,34.075 24.374,34.012 24.192,34.025C19.884,34.389 16.5,37.999 16.5,42.399C16.5,46.861 19.979,50.511 24.373,50.782C24.51,50.789 24.643,50.74 24.742,50.646C24.841,50.552 24.897,50.421 24.897,50.285C24.899,48.461 24.899,42.399 24.899,42.399L24.899,34.684ZM23.9,49.734L23.901,45.657C23.901,44.571 23.901,43.485 23.902,42.399L23.902,35.06C20.285,35.551 17.498,38.65 17.498,42.399C17.498,46.148 20.284,49.246 23.9,49.734Z"/>
    </g>
    <g transform="matrix(-7.85196e-17,1.28232,1.28232,7.85196e-17,29.9602,473.492)">
        <path d="M24.899,34C20.26,34 16.5,37.76 16.5,42.399C16.5,47.038 20.26,50.798 24.899,50.798L24.899,34ZM23.436,35.618C20.308,36.29 17.963,39.071 17.963,42.399C17.963,45.728 20.308,48.508 23.436,49.18L23.436,35.618L23.436,35.618Z"/>
    </g>
    <g transform="matrix(-4.37417e-17,0.714357,0.714357,4.37417e-17,54.0415,487.634)">
        <path d="M24.899,34C20.26,34 16.5,37.76 16.5,42.399C16.5,47.038 20.26,50.798 24.899,50.798L24.899,34ZM22.272,37.258C20.405,38.214 19.127,40.157 19.127,42.399C19.127,44.641 20.405,46.585 22.273,47.541L22.272,37.258Z"/>
    </g>
    <g transform="matrix(6.12323e-17,-1,1,6.12323e-17,69.9316,465)">
        <path d="M31.877,-0C31.877,-1.036 31.036,-1.877 30,-1.877L0,-1.877C-1.036,-1.877 -1.877,-1.036 -1.877,-0L-1.877,30C-1.877,31.036 -1.036,31.877 -0,31.877L30,31.877C31.036,31.877 31.877,31.036 31.877,30L31.877,-0ZM30,0L0,0L0,30L30,30L30,0Z"/>
    </g>
    <g transform="matrix(6.74344e-17,-1,1.10129,6.12323e-17,35.3585,495)">
        <path d="M40,31L40,59" style="fill:none;stroke:black;stroke-width:1.78px;"/>
    </g>
    <g transform="matrix(6.74344e-17,-1,1.10129,6.12323e-17,35.6885,485)">
        <path d="M40,31L40,59" style="fill:none;stroke:black;stroke-width:1.78px;"/>
    </g>
    <g transform="matrix(-1,-1.35586e-16,1.22465e-16,-1.10714,129.932,499.821)">
        <path d="M40,31L40,59" style="fill:none;stroke:black;stroke-width:1.78px;"/>
    </g>
    <g transform="matrix(-1,-1.35586e-16,1.22465e-16,-1.10714,119.932,499.821)">
        <path d="M40,31L40,59" style="fill:none;stroke:black;stroke-width:1.78px;"/>
    </g>
    <g transform="matrix(6.74344e-17,-1,1.10129,6.12323e-17,35.3585,450.5)">
        <path d="M40,31L40,59" style="fill:none;stroke:black;stroke-width:1.78px;"/>
    </g>
    <g transform="matrix(6.74344e-17,-1,1.10129,6.12323e-17,35.6885,440.5)">
        <path d="M40,31L40,59" style="fill:none;stroke:black;stroke-width:1.78px;"/>
    </g>
    <g transform="matrix(-1,-1.35586e-16,1.22465e-16,-1.10714,129.932,455.321)">
        <path d="M40,31L40,59" style="fill:none;stroke:black;stroke-width:1.78px;"/>
    </g>
    <g transform="matrix(-1,-1.35586e-16,1.22465e-16,-1.10714,119.932,455.321)">
        <path d="M40,31L40,59" style="fill:none;stroke:black;stroke-width:1.78px;"/>
    </g>
    <g transform="matrix(-8.80685e-17,1.78589,1.89471,1.3715e-16,4.57994,405.533)">
        <path d="M24.899,34C20.26,34 16.5,37.76 16.5,42.399C16.5,47.038 20.26,50.798 24.899,50.798" style="fill:none;stroke:black;stroke-width:1.02px;"/>
    </g>
    <g transform="matrix(-3.93169e-17,1.19059,1.28232,1.13873e-16,30.6247,420.355)">
        <path d="M24.899,34C20.26,34 16.5,37.76 16.5,42.399C16.5,47.038 20.26,50.798 24.899,50.798" style="fill:none;stroke:black;stroke-width:1.52px;"/>
    </g>
    <g transform="matrix(-1.18113e-17,0.360039,0.358961,3.37578e-17,69.697,441.035)">
        <path d="M24.899,34C20.26,34 16.5,37.76 16.5,42.399C16.5,47.038 20.26,50.798 24.899,50.798" style="fill:none;stroke:black;stroke-width:5.22px;"/>
    </g>
    <g transform="matrix(-1.33333,0,0,-1.33333,120.208,338.667)">
        <path d="M23.5,51.5C23.5,46.529 19.471,42.5 14.5,42.5" style="fill:none;stroke:black;stroke-width:1.41px;"/>
    </g>
    <g transform="matrix(-0.833333,0,0,-0.833333,112.958,312.917)">
        <path d="M23.5,51.5C23.5,46.529 19.471,42.5 14.5,42.5" style="fill:none;stroke:black;stroke-width:2.25px;"/>
    </g>
    <g transform="matrix(1.77778,0,0,-1.77778,43.2222,361.556)">
        <path d="M23.5,51.5C23.5,46.529 19.471,42.5 14.5,42.5" style="fill:none;stroke:black;stroke-width:1.06px;"/>
    </g>
    <g transform="matrix(1.33333,0,0,-1.33333,49.6667,338.667)">
        <path d="M23.5,51.5C23.5,46.529 19.471,42.5 14.5,42.5" style="fill:none;stroke:black;stroke-width:1.41px;"/>
    </g>
    <g transform="matrix(0.833333,0,0,-0.833333,56.9167,312.917)">
        <path d="M23.5,51.5C23.5,46.529 19.471,42.5 14.5,42.5" style="fill:none;stroke:black;stroke-width:2.25px;"/>
    </g>
    <g transform="matrix(1,0,0,1,70,230)">
        <path d="M31.877,0C31.877,-1.036 31.036,-1.877 30,-1.877L0,-1.877C-1.036,-1.877 -1.877,-1.036 -1.877,-0L-1.877,30C-1.877,31.036 -1.036,31.877 0,31.877L30,31.877C31.036,31.877 31.877,31.036 31.877,30L31.877,0ZM30,0L0,0L0,30L30,30L30,0Z"/>
    </g>
    <g transform="matrix(1.77778,0,0,1.77778,43.2847,169.383)">
        <path d="M23.5,51.5C23.5,46.529 19.471,42.5 14.5,42.5L14.5,50.488C14.5,50.756 14.607,51.014 14.796,51.204C14.986,51.393 15.244,51.5 15.512,51.5L23.5,51.5ZM15.556,50.444L15.556,43.625C19.099,44.096 21.904,46.901 22.375,50.444L15.556,50.444Z"/>
    </g>
    <g transform="matrix(1.33333,0,0,1.33333,49.7292,192.272)">
        <path d="M23.5,51.5C23.5,46.529 19.471,42.5 14.5,42.5L14.5,50.169C14.5,50.904 15.096,51.5 15.831,51.5L23.5,51.5ZM15.907,50.093L15.907,44.038C18.972,44.612 21.388,47.028 21.962,50.093L15.907,50.093Z"/>
    </g>
    <g transform="matrix(0.833333,0,0,0.833333,56.9792,218.022)">
        <path d="M23.5,51.5C23.5,46.529 19.471,42.5 14.5,42.5L14.5,49.353C14.5,50.539 15.461,51.5 16.647,51.5L23.5,51.5ZM16.752,49.248L16.752,45.137C18.667,45.815 20.185,47.333 20.863,49.248L16.752,49.248Z"/>
    </g>
    <g transform="matrix(-1.77778,0,0,1.77778,126.715,169.383)">
        <path d="M23.5,51.5C23.5,46.529 19.471,42.5 14.5,42.5L14.5,50.488C14.5,50.756 14.607,51.014 14.796,51.204C14.986,51.393 15.244,51.5 15.512,51.5L23.5,51.5ZM15.556,50.444L22.375,50.444C21.904,46.901 19.099,44.096 15.556,43.625L15.556,50.444Z"/>
    </g>
    <g transform="matrix(-1.33333,0,0,1.33333,120.271,192.272)">
        <path d="M23.5,51.5C23.5,46.529 19.471,42.5 14.5,42.5L14.5,50.169C14.5,50.904 15.096,51.5 15.831,51.5L23.5,51.5ZM15.907,50.093L21.962,50.093C21.388,47.028 18.972,44.612 15.907,44.038L15.907,50.093Z"/>
    </g>
    <g transform="matrix(-0.833333,0,0,0.833333,113.021,218.022)">
        <path d="M23.5,51.5C23.5,46.529 19.471,42.5 14.5,42.5L14.5,49.353C14.5,50.539 15.461,51.5 16.647,51.5L23.5,51.5ZM16.752,49.248L20.863,49.248C20.185,47.333 18.667,45.815 16.752,45.137L16.752,49.248Z"/>
    </g>
    <g transform="matrix(1,0,0,1,70,150)">
        <path d="M31.877,0C31.877,-1.036 31.036,-1.877 30,-1.877L0,-1.877C-1.036,-1.877 -1.877,-1.036 -1.877,-0L-1.877,30C-1.877,31.036 -1.036,31.877 0,31.877L30,31.877C31.036,31.877 31.877,31.036 31.877,30L31.877,0ZM30,0L0,0L0,30L30,30L30,0Z"/>
    </g>
    <g transform="matrix(1.09091,0,0,1.09091,34.5455,115.091)">
        <path d="M46.25,32C53.839,32 60,38.161 60,45.75C60,53.339 53.839,59.5 46.25,59.5C38.661,59.5 32.5,53.339 32.5,45.75C32.5,38.161 38.661,32 46.25,32ZM46.25,33.72C52.889,33.72 58.28,39.111 58.28,45.75C58.28,52.389 52.889,57.78 46.25,57.78C39.611,57.78 34.22,52.389 34.22,45.75C34.22,39.111 39.611,33.72 46.25,33.72Z"/>
    </g>
    <g transform="matrix(0.690909,0,0,0.690909,53.0455,133.391)">
        <circle cx="46.25" cy="45.75" r="13.75" style="fill:none;stroke:black;stroke-width:2.72px;"/>
    </g>
    <g transform="matrix(0.363636,0,0,0.363636,68.1818,148.364)">
        <path d="M46.25,32C53.839,32 60,38.161 60,45.75C60,53.339 53.839,59.5 46.25,59.5C38.661,59.5 32.5,53.339 32.5,45.75C32.5,38.161 38.661,32 46.25,32ZM46.25,37.161C50.991,37.161 54.839,41.009 54.839,45.75C54.839,50.491 50.991,54.339 46.25,54.339C41.509,54.339 37.661,50.491 37.661,45.75C37.661,41.009 41.509,37.161 46.25,37.161Z"/>
    </g>
    <g transform="matrix(1,0,0,1.10714,40,115.179)">
        <path d="M40,31L40,59" style="fill:none;stroke:black;stroke-width:1.78px;"/>
    </g>
    <g transform="matrix(1,0,0,1.10714,50,115.179)">
        <path d="M40,31L40,59" style="fill:none;stroke:black;stroke-width:1.78px;"/>
    </g>
    <g transform="matrix(6.77929e-17,-1,1.10714,6.12323e-17,35.1786,210)">
        <path d="M40,31L40,59" style="fill:none;stroke:black;stroke-width:1.78px;"/>
    </g>
    <g transform="matrix(6.77929e-17,-1,1.10714,6.12323e-17,35.1786,200)">
        <path d="M40,31L40,59" style="fill:none;stroke:black;stroke-width:1.78px;"/>
    </g>
    <g transform="matrix(1,0,0,1,70,390)">
        <path d="M31.877,0C31.877,-1.036 31.036,-1.877 30,-1.877L-0,-1.877C-1.036,-1.877 -1.877,-1.036 -1.877,-0L-1.877,30C-1.877,31.036 -1.036,31.877 0,31.877L30,31.877C31.036,31.877 31.877,31.036 31.877,30L31.877,0ZM30,0L0,0L0,30L30,30L30,0Z"/>
    </g>
    <g transform="matrix(0.654545,0,0,0.654545,54.7273,381.055)">
        <circle cx="46.25" cy="45.75" r="13.75" style="fill:none;stroke:black;stroke-width:2.87px;"/>
    </g>
    <g transform="matrix(0.436364,0,0,0.436364,64.8182,391.036)">
        <circle cx="46.25" cy="45.75" r="13.75" style="fill:none;stroke:black;stroke-width:4.3px;"/>
    </g>
    <g transform="matrix(0.218182,0,0,0.218182,74.9091,401.018)">
        <circle cx="46.25" cy="45.75" r="13.75" style="fill:none;stroke:black;stroke-width:8.6px;"/>
    </g>
    <g transform="matrix(1,0,0,1,70,350)">
        <path d="M31.877,0C31.877,-1.036 31.036,-1.877 30,-1.877L-0,-1.877C-1.036,-1.877 -1.877,-1.036 -1.877,-0L-1.877,30C-1.877,31.036 -1.036,31.877 0,31.877L30,31.877C31.036,31.877 31.877,31.036 31.877,30L31.877,0ZM30,0L0,0L0,30L30,30L30,0Z"/>
    </g>
    <g transform="matrix(6.74344e-17,-1,1.10129,6.12323e-17,35.3585,410)">
        <path d="M40,31L40,59" style="fill:none;stroke:black;stroke-width:1.78px;"/>
    </g>
    <g transform="matrix(6.74344e-17,-1,1.10129,6.12323e-17,35.6885,400)">
        <path d="M40,31L40,59" style="fill:none;stroke:black;stroke-width:1.78px;"/>
    </g>
    <g transform="matrix(-1,-1.35586e-16,1.22465e-16,-1.10714,129.932,414.821)">
        <path d="M40,31L40,59" style="fill:none;stroke:black;stroke-width:1.78px;"/>
    </g>
    <g transform="matrix(-1,-1.35586e-16,1.22465e-16,-1.10714,119.932,414.821)">
        <path d="M40,31L40,59" style="fill:none;stroke:black;stroke-width:1.78px;"/>
    </g>
    <g transform="matrix(6.74344e-17,-1,1.10129,6.12323e-17,35.3585,370.292)">
        <path d="M40,31L40,59" style="fill:none;stroke:black;stroke-width:1.78px;"/>
    </g>
    <g transform="matrix(6.74344e-17,-1,1.10129,6.12323e-17,35.6885,360.292)">
        <path d="M40,31L40,59" style="fill:none;stroke:black;stroke-width:1.78px;"/>
    </g>
    <g transform="matrix(-1,-1.35586e-16,1.22465e-16,-1.10714,129.932,375.113)">
        <path d="M40,31L40,59" style="fill:none;stroke:black;stroke-width:1.78px;"/>
    </g>
    <g transform="matrix(-1,-1.35586e-16,1.22465e-16,-1.10714,119.932,375.113)">
        <path d="M40,31L40,59" style="fill:none;stroke:black;stroke-width:1.78px;"/>
    </g>
    <g transform="matrix(6.74344e-17,-1,1.10129,6.12323e-17,35.3585,331)">
        <path d="M40,31L40,59" style="fill:none;stroke:black;stroke-width:1.78px;"/>
    </g>
    <g transform="matrix(6.74344e-17,-1,1.10129,6.12323e-17,35.6885,321)">
        <path d="M40,31L40,59" style="fill:none;stroke:black;stroke-width:1.78px;"/>
    </g>
    <g transform="matrix(-1,-1.35586e-16,1.22465e-16,-1.10714,129.932,335.821)">
        <path d="M40,31L40,59" style="fill:none;stroke:black;stroke-width:1.78px;"/>
    </g>
    <g transform="matrix(-1,-1.35586e-16,1.22465e-16,-1.10714,119.932,335.821)">
        <path d="M40,31L40,59" style="fill:none;stroke:black;stroke-width:1.78px;"/>
    </g>
    <g transform="matrix(0.545455,0,0,0.545455,59.7727,332.545)">
        <circle cx="46.25" cy="45.75" r="13.75" style="fill:none;stroke:black;stroke-width:3.44px;"/>
    </g>
    <g transform="matrix(0.363636,0,0,0.363636,68.1818,340.864)">
        <circle cx="46.25" cy="45.75" r="13.75" style="fill:none;stroke:black;stroke-width:5.16px;"/>
    </g>
    <g transform="matrix(0.181818,0,0,0.181818,76.5909,349.182)">
        <circle cx="46.25" cy="45.75" r="13.75" style="fill:none;stroke:black;stroke-width:10.32px;"/>
    </g>
    <g transform="matrix(0.545455,0,0,0.545455,59.7727,347.545)">
        <circle cx="46.25" cy="45.75" r="13.75" style="fill:none;stroke:black;stroke-width:3.44px;"/>
    </g>
    <g transform="matrix(0.363636,0,0,0.363636,68.1818,355.864)">
        <circle cx="46.25" cy="45.75" r="13.75" style="fill:none;stroke:black;stroke-width:5.16px;"/>
    </g>
    <g transform="matrix(0.181818,0,0,0.181818,76.5909,364.182)">
        <circle cx="46.25" cy="45.75" r="13.75" style="fill:none;stroke:black;stroke-width:10.32px;"/>
    </g>
    <g transform="matrix(6.12323e-17,-1,1,6.12323e-17,69,580)">
        <path d="M31.877,0C31.877,-1.036 31.036,-1.877 30,-1.877L-0,-1.877C-1.036,-1.877 -1.877,-1.036 -1.877,0L-1.877,30C-1.877,31.036 -1.036,31.877 -0,31.877L30,31.877C31.036,31.877 31.877,31.036 31.877,30L31.877,0ZM30,0L0,0L0,30L30,30L30,0Z"/>
    </g>
    <g transform="matrix(6.56061e-17,-1,1.07143,6.12323e-17,35.7857,598.5)">
        <path d="M40,31L40,59" style="fill:none;stroke:black;stroke-width:1.81px;"/>
    </g>
    <g transform="matrix(6.56061e-17,-1,1.07143,6.12323e-17,35.7857,608)">
        <path d="M40,31L40,59" style="fill:none;stroke:black;stroke-width:1.81px;"/>
    </g>
    <g transform="matrix(4.77264e-17,-1,1.07143,7.90997e-17,35.7857,593)">
        <path d="M40,31L40,59" style="fill:none;stroke:black;stroke-width:1.81px;"/>
    </g>
    <g transform="matrix(1,0,0,1.07143,38.9701,516.786)">
        <path d="M40,31L40,59" style="fill:none;stroke:black;stroke-width:1.81px;"/>
    </g>
    <g transform="matrix(1,0,0,1.07143,48.9701,516.786)">
        <path d="M40,31L40,59" style="fill:none;stroke:black;stroke-width:1.81px;"/>
    </g>
    <g transform="matrix(-6.12323e-17,-1,-1,6.12323e-17,60.0299,60)">
        <rect x="0" y="0" width="30" height="30" style="fill:rgb(235,235,235);stroke:black;stroke-width:1.88px;"/>
    </g>
    <g transform="matrix(-0.235702,0,0,0.235702,94.5355,30.4645)">
        <rect x="0" y="0" width="30" height="30" style="fill:rgb(235,235,235);stroke:black;stroke-width:7.96px;"/>
    </g>
    <g transform="matrix(-6.12323e-17,-1,-1,6.12323e-17,99,656.5)">
        <path d="M30,-1.877C31.036,-1.877 31.877,-1.036 31.877,-0L31.877,30C31.877,31.036 31.036,31.877 30,31.877L-0,31.877C-1.036,31.877 -1.877,31.036 -1.877,30L-1.877,0C-1.877,-1.036 -1.036,-1.877 -0,-1.877L30,-1.877ZM30,0L0,0L0,30L30,30L30,0Z"/>
    </g>
    <g transform="matrix(1,0,0,1,57.9701,596.5)">
        <path d="M26,30C17.721,30 11,36.721 11,45C11,53.279 17.721,60 26,60C21.033,58 17,51.967 17,45C17,38.033 21.033,32 26,30ZM18.172,34.469C16.296,37.412 15.123,41.066 15.123,45C15.123,48.934 16.296,52.588 18.172,55.531C14.96,53.14 12.877,49.312 12.877,45C12.877,40.689 14.96,36.86 18.174,34.467L18.172,34.469Z"/>
    </g>
    <g transform="matrix(1,0,0,1,57.9701,596.5)">
        <path d="M26,30C17.721,30 11,36.721 11,45C11,53.279 17.721,60 26,60C21.033,58 17,51.967 17,45C17,38.033 21.033,32 26,30ZM18.172,34.469C16.296,37.412 15.123,41.066 15.123,45C15.123,48.934 16.296,52.588 18.172,55.531C14.96,53.14 12.877,49.312 12.877,45C12.877,40.689 14.96,36.86 18.174,34.467L18.172,34.469Z"/>
    </g>
    <g transform="matrix(-1,0,0,1,110,596.5)">
        <path d="M26,30C17.721,30 11,36.721 11,45C11,53.279 17.721,60 26,60C21.033,58 17,51.967 17,45C17,38.033 21.033,32 26,30ZM18.175,34.467C14.96,36.86 12.877,40.688 12.877,45C12.877,49.311 14.96,53.14 18.174,55.533C16.296,52.588 15.123,48.934 15.123,45C15.123,41.066 16.296,37.412 18.172,34.469L18.175,34.467Z"/>
    </g>
    <g transform="matrix(0.690014,0,0,0.971544,-59.4528,597.692)">
        <path d="M205,31.195C198.243,41.325 198.23,49.116 205,58.986" style="fill:none;stroke:black;stroke-width:2.47px;"/>
    </g>
    <g transform="matrix(-0.690014,0,0,0.971544,227.483,597.692)">
        <path d="M205,31.195C198.243,41.325 198.23,49.116 205,58.986" style="fill:none;stroke:black;stroke-width:2.47px;"/>
    </g>
    <g transform="matrix(1.07143,0,0,1.07143,41.1429,593.286)">
        <path d="M40,31L40,59" style="fill:none;stroke:black;stroke-width:1.75px;"/>
    </g>
    <g transform="matrix(1,0,0,1,-121.03,596.5)">
        <path d="M205,30C213.279,30 220,36.721 220,45C220,53.279 213.279,60 205,60C196.721,60 190,53.279 190,45C190,36.721 196.721,30 205,30ZM205,32.083C212.129,32.083 217.917,37.871 217.917,45C217.917,52.129 212.129,57.917 205,57.917C197.871,57.917 192.083,52.129 192.083,45C192.083,37.871 197.871,32.083 205,32.083Z"/>
    </g>
    <g transform="matrix(1,0,0,1,58.4701,634.485)">
        <path d="M26,30C17.721,30 11,36.721 11,45C11,53.279 17.721,60 26,60C21.033,58 17,51.967 17,45C17,38.033 21.033,32 26,30ZM18.172,34.469C16.296,37.412 15.123,41.066 15.123,45C15.123,48.934 16.296,52.588 18.172,55.531C14.96,53.14 12.877,49.312 12.877,45C12.877,40.689 14.96,36.86 18.174,34.467L18.172,34.469Z"/>
    </g>
    <g transform="matrix(0.690014,0,0,0.971544,-58.9828,635.692)">
        <path d="M205,31.195C198.243,41.325 198.23,49.116 205,58.986" style="fill:none;stroke:black;stroke-width:2.47px;"/>
    </g>
    <g transform="matrix(-1,0,0,1,110.5,634.485)">
        <path d="M26,30C17.721,30 11,36.721 11,45C11,53.279 17.721,60 26,60C21.033,58 17,51.967 17,45C17,38.033 21.033,32 26,30ZM18.175,34.467C14.96,36.86 12.877,40.688 12.877,45C12.877,49.311 14.96,53.14 18.174,55.533C16.296,52.588 15.123,48.934 15.123,45C15.123,41.066 16.296,37.412 18.172,34.469L18.175,34.467Z"/>
    </g>
    <g transform="matrix(-0.690014,0,0,0.971544,227.953,635.692)">
        <path d="M205,31.195C198.243,41.325 198.23,49.116 205,58.986" style="fill:none;stroke:black;stroke-width:2.47px;"/>
    </g>
    <g transform="matrix(1.07143,0,0,1.07143,41.6429,631.271)">
        <path d="M40,31L40,59" style="fill:none;stroke:black;stroke-width:1.75px;"/>
    </g>
    <g transform="matrix(-6.12323e-17,-1,-1,6.12323e-17,99.485,694.485)">
        <path d="M30,-1.877C31.036,-1.877 31.877,-1.036 31.877,-0L31.877,30C31.877,31.036 31.036,31.877 30,31.877L0,31.877C-1.036,31.877 -1.877,31.036 -1.877,30L-1.877,0C-1.877,-1.036 -1.036,-1.877 0,-1.877L30,-1.877ZM30,0L0,0L0,30L30,30L30,0Z"/>
    </g>
    <g transform="matrix(4.22512e-17,0.690014,-0.971544,5.94899e-17,128.263,536.017)">
        <path d="M205,31.149C198.243,41.279 198.23,49.07 205,58.94" style="fill:none;stroke:black;stroke-width:2.47px;"/>
    </g>
    <g transform="matrix(-6.12323e-17,-1,-1,6.12323e-17,129.47,705.5)">
        <path d="M26,30C17.721,30 11,36.721 11,45C11,53.279 17.721,60 26,60C21.033,58 17,51.967 17,45C17,38.033 21.033,32 26,30ZM18.175,34.467C14.96,36.86 12.877,40.688 12.877,45C12.877,49.311 14.96,53.14 18.174,55.533C16.296,52.588 15.123,48.934 15.123,45C15.123,41.066 16.296,37.412 18.172,34.469L18.175,34.467Z"/>
    </g>
    <g transform="matrix(-4.22512e-17,-0.690014,-0.971544,5.94899e-17,128.263,822.953)">
        <path d="M205,31.149C198.243,41.279 198.23,49.07 205,58.94" style="fill:none;stroke:black;stroke-width:2.47px;"/>
    </g>
    <g transform="matrix(6.56061e-17,1.07143,-1.07143,6.56061e-17,132.684,636.643)">
        <path d="M40,31L40,59" style="fill:none;stroke:black;stroke-width:1.75px;"/>
    </g>
    <g transform="matrix(1,0,0,1,70,820)">
        <path d="M31.877,0C31.877,-1.036 31.036,-1.877 30,-1.877L-0,-1.877C-1.036,-1.877 -1.877,-1.036 -1.877,-0L-1.877,30C-1.877,31.036 -1.036,31.877 -0,31.877L30,31.877C31.036,31.877 31.877,31.036 31.877,30L31.877,0ZM30,0L0,0L0,30L30,30L30,0Z"/>
    </g>
    <g transform="matrix(1.09091,0,0,1.09091,34.5455,785.091)">
        <circle cx="46.25" cy="45.75" r="13.75" style="fill:none;stroke:black;stroke-width:1.72px;"/>
    </g>
    <g transform="matrix(0.727273,0,0,0.727273,51.3636,801.727)">
        <circle cx="46.25" cy="45.75" r="13.75" style="fill:none;stroke:black;stroke-width:2.58px;"/>
    </g>
    <g transform="matrix(0.363636,0,0,0.363636,68.1818,818.364)">
        <circle cx="46.25" cy="45.75" r="13.75" style="fill:none;stroke:black;stroke-width:5.16px;"/>
    </g>
    <g transform="matrix(1.48998,1.48998,-2,2,1403.35,-736.648)">
        <path d="M85,715L85,730" style="fill:none;stroke:black;stroke-width:0.84px;"/>
    </g>
    <g transform="matrix(1.48998,-1.48998,2,2,-1486.65,-483.352)">
        <path d="M85,715L85,730" style="fill:none;stroke:black;stroke-width:0.84px;"/>
    </g>
    <g transform="matrix(1.33227e-15,1.96667,-1.96667,1.33227e-15,1505.92,667.833)">
        <path d="M85,715L85,730" style="fill:none;stroke:black;stroke-width:1.06px;"/>
    </g>
    <g transform="matrix(1.96667,-6.21725e-15,6.21725e-15,1.96667,-82.1667,-585.917)">
        <path d="M85,715L85,730" style="fill:none;stroke:black;stroke-width:1.06px;"/>
    </g>
    <path d="M30,32L60.03,48" style="fill:none;stroke:black;stroke-width:1.44px;"/>
    <g transform="matrix(1,0,0,1,0,3.5)">
        <path d="M30,32L60.03,48" style="fill:none;stroke:black;stroke-width:1.44px;"/>
    </g>
    <g transform="matrix(1,0,0,1,0,-3.5)">
        <path d="M32.5,33.332L60.03,48" style="fill:none;stroke:black;stroke-width:1.44px;"/>
    </g>
    <g transform="matrix(1,0,0,1,0,7)">
        <path d="M30,32L60.03,48" style="fill:none;stroke:black;stroke-width:1.44px;"/>
    </g>
    <g transform="matrix(1,0,0,1,0,-10.5)">
        <path d="M45.958,40.5L60.03,48" style="fill:none;stroke:black;stroke-width:1.44px;"/>
    </g>
    <g transform="matrix(1,0,0,1,0,-7)">
        <path d="M39.386,37L60.03,48" style="fill:none;stroke:black;stroke-width:1.44px;"/>
    </g>
    <g transform="matrix(1,0,0,1,0,-14)">
        <path d="M52.5,44L60.03,48" style="fill:none;stroke:black;stroke-width:1.44px;"/>
    </g>
    <g transform="matrix(1,0,0,1,0,10.5)">
        <path d="M30,32L60.03,48" style="fill:none;stroke:black;stroke-width:1.44px;"/>
    </g>
    <g transform="matrix(1,0,0,1,0,14)">
        <path d="M30,32L56.253,46" style="fill:none;stroke:black;stroke-width:1.44px;"/>
    </g>
    <g transform="matrix(1,0,0,1,0,17.5)">
        <path d="M30,32L49.707,42.5" style="fill:none;stroke:black;stroke-width:1.44px;"/>
    </g>
    <g transform="matrix(1,0,0,1,0,21)">
        <path d="M30,32L43,38.926" style="fill:none;stroke:black;stroke-width:1.44px;"/>
    </g>
    <g transform="matrix(1,0,0,1,0,24.5)">
        <path d="M30,32L36.5,35.5" style="fill:none;stroke:black;stroke-width:1.44px;"/>
    </g>
    <g transform="matrix(-6.12323e-17,-1,-1,6.12323e-17,100.03,890)">
        <path d="M30,-1.877C31.036,-1.877 31.877,-1.036 31.877,-0L31.877,30C31.877,31.036 31.036,31.877 30,31.877L0,31.877C-1.036,31.877 -1.877,31.036 -1.877,30L-1.877,0C-1.877,-1.036 -1.036,-1.877 0,-1.877L30,-1.877ZM30,0L0,0L0,30L30,30L30,0Z"/>
    </g>
    <g transform="matrix(1,0,0,1,40,830)">
        <path d="M30,32L60.03,48" style="fill:none;stroke:black;stroke-width:1.88px;"/>
    </g>
    <g transform="matrix(1.0323,0,0,1.0323,38.5309,835.7)">
        <path d="M30,32L60.03,48" style="fill:none;stroke:black;stroke-width:1.82px;"/>
    </g>
    <g transform="matrix(1.06713,5.55112e-17,-5.55112e-17,1.06713,35.97,819.778)">
        <path d="M39.386,37L60.03,48" style="fill:none;stroke:black;stroke-width:1.76px;"/>
    </g>
    <g transform="matrix(1.24704,5.84364e-17,-5.84364e-17,1.24704,25.6401,804.392)">
        <path d="M52.5,44L60.03,48" style="fill:none;stroke:black;stroke-width:1.5px;"/>
    </g>
    <g transform="matrix(1.06655,-5.71638e-17,5.71638e-17,1.06655,37.5035,841.604)">
        <path d="M30,32L56.253,46" style="fill:none;stroke:black;stroke-width:1.76px;"/>
    </g>
    <g transform="matrix(1.11538,0,0,1.11538,36.5385,847.308)">
        <path d="M30,32L43,38.926" style="fill:none;stroke:black;stroke-width:1.68px;"/>
    </g>
    <g transform="matrix(-1.04105,5.64134e-17,5.64134e-17,1.04105,131.994,828.296)">
        <path d="M30,32L60.03,48" style="fill:none;stroke:black;stroke-width:1.8px;"/>
    </g>
    <g transform="matrix(-1.03134,0,0,1.03134,130.97,835.997)">
        <path d="M30,32L60.03,48" style="fill:none;stroke:black;stroke-width:1.82px;"/>
    </g>
    <g transform="matrix(-1.04545,0,0,1.04545,132.759,820.818)">
        <path d="M39.386,37L60.03,48" style="fill:none;stroke:black;stroke-width:1.8px;"/>
    </g>
    <g transform="matrix(-1.32023,5.03186e-18,5.03186e-18,1.32023,148.312,801.129)">
        <path d="M52.5,44L60.03,48" style="fill:none;stroke:black;stroke-width:1.42px;"/>
    </g>
    <g transform="matrix(-1.06655,-5.65051e-17,-5.65051e-17,1.06655,132.496,841.62)">
        <path d="M30,32L56.253,46" style="fill:none;stroke:black;stroke-width:1.76px;"/>
    </g>
    <g transform="matrix(-1.11769,-5.55112e-17,-5.55112e-17,1.11769,133.561,847.234)">
        <path d="M30,32L43,38.926" style="fill:none;stroke:black;stroke-width:1.68px;"/>
    </g>
    <g transform="matrix(-6.12323e-17,-1,-1,6.12323e-17,100.03,929.886)">
        <path d="M30,-1.877C31.036,-1.877 31.877,-1.036 31.877,-0L31.877,30C31.877,31.036 31.036,31.877 30,31.877L0,31.877C-1.036,31.877 -1.877,31.036 -1.877,30L-1.877,0C-1.877,-1.036 -1.036,-1.877 0,-1.877L30,-1.877ZM30,0L0,0L0,30L30,30L30,0Z"/>
    </g>
    <g transform="matrix(1.1322,0,0,1.1322,34.0339,865.92)">
        <path d="M31.85,32.986L58.44,47.153" style="fill:none;stroke:black;stroke-width:1.66px;"/>
    </g>
    <g transform="matrix(1.1322,0,0,1.1322,34.0339,873.845)">
        <path d="M31.85,32.986L58.263,47.059" style="fill:none;stroke:black;stroke-width:1.66px;"/>
    </g>
    <g transform="matrix(1.1322,0,0,1.1322,34.0339,857.995)">
        <path d="M39.386,37L58.44,47.153" style="fill:none;stroke:black;stroke-width:1.66px;"/>
    </g>
    <g transform="matrix(1.1322,0,0,1.1322,34.0339,850.069)">
        <path d="M52.5,44L58.44,47.155" style="fill:none;stroke:black;stroke-width:1.66px;"/>
    </g>
    <g transform="matrix(1.20006,0,0,1.20006,31.8726,879.532)">
        <path d="M31.85,32.987L49.873,42.598" style="fill:none;stroke:black;stroke-width:1.56px;"/>
    </g>
    <g transform="matrix(1.41896,0,0,1.41896,24.9007,880.237)">
        <path d="M31.85,32.986L36.624,35.529" style="fill:none;stroke:black;stroke-width:1.32px;"/>
    </g>
    <g transform="matrix(-1.1322,0,0,1.1322,135.966,865.92)">
        <path d="M31.766,32.941L58.263,47.059" style="fill:none;stroke:black;stroke-width:1.66px;"/>
    </g>
    <g transform="matrix(-1.1322,0,0,1.1322,135.966,873.845)">
        <path d="M31.766,32.941L58.18,47.014" style="fill:none;stroke:black;stroke-width:1.66px;"/>
    </g>
    <g transform="matrix(-1.1322,0,0,1.1322,135.966,857.995)">
        <path d="M39.386,37L58.263,47.059" style="fill:none;stroke:black;stroke-width:1.66px;"/>
    </g>
    <g transform="matrix(-1.1322,0,0,1.1322,135.966,850.069)">
        <path d="M52.5,44L58.18,47.017" style="fill:none;stroke:black;stroke-width:1.66px;"/>
    </g>
    <g transform="matrix(-1.2116,0,0,1.2116,138.474,879.163)">
        <path d="M31.59,32.848L49.684,42.497" style="fill:none;stroke:black;stroke-width:1.55px;"/>
    </g>
    <g transform="matrix(-1.48158,1.16693e-16,1.16693e-16,1.48158,147.003,878.22)">
        <path d="M31.59,32.847L36.624,35.529" style="fill:none;stroke:black;stroke-width:1.27px;"/>
    </g>
    <g transform="matrix(1.1322,0,0,1.1322,-80.8847,-73.8088)">
        <path d="M140,860L140,886.529" style="fill:none;stroke:black;stroke-width:1.66px;"/>
    </g>
    <g transform="matrix(1.1322,0,0,1.1322,-66.1661,-73.8088)">
        <path d="M140,860L140,886.529" style="fill:none;stroke:black;stroke-width:1.66px;"/>
    </g>
    <g transform="matrix(1.1322,0,0,1.1322,-73.4612,-73.8088)">
        <path d="M140,860L140,886.529" style="fill:none;stroke:black;stroke-width:1.66px;"/>
    </g>
    <g transform="matrix(-6.12323e-17,-1,-1,6.12323e-17,100.03,970.165)">
        <path d="M30,-1.877C31.036,-1.877 31.877,-1.036 31.877,0L31.877,30C31.877,31.036 31.036,31.877 30,31.877L0,31.877C-1.036,31.877 -1.877,31.036 -1.877,30L-1.877,0C-1.877,-1.036 -1.036,-1.877 0,-1.877L30,-1.877ZM30,0L0,0L0,30L30,30L30,0Z"/>
    </g>
    <g transform="matrix(-6.12323e-17,-1,-1,6.12323e-17,100.03,1010.16)">
        <path d="M30,-1.877C31.036,-1.877 31.877,-1.036 31.877,0L31.877,30C31.877,31.036 31.036,31.877 30,31.877L0,31.877C-1.036,31.877 -1.877,31.036 -1.877,30L-1.877,0C-1.877,-1.036 -1.036,-1.877 0,-1.877L30,-1.877ZM30,0L0,0L0,30L30,30L30,0Z"/>
    </g>
    <g transform="matrix(0.493614,0,0,0.493614,40.7805,471.775)">
        <path d="M71,950C76.027,950 80.015,953.987 80.015,959.015" style="fill:none;stroke:black;stroke-width:2.92px;"/>
    </g>
    <g transform="matrix(-0.493614,0,0,0.493614,119.773,471.775)">
        <path d="M71,950C76.027,950 80.015,953.987 80.015,959.015" style="fill:none;stroke:black;stroke-width:2.92px;"/>
    </g>
    <g transform="matrix(0.493614,0,0,0.493614,50.2553,471.775)">
        <path d="M71,950C76.027,950 80.015,953.987 80.015,959.015" style="fill:none;stroke:black;stroke-width:2.92px;"/>
    </g>
    <g transform="matrix(-0.493614,0,0,0.493614,129.248,471.775)">
        <path d="M71,950C76.027,950 80.015,953.987 80.015,959.015" style="fill:none;stroke:black;stroke-width:2.92px;"/>
    </g>
    <g transform="matrix(0.493614,0,0,0.493614,59.7301,471.775)">
        <path d="M71,950C76.027,950 80.015,953.987 80.015,959.015" style="fill:none;stroke:black;stroke-width:2.92px;"/>
    </g>
    <g transform="matrix(1.11135,0,0,1.11135,-14.1876,-111.078)">
        <path d="M85,950C87.76,950 90,952.24 90,955C90,957.76 87.76,960 85,960C82.24,960 80,957.76 80,955C80,952.24 82.24,950 85,950ZM85,951.299C87.043,951.299 88.701,952.957 88.701,955C88.701,957.043 87.043,958.701 85,958.701C82.957,958.701 81.299,957.043 81.299,955C81.299,952.957 82.957,951.299 85,951.299Z"/>
    </g>
    <g transform="matrix(0.493614,0,0,0.493614,40.7805,481.318)">
        <path d="M71,950C76.027,950 80.015,953.987 80.015,959.015" style="fill:none;stroke:black;stroke-width:2.92px;"/>
    </g>
    <g transform="matrix(-0.493614,0,0,0.493614,119.773,481.318)">
        <path d="M71,950C76.027,950 80.015,953.987 80.015,959.015" style="fill:none;stroke:black;stroke-width:2.92px;"/>
    </g>
    <g transform="matrix(0.493614,0,0,-0.493614,40.7805,1419.19)">
        <path d="M71,950C76.027,950 80.015,953.987 80.015,959.015" style="fill:none;stroke:black;stroke-width:2.92px;"/>
    </g>
    <g transform="matrix(-0.493614,0,0,-0.493614,119.773,1419.19)">
        <path d="M71,950C76.027,950 80.015,953.987 80.015,959.015" style="fill:none;stroke:black;stroke-width:2.92px;"/>
    </g>
    <g transform="matrix(1.11135,0,0,1.11135,-18.9078,-115.866)">
        <path d="M85,950C87.76,950 90,952.24 90,955C90,957.76 87.76,960 85,960C82.24,960 80,957.76 80,955C80,952.24 82.24,950 85,950ZM85,951.299C87.043,951.299 88.701,952.957 88.701,955C88.701,957.043 87.043,958.701 85,958.701C82.957,958.701 81.299,957.043 81.299,955C81.299,952.957 82.957,951.299 85,951.299Z"/>
    </g>
    <g transform="matrix(0.493614,0,0,0.493614,36.0602,476.86)">
        <path d="M71,950C76.027,950 80.015,953.987 80.015,959.015" style="fill:none;stroke:black;stroke-width:2.92px;"/>
    </g>
    <g transform="matrix(-0.493614,0,0,0.493614,115.053,476.86)">
        <path d="M71,950C76.027,950 80.015,953.987 80.015,959.015" style="fill:none;stroke:black;stroke-width:2.92px;"/>
    </g>
    <g transform="matrix(0.493614,0,0,-0.493614,36.0602,1414.4)">
        <path d="M71,950C76.027,950 80.015,953.987 80.015,959.015" style="fill:none;stroke:black;stroke-width:2.92px;"/>
    </g>
    <g transform="matrix(-0.493614,0,0,-0.493614,115.053,1414.4)">
        <path d="M71,950C76.027,950 80.015,953.987 80.015,959.015" style="fill:none;stroke:black;stroke-width:2.92px;"/>
    </g>
    <g transform="matrix(1.11135,0,0,1.11135,-4.71279,-111.078)">
        <path d="M85,950C87.76,950 90,952.24 90,955C90,957.76 87.76,960 85,960C82.24,960 80,957.76 80,955C80,952.24 82.24,950 85,950ZM85,951.299C87.043,951.299 88.701,952.957 88.701,955C88.701,957.043 87.043,958.701 85,958.701C82.957,958.701 81.299,957.043 81.299,955C81.299,952.957 82.957,951.299 85,951.299Z"/>
    </g>
    <g transform="matrix(0.493614,0,0,0.493614,50.2553,481.318)">
        <path d="M71,950C76.027,950 80.015,953.987 80.015,959.015" style="fill:none;stroke:black;stroke-width:2.92px;"/>
    </g>
    <g transform="matrix(-0.493614,0,0,0.493614,129.248,481.318)">
        <path d="M71,950C76.027,950 80.015,953.987 80.015,959.015" style="fill:none;stroke:black;stroke-width:2.92px;"/>
    </g>
    <g transform="matrix(0.493614,0,0,-0.493614,50.2553,1419.19)">
        <path d="M71,950C76.027,950 80.015,953.987 80.015,959.015" style="fill:none;stroke:black;stroke-width:2.92px;"/>
    </g>
    <g transform="matrix(-0.493614,0,0,-0.493614,129.248,1419.19)">
        <path d="M71,950C76.027,950 80.015,953.987 80.015,959.015" style="fill:none;stroke:black;stroke-width:2.92px;"/>
    </g>
    <g transform="matrix(1.11135,0,0,1.11135,-9.433,-115.866)">
        <path d="M85,950C87.76,950 90,952.24 90,955C90,957.76 87.76,960 85,960C82.24,960 80,957.76 80,955C80,952.24 82.24,950 85,950ZM85,951.299C87.043,951.299 88.701,952.957 88.701,955C88.701,957.043 87.043,958.701 85,958.701C82.957,958.701 81.299,957.043 81.299,955C81.299,952.957 82.957,951.299 85,951.299Z"/>
    </g>
    <g transform="matrix(0.493614,0,0,0.493614,45.5351,476.86)">
        <path d="M71,950C76.027,950 80.015,953.987 80.015,959.015" style="fill:none;stroke:black;stroke-width:2.92px;"/>
    </g>
    <g transform="matrix(-0.493614,0,0,0.493614,124.528,476.86)">
        <path d="M71,950C76.027,950 80.015,953.987 80.015,959.015" style="fill:none;stroke:black;stroke-width:2.92px;"/>
    </g>
    <g transform="matrix(0.493614,0,0,-0.493614,45.5351,1414.4)">
        <path d="M71,950C76.027,950 80.015,953.987 80.015,959.015" style="fill:none;stroke:black;stroke-width:2.92px;"/>
    </g>
    <g transform="matrix(-0.493614,0,0,-0.493614,124.528,1414.4)">
        <path d="M71,950C76.027,950 80.015,953.987 80.015,959.015" style="fill:none;stroke:black;stroke-width:2.92px;"/>
    </g>
    <g transform="matrix(0.493614,0,0,0.493614,59.7301,481.318)">
        <path d="M71,950C76.027,950 80.015,953.987 80.015,959.015" style="fill:none;stroke:black;stroke-width:2.92px;"/>
    </g>
    <g transform="matrix(0.493614,0,0,-0.493614,59.7301,1419.19)">
        <path d="M71,950C76.027,950 80.015,953.987 80.015,959.015" style="fill:none;stroke:black;stroke-width:2.92px;"/>
    </g>
    <g transform="matrix(1,0,0,1,0,-40.0852)">
        <path d="M68.196,985.5C68.756,985.309 70.161,985.002 70.786,985.002C73.853,985.002 76.343,987.492 76.343,990.559C76.343,993.625 73.853,996.115 70.786,996.115C70.161,996.115 68.72,995.568 68.16,995.377L68.196,985.5ZM69.635,986.612C70.067,986.519 70.515,986.445 70.786,986.445C73.056,986.445 74.899,988.288 74.899,990.559C74.899,992.829 73.056,994.672 70.786,994.672C70.511,994.672 70.049,994.53 69.607,994.373L69.635,986.612Z"/>
    </g>
    <g transform="matrix(-0.493614,0,0,0.493614,110.283,481.532)">
        <path d="M71,950C76.027,950 80.015,953.987 80.015,959.015" style="fill:none;stroke:black;stroke-width:2.92px;"/>
    </g>
    <g transform="matrix(-0.493614,0,0,-0.493614,110.283,1419.41)">
        <path d="M71,950C76.027,950 80.015,953.987 80.015,959.015" style="fill:none;stroke:black;stroke-width:2.92px;"/>
    </g>
    <g transform="matrix(1.11135,0,0,1.11135,0.0418242,-115.866)">
        <path d="M85,950C87.76,950 90,952.24 90,955C90,957.76 87.76,960 85,960C82.24,960 80,957.76 80,955C80,952.24 82.24,950 85,950ZM85,951.299C87.043,951.299 88.701,952.957 88.701,955C88.701,957.043 87.043,958.701 85,958.701C82.957,958.701 81.299,957.043 81.299,955C81.299,952.957 82.957,951.299 85,951.299Z"/>
    </g>
    <g transform="matrix(0.493614,0,0,0.493614,55.0099,476.86)">
        <path d="M71,950C76.027,950 80.015,953.987 80.015,959.015" style="fill:none;stroke:black;stroke-width:2.92px;"/>
    </g>
    <g transform="matrix(0.493614,0,0,-0.493614,55.0099,1414.4)">
        <path d="M71,950C76.027,950 80.015,953.987 80.015,959.015" style="fill:none;stroke:black;stroke-width:2.92px;"/>
    </g>
    <g transform="matrix(-0.493614,0,0,-0.493614,134.003,1414.4)">
        <path d="M71,950C76.027,950 80.015,953.987 80.015,959.015" style="fill:none;stroke:black;stroke-width:2.92px;"/>
    </g>
    <g transform="matrix(0.493614,0,0,0.493614,40.7805,481.447)">
        <path d="M71,950C76.027,950 80.015,953.987 80.015,959.015" style="fill:none;stroke:black;stroke-width:2.92px;"/>
    </g>
    <g transform="matrix(-0.493614,0,0,0.493614,119.773,481.447)">
        <path d="M71,950C76.027,950 80.015,953.987 80.015,959.015" style="fill:none;stroke:black;stroke-width:2.92px;"/>
    </g>
    <g transform="matrix(0.493614,0,0,0.493614,50.2553,481.447)">
        <path d="M71,950C76.027,950 80.015,953.987 80.015,959.015" style="fill:none;stroke:black;stroke-width:2.92px;"/>
    </g>
    <g transform="matrix(-0.493614,0,0,0.493614,129.248,481.447)">
        <path d="M71,950C76.027,950 80.015,953.987 80.015,959.015" style="fill:none;stroke:black;stroke-width:2.92px;"/>
    </g>
    <g transform="matrix(0.493614,0,0,0.493614,59.7301,481.447)">
        <path d="M71,950C76.027,950 80.015,953.987 80.015,959.015" style="fill:none;stroke:black;stroke-width:2.92px;"/>
    </g>
    <g transform="matrix(1.11135,0,0,1.11135,-14.1876,-101.406)">
        <path d="M85,950C87.76,950 90,952.24 90,955C90,957.76 87.76,960 85,960C82.24,960 80,957.76 80,955C80,952.24 82.24,950 85,950ZM85,951.299C87.043,951.299 88.701,952.957 88.701,955C88.701,957.043 87.043,958.701 85,958.701C82.957,958.701 81.299,957.043 81.299,955C81.299,952.957 82.957,951.299 85,951.299Z"/>
    </g>
    <g transform="matrix(0.493614,0,0,0.493614,40.7805,490.99)">
        <path d="M71,950C76.027,950 80.015,953.987 80.015,959.015" style="fill:none;stroke:black;stroke-width:2.92px;"/>
    </g>
    <g transform="matrix(-0.493614,0,0,0.493614,119.773,490.99)">
        <path d="M71,950C76.027,950 80.015,953.987 80.015,959.015" style="fill:none;stroke:black;stroke-width:2.92px;"/>
    </g>
    <g transform="matrix(0.493614,0,0,-0.493614,40.7805,1428.86)">
        <path d="M71,950C76.027,950 80.015,953.987 80.015,959.015" style="fill:none;stroke:black;stroke-width:2.92px;"/>
    </g>
    <g transform="matrix(-0.493614,0,0,-0.493614,119.773,1428.86)">
        <path d="M71,950C76.027,950 80.015,953.987 80.015,959.015" style="fill:none;stroke:black;stroke-width:2.92px;"/>
    </g>
    <g transform="matrix(1.11135,0,0,1.11135,-18.9078,-106.194)">
        <path d="M85,950C87.76,950 90,952.24 90,955C90,957.76 87.76,960 85,960C82.24,960 80,957.76 80,955C80,952.24 82.24,950 85,950ZM85,951.299C87.043,951.299 88.701,952.957 88.701,955C88.701,957.043 87.043,958.701 85,958.701C82.957,958.701 81.299,957.043 81.299,955C81.299,952.957 82.957,951.299 85,951.299Z"/>
    </g>
    <g transform="matrix(0.493614,0,0,0.493614,36.0602,486.531)">
        <path d="M71,950C76.027,950 80.015,953.987 80.015,959.015" style="fill:none;stroke:black;stroke-width:2.92px;"/>
    </g>
    <g transform="matrix(-0.493614,0,0,0.493614,115.053,486.531)">
        <path d="M71,950C76.027,950 80.015,953.987 80.015,959.015" style="fill:none;stroke:black;stroke-width:2.92px;"/>
    </g>
    <g transform="matrix(0.493614,0,0,-0.493614,36.0602,1424.08)">
        <path d="M71,950C76.027,950 80.015,953.987 80.015,959.015" style="fill:none;stroke:black;stroke-width:2.92px;"/>
    </g>
    <g transform="matrix(-0.493614,0,0,-0.493614,115.053,1424.08)">
        <path d="M71,950C76.027,950 80.015,953.987 80.015,959.015" style="fill:none;stroke:black;stroke-width:2.92px;"/>
    </g>
    <g transform="matrix(1.11135,0,0,1.11135,-4.71279,-101.406)">
        <path d="M85,950C87.76,950 90,952.24 90,955C90,957.76 87.76,960 85,960C82.24,960 80,957.76 80,955C80,952.24 82.24,950 85,950ZM85,951.299C87.043,951.299 88.701,952.957 88.701,955C88.701,957.043 87.043,958.701 85,958.701C82.957,958.701 81.299,957.043 81.299,955C81.299,952.957 82.957,951.299 85,951.299Z"/>
    </g>
    <g transform="matrix(0.493614,0,0,0.493614,50.2553,490.99)">
        <path d="M71,950C76.027,950 80.015,953.987 80.015,959.015" style="fill:none;stroke:black;stroke-width:2.92px;"/>
    </g>
    <g transform="matrix(-0.493614,0,0,0.493614,129.248,490.99)">
        <path d="M71,950C76.027,950 80.015,953.987 80.015,959.015" style="fill:none;stroke:black;stroke-width:2.92px;"/>
    </g>
    <g transform="matrix(0.493614,0,0,-0.493614,50.2553,1428.86)">
        <path d="M71,950C76.027,950 80.015,953.987 80.015,959.015" style="fill:none;stroke:black;stroke-width:2.92px;"/>
    </g>
    <g transform="matrix(-0.493614,0,0,-0.493614,129.248,1428.86)">
        <path d="M71,950C76.027,950 80.015,953.987 80.015,959.015" style="fill:none;stroke:black;stroke-width:2.92px;"/>
    </g>
    <g transform="matrix(1.11135,0,0,1.11135,-9.433,-106.194)">
        <path d="M85,950C87.76,950 90,952.24 90,955C90,957.76 87.76,960 85,960C82.24,960 80,957.76 80,955C80,952.24 82.24,950 85,950ZM85,951.299C87.043,951.299 88.701,952.957 88.701,955C88.701,957.043 87.043,958.701 85,958.701C82.957,958.701 81.299,957.043 81.299,955C81.299,952.957 82.957,951.299 85,951.299Z"/>
    </g>
    <g transform="matrix(0.493614,0,0,0.493614,45.5351,486.531)">
        <path d="M71,950C76.027,950 80.015,953.987 80.015,959.015" style="fill:none;stroke:black;stroke-width:2.92px;"/>
    </g>
    <g transform="matrix(-0.493614,0,0,0.493614,124.528,486.531)">
        <path d="M71,950C76.027,950 80.015,953.987 80.015,959.015" style="fill:none;stroke:black;stroke-width:2.92px;"/>
    </g>
    <g transform="matrix(0.493614,0,0,-0.493614,45.5351,1424.08)">
        <path d="M71,950C76.027,950 80.015,953.987 80.015,959.015" style="fill:none;stroke:black;stroke-width:2.92px;"/>
    </g>
    <g transform="matrix(-0.493614,0,0,-0.493614,124.528,1424.08)">
        <path d="M71,950C76.027,950 80.015,953.987 80.015,959.015" style="fill:none;stroke:black;stroke-width:2.92px;"/>
    </g>
    <g transform="matrix(0.493614,0,0,0.493614,59.7301,490.99)">
        <path d="M71,950C76.027,950 80.015,953.987 80.015,959.015" style="fill:none;stroke:black;stroke-width:2.92px;"/>
    </g>
    <g transform="matrix(0.493614,0,0,-0.493614,59.7301,1428.86)">
        <path d="M71,950C76.027,950 80.015,953.987 80.015,959.015" style="fill:none;stroke:black;stroke-width:2.92px;"/>
    </g>
    <g transform="matrix(-0.493614,0,0,0.493614,110.283,491.204)">
        <path d="M71,950C76.027,950 80.015,953.987 80.015,959.015" style="fill:none;stroke:black;stroke-width:2.92px;"/>
    </g>
    <g transform="matrix(-0.493614,0,0,-0.493614,110.283,1429.08)">
        <path d="M71,950C76.027,950 80.015,953.987 80.015,959.015" style="fill:none;stroke:black;stroke-width:2.92px;"/>
    </g>
    <g transform="matrix(1.11135,0,0,1.11135,0.0418242,-106.194)">
        <path d="M85,950C87.76,950 90,952.24 90,955C90,957.76 87.76,960 85,960C82.24,960 80,957.76 80,955C80,952.24 82.24,950 85,950ZM85,951.299C87.043,951.299 88.701,952.957 88.701,955C88.701,957.043 87.043,958.701 85,958.701C82.957,958.701 81.299,957.043 81.299,955C81.299,952.957 82.957,951.299 85,951.299Z"/>
    </g>
    <g transform="matrix(0.493614,0,0,0.493614,55.0099,486.531)">
        <path d="M71,950C76.027,950 80.015,953.987 80.015,959.015" style="fill:none;stroke:black;stroke-width:2.92px;"/>
    </g>
    <g transform="matrix(0.493614,0,0,-0.493614,55.0099,1424.08)">
        <path d="M71,950C76.027,950 80.015,953.987 80.015,959.015" style="fill:none;stroke:black;stroke-width:2.92px;"/>
    </g>
    <g transform="matrix(0.493614,0,0,0.493614,40.7805,491.096)">
        <path d="M71,950C76.027,950 80.015,953.987 80.015,959.015" style="fill:none;stroke:black;stroke-width:2.92px;"/>
    </g>
    <g transform="matrix(-0.493614,0,0,0.493614,119.773,491.096)">
        <path d="M71,950C76.027,950 80.015,953.987 80.015,959.015" style="fill:none;stroke:black;stroke-width:2.92px;"/>
    </g>
    <g transform="matrix(0.493614,0,0,0.493614,50.2553,491.096)">
        <path d="M71,950C76.027,950 80.015,953.987 80.015,959.015" style="fill:none;stroke:black;stroke-width:2.92px;"/>
    </g>
    <g transform="matrix(-0.493614,0,0,0.493614,129.248,491.096)">
        <path d="M71,950C76.027,950 80.015,953.987 80.015,959.015" style="fill:none;stroke:black;stroke-width:2.92px;"/>
    </g>
    <g transform="matrix(0.493614,0,0,0.493614,59.7301,491.096)">
        <path d="M71,950C76.027,950 80.015,953.987 80.015,959.015" style="fill:none;stroke:black;stroke-width:2.92px;"/>
    </g>
    <g transform="matrix(0.493614,0,0,-0.493614,40.7805,1438.51)">
        <path d="M71,950C76.027,950 80.015,953.987 80.015,959.015" style="fill:none;stroke:black;stroke-width:2.92px;"/>
    </g>
    <g transform="matrix(-0.493614,0,0,-0.493614,119.773,1438.51)">
        <path d="M71,950C76.027,950 80.015,953.987 80.015,959.015" style="fill:none;stroke:black;stroke-width:2.92px;"/>
    </g>
    <g transform="matrix(1.11135,0,0,1.11135,-18.9078,-96.5454)">
        <path d="M85,950C87.76,950 90,952.24 90,955C90,957.76 87.76,960 85,960C82.24,960 80,957.76 80,955C80,952.24 82.24,950 85,950ZM85,951.299C87.043,951.299 88.701,952.957 88.701,955C88.701,957.043 87.043,958.701 85,958.701C82.957,958.701 81.299,957.043 81.299,955C81.299,952.957 82.957,951.299 85,951.299Z"/>
    </g>
    <g transform="matrix(0.493614,0,0,0.493614,36.0602,496.18)">
        <path d="M71,950C76.027,950 80.015,953.987 80.015,959.015" style="fill:none;stroke:black;stroke-width:2.92px;"/>
    </g>
    <g transform="matrix(0.493614,0,0,-0.493614,36.0602,1433.72)">
        <path d="M71,950C76.027,950 80.015,953.987 80.015,959.015" style="fill:none;stroke:black;stroke-width:2.92px;"/>
    </g>
    <g transform="matrix(-0.493614,0,0,-0.493614,115.053,1433.72)">
        <path d="M71,950C76.027,950 80.015,953.987 80.015,959.015" style="fill:none;stroke:black;stroke-width:2.92px;"/>
    </g>
    <g transform="matrix(0.493614,0,0,-0.493614,50.2553,1438.51)">
        <path d="M71,950C76.027,950 80.015,953.987 80.015,959.015" style="fill:none;stroke:black;stroke-width:2.92px;"/>
    </g>
    <g transform="matrix(-0.493614,0,0,-0.493614,129.248,1438.51)">
        <path d="M71,950C76.027,950 80.015,953.987 80.015,959.015" style="fill:none;stroke:black;stroke-width:2.92px;"/>
    </g>
    <g transform="matrix(1.11135,0,0,1.11135,-9.433,-96.5454)">
        <path d="M85,950C87.76,950 90,952.24 90,955C90,957.76 87.76,960 85,960C82.24,960 80,957.76 80,955C80,952.24 82.24,950 85,950ZM85,951.299C87.043,951.299 88.701,952.957 88.701,955C88.701,957.043 87.043,958.701 85,958.701C82.957,958.701 81.299,957.043 81.299,955C81.299,952.957 82.957,951.299 85,951.299Z"/>
    </g>
    <g transform="matrix(0.493614,0,0,-0.493614,45.5351,1433.72)">
        <path d="M71,950C76.027,950 80.015,953.987 80.015,959.015" style="fill:none;stroke:black;stroke-width:2.92px;"/>
    </g>
    <g transform="matrix(-0.493614,0,0,-0.493614,124.528,1433.72)">
        <path d="M71,950C76.027,950 80.015,953.987 80.015,959.015" style="fill:none;stroke:black;stroke-width:2.92px;"/>
    </g>
    <g transform="matrix(0.493614,0,0,-0.493614,59.7301,1438.51)">
        <path d="M71,950C76.027,950 80.015,953.987 80.015,959.015" style="fill:none;stroke:black;stroke-width:2.92px;"/>
    </g>
    <g transform="matrix(-0.493614,0,0,-0.493614,110.283,1438.73)">
        <path d="M71,950C76.027,950 80.015,953.987 80.015,959.015" style="fill:none;stroke:black;stroke-width:2.92px;"/>
    </g>
    <g transform="matrix(1.11135,0,0,1.11135,0.0418242,-96.5454)">
        <path d="M85,950C87.76,950 90,952.24 90,955C90,957.76 87.76,960 85,960C82.24,960 80,957.76 80,955C80,952.24 82.24,950 85,950ZM85,951.299C87.043,951.299 88.701,952.957 88.701,955C88.701,957.043 87.043,958.701 85,958.701C82.957,958.701 81.299,957.043 81.299,955C81.299,952.957 82.957,951.299 85,951.299Z"/>
    </g>
    <g transform="matrix(-0.493614,0,0,0.493614,134.003,496.18)">
        <path d="M71,950C76.027,950 80.015,953.987 80.015,959.015" style="fill:none;stroke:black;stroke-width:2.92px;"/>
    </g>
    <g transform="matrix(0.493614,0,0,-0.493614,55.0099,1433.72)">
        <path d="M71,950C76.027,950 80.015,953.987 80.015,959.015" style="fill:none;stroke:black;stroke-width:2.92px;"/>
    </g>
    <g transform="matrix(1,0,0,1,0,-40.0852)">
        <path d="M68.16,995.228C68.72,995.038 70.161,994.673 70.786,994.673C73.853,994.673 76.343,997.163 76.343,1000.23C76.343,1003.3 73.853,1005.79 70.786,1005.79C70.161,1005.79 68.72,1005.44 68.16,1005.25L68.16,995.228ZM69.603,996.317C70.047,996.208 70.512,996.117 70.786,996.117C73.056,996.117 74.899,997.96 74.899,1000.23C74.899,1002.5 73.056,1004.34 70.786,1004.34C70.512,1004.34 70.047,1004.26 69.603,1004.15L69.603,996.317Z"/>
    </g>
    <g transform="matrix(1,0,0,1,0,-40.0852)">
        <path d="M101.75,1010.11C101.75,1011.02 101.016,1011.75 100.112,1011.75C97.857,1011.75 94.075,1011.75 94.075,1011.75C93.814,1011.11 93.67,1010.4 93.67,1009.67C93.67,1006.6 96.16,1004.11 99.227,1004.11C100.135,1004.11 100.993,1004.33 101.75,1004.71L101.75,1010.11ZM100.306,1010.11C100.306,1010.22 100.219,1010.31 100.112,1010.31C100.112,1010.31 95.163,1010.31 95.163,1010.31C95.13,1010.1 95.113,1009.88 95.113,1009.67C95.113,1007.39 96.956,1005.55 99.227,1005.55C99.6,1005.55 99.962,1005.6 100.306,1005.7L100.306,1010.11Z"/>
    </g>
    <g transform="matrix(1,0,0,1,0,-40.0852)">
        <path d="M101.875,1004.9C101.088,1005.33 100.185,1005.57 99.227,1005.57C96.16,1005.57 93.67,1003.08 93.67,1000.02C93.67,996.949 96.16,994.46 99.227,994.46C100.185,994.46 101.088,994.703 101.875,995.131L101.875,1004.9ZM100.431,1003.95C100.05,1004.07 99.646,1004.13 99.227,1004.13C96.956,1004.13 95.113,1002.29 95.113,1000.02C95.113,997.746 96.956,995.903 99.227,995.903C99.646,995.903 100.05,995.966 100.431,996.082C100.431,996.083 100.431,1003.95 100.431,1003.95L100.431,1003.95Z"/>
    </g>
    <g transform="matrix(1,0,0,1,0,-40.0852)">
        <path d="M101.75,995.296C100.993,995.683 100.135,995.901 99.227,995.901C96.16,995.901 93.67,993.412 93.67,990.345C93.67,987.278 96.16,984.788 99.227,984.788C100.135,984.788 100.993,985.006 101.75,985.393L101.75,995.296ZM100.306,994.315C99.962,994.408 99.6,994.458 99.227,994.458C96.956,994.458 95.113,992.615 95.113,990.345C95.113,988.075 96.956,986.232 99.227,986.232C99.6,986.232 99.962,986.281 100.306,986.375L100.306,994.315Z"/>
    </g>
    <g transform="matrix(1,0,0,1,0,-40.0852)">
        <path d="M84.6,1011.75C84.339,1011.11 84.195,1010.4 84.195,1009.67C84.195,1006.6 86.685,1004.11 89.752,1004.11C92.819,1004.11 95.309,1006.6 95.309,1009.67C95.309,1010.4 95.165,1011.11 94.903,1011.75L84.6,1011.75ZM85.688,1010.31C85.656,1010.1 85.639,1009.88 85.639,1009.67C85.639,1007.39 87.482,1005.55 89.752,1005.55C92.022,1005.55 93.865,1007.39 93.865,1009.67C93.865,1009.88 93.848,1010.1 93.815,1010.31L85.688,1010.31Z"/>
    </g>
    <g transform="matrix(1,0,0,1,0,-40.0852)">
        <path d="M75.125,1011.75C74.864,1011.11 74.72,1010.4 74.72,1009.67C74.72,1006.6 77.21,1004.11 80.277,1004.11C83.344,1004.11 85.834,1006.6 85.834,1009.67C85.834,1010.4 85.69,1011.11 85.429,1011.75L75.125,1011.75ZM76.213,1010.31C76.181,1010.1 76.164,1009.88 76.164,1009.67C76.164,1007.39 78.007,1005.55 80.277,1005.55C82.547,1005.55 84.39,1007.39 84.39,1009.67C84.39,1009.88 84.373,1010.1 84.34,1010.31L76.213,1010.31Z"/>
    </g>
    <g transform="matrix(1,0,0,1,0,-40.0852)">
        <path d="M70.551,1012.07C69.694,1012.07 69,1011.38 69,1010.52C69,1008.34 69,1004.62 69,1004.62C69.561,1004.43 70.161,1004.32 70.786,1004.32C73.853,1004.32 76.343,1006.81 76.343,1009.88C76.343,1010.44 76.019,1011.57 75.862,1012.09C75.862,1012.09 72.575,1012.08 70.551,1012.07ZM70.554,1010.63C70.554,1010.63 70.554,1010.63 70.554,1010.63C70.493,1010.63 70.444,1010.58 70.444,1010.52C70.444,1010.52 70.444,1005.78 70.444,1005.78C70.557,1005.77 70.671,1005.77 70.786,1005.77C73.056,1005.77 74.899,1007.61 74.899,1009.88C74.899,1010.07 74.846,1010.35 74.776,1010.64C74.776,1010.64 70.554,1010.63 70.554,1010.63Z"/>
    </g>
    <g transform="matrix(1.49626,0,0,1.49626,-42.1898,-494.357)">
        <path d="M80.4,993.593C82.028,990.082 88.145,990.098 89.659,993.714" style="fill:none;stroke:black;stroke-width:0.96px;"/>
    </g>
    <g transform="matrix(0.897758,0,0,0.897758,8.68316,101.598)">
        <path d="M80.648,993.137C82.458,990.273 87.554,990.253 89.358,993.132" style="fill:none;stroke:black;stroke-width:1.61px;"/>
    </g>
    <g transform="matrix(0.250822,0,0,0.21331,63.6727,782.966)">
        <path d="M80,995.5C80,989.501 90,989.448 90,995.5" style="fill:none;stroke:black;stroke-width:6.2px;"/>
    </g>
    <g transform="matrix(1.49626,0,0,1.49626,-34.6637,-490.228)">
        <path d="M80,995.5C80,989.501 90,989.448 90,995.5" style="fill:none;stroke:black;stroke-width:0.96px;"/>
    </g>
    <g transform="matrix(0.897758,0,0,0.897758,16.2093,105.727)">
        <path d="M80,995.5C80,989.501 90,989.448 90,995.5" style="fill:none;stroke:black;stroke-width:1.61px;"/>
    </g>
    <g transform="matrix(1.49626,0,0,1.49626,-49.6711,-490.228)">
        <path d="M80,995.5C80,989.501 90,989.448 90,995.5" style="fill:none;stroke:black;stroke-width:0.96px;"/>
    </g>
    <g transform="matrix(0.897758,0,0,0.897758,1.20185,105.727)">
        <path d="M80,995.5C80,989.501 90,989.448 90,995.5" style="fill:none;stroke:black;stroke-width:1.61px;"/>
    </g>
    <g transform="matrix(0.43076,0,0,0.553202,40.8967,450.287)">
        <path d="M80,995.5C80,989.501 90,989.448 90,995.5" style="fill:none;stroke:black;stroke-width:2.91px;"/>
    </g>
    <g transform="matrix(0.43076,0,0,0.553202,55.8854,450.287)">
        <path d="M80,995.5C80,989.501 90,989.448 90,995.5" style="fill:none;stroke:black;stroke-width:2.91px;"/>
    </g>
    <g transform="matrix(1.49626,0,0,1.49626,-42.1898,-505.803)">
        <path d="M88.892,992.525C89.199,992.856 89.456,993.24 89.644,993.677M80.335,993.74C80.528,993.277 80.797,992.872 81.123,992.525" style="fill:none;stroke:black;stroke-width:0.96px;"/>
    </g>
    <g transform="matrix(0.897758,0,0,0.897758,8.68316,90.1531)">
        <path d="M80.615,993.19C82.38,990.299 87.454,990.237 89.309,993.056" style="fill:none;stroke:black;stroke-width:1.61px;"/>
    </g>
    <g transform="matrix(0.301486,0,0,0.21331,59.3663,771.521)">
        <path d="M80,995.5C80,989.501 90,989.448 90,995.5" style="fill:none;stroke:black;stroke-width:5.53px;"/>
    </g>
    <g transform="matrix(1.49626,0,0,1.49626,-34.6637,-501.268)">
        <path d="M80,995.5C80,989.501 90,989.448 90,995.5" style="fill:none;stroke:black;stroke-width:0.96px;"/>
    </g>
    <g transform="matrix(0.897758,0,0,0.897758,16.2093,94.6879)">
        <path d="M80,995.5C80,989.501 90,989.448 90,995.5" style="fill:none;stroke:black;stroke-width:1.61px;"/>
    </g>
    <g transform="matrix(0.43076,0,0,0.553202,55.8854,439.248)">
        <path d="M80,995.5C80,989.501 90,989.448 90,995.5" style="fill:none;stroke:black;stroke-width:2.91px;"/>
    </g>
    <g transform="matrix(1.49626,0,0,1.49626,-49.701,-501.268)">
        <path d="M80,995.5C80,989.501 90,989.448 90,995.5" style="fill:none;stroke:black;stroke-width:0.96px;"/>
    </g>
    <g transform="matrix(0.897758,0,0,0.897758,1.17191,94.6879)">
        <path d="M80,995.5C80,989.501 90,989.448 90,995.5" style="fill:none;stroke:black;stroke-width:1.61px;"/>
    </g>
    <g transform="matrix(0.43076,0,0,0.553202,40.8481,439.248)">
        <path d="M80,995.5C80,989.501 90,989.448 90,995.5" style="fill:none;stroke:black;stroke-width:2.91px;"/>
    </g>
    <g transform="matrix(1.49626,0,0,1.49626,-42.1898,-483.467)">
        <path d="M80.335,993.74C81.851,990.099 88.067,990.049 89.638,993.664" style="fill:none;stroke:black;stroke-width:0.96px;"/>
    </g>
    <g transform="matrix(0.897758,0,0,0.897758,8.68316,112.489)">
        <path d="M80.71,993.042C82.572,990.273 87.575,990.286 89.358,993.132" style="fill:none;stroke:black;stroke-width:1.61px;"/>
    </g>
    <g transform="matrix(0.250822,0,0,0.21331,63.6727,793.857)">
        <path d="M80,995.5C80,989.501 90,989.448 90,995.5" style="fill:none;stroke:black;stroke-width:6.2px;"/>
    </g>
    <g transform="matrix(1.49626,0,0,1.49626,-27.1637,-483.467)">
        <path d="M80.335,993.74C81.183,991.703 83.502,990.79 85.656,991.014" style="fill:none;stroke:black;stroke-width:0.96px;"/>
    </g>
    <g transform="matrix(0.897758,0,0,0.897758,23.7093,112.489)">
        <path d="M80.646,993.141C81.741,991.403 84.046,990.71 86.093,991.075" style="fill:none;stroke:black;stroke-width:1.61px;"/>
    </g>
    <g transform="matrix(0.21331,0,0,0.21331,81.8874,793.857)">
        <path d="M80,995.5C80,989.501 90,989.448 90,995.5" style="fill:none;stroke:black;stroke-width:6.77px;"/>
    </g>
    <g transform="matrix(1.49626,0,0,1.49626,-57.1637,-483.467)">
        <path d="M84.411,991.01C86.55,990.801 88.835,991.706 89.67,993.74" style="fill:none;stroke:black;stroke-width:0.96px;"/>
    </g>
    <g transform="matrix(0.897758,0,0,0.897758,-6.29072,112.489)">
        <path d="M83.865,991.089C85.889,990.703 88.176,991.35 89.3,993.042" style="fill:none;stroke:black;stroke-width:1.61px;"/>
    </g>
    <g transform="matrix(0.21331,0,0,0.21331,51.8874,793.857)">
        <path d="M80,995.5C80,989.501 90,989.448 90,995.5" style="fill:none;stroke:black;stroke-width:6.77px;"/>
    </g>
    <g transform="matrix(1.49626,0,0,1.49626,-27.1637,-494.174)">
        <path d="M80.459,993.47C81.393,991.623 83.6,990.8 85.656,991.014" style="fill:none;stroke:black;stroke-width:0.96px;"/>
    </g>
    <g transform="matrix(0.897758,0,0,0.897758,23.7093,101.782)">
        <path d="M80.786,992.932C81.93,991.348 84.13,990.725 86.093,991.075" style="fill:none;stroke:black;stroke-width:1.61px;"/>
    </g>
    <g transform="matrix(0.21331,0,0,0.21331,81.8874,783.15)">
        <path d="M80,995.5C80,989.501 90,989.448 90,995.5" style="fill:none;stroke:black;stroke-width:6.77px;"/>
    </g>
    <g transform="matrix(1.49626,0,0,1.49626,-57.1637,-494.174)">
        <path d="M84.478,991.004C86.501,990.828 88.638,991.647 89.548,993.47" style="fill:none;stroke:black;stroke-width:0.96px;"/>
    </g>
    <g transform="matrix(0.897758,0,0,0.897758,-6.29072,101.782)">
        <path d="M84.131,991.044C86.041,990.768 88.127,991.394 89.224,992.932" style="fill:none;stroke:black;stroke-width:1.61px;"/>
    </g>
    <g transform="matrix(0.21331,0,0,0.21331,51.8874,783.15)">
        <path d="M80,995.5C80,989.501 90,989.448 90,995.5" style="fill:none;stroke:black;stroke-width:6.77px;"/>
    </g>
    <g transform="matrix(1.49626,0,0,1.49626,-27.1637,-505.674)">
        <path d="M80.372,993.654C80.579,993.188 80.864,992.783 81.206,992.438" style="fill:none;stroke:black;stroke-width:0.96px;"/>
    </g>
    <g transform="matrix(0.897758,0,0,0.897758,23.7093,90.2822)">
        <path d="M80.707,993.046C81.826,991.378 84.083,990.717 86.093,991.075" style="fill:none;stroke:black;stroke-width:1.61px;"/>
    </g>
    <g transform="matrix(0.237693,0,0,0.21331,79.6929,771.65)">
        <path d="M80,995.5C80,989.501 90,989.448 90,995.5" style="fill:none;stroke:black;stroke-width:6.39px;"/>
    </g>
    <g transform="matrix(1.49626,0,0,1.49626,-57.1637,-505.674)">
        <path d="M88.809,992.438C89.133,992.767 89.404,993.151 89.606,993.591" style="fill:none;stroke:black;stroke-width:0.96px;"/>
    </g>
    <g transform="matrix(0.897758,0,0,0.897758,-6.29072,90.2822)">
        <path d="M84.422,991.009C86.297,990.829 88.282,991.505 89.303,993.046" style="fill:none;stroke:black;stroke-width:1.61px;"/>
    </g>
    <g transform="matrix(0.233941,0,0,0.21331,50.2368,771.65)">
        <path d="M80,995.5C80,989.501 90,989.448 90,995.5" style="fill:none;stroke:black;stroke-width:6.45px;"/>
    </g>
    <g transform="matrix(1.49626,0,0,1.49626,-34.6637,-479.337)">
        <path d="M80,995.5C80,989.501 90,989.448 90,995.5" style="fill:none;stroke:black;stroke-width:0.96px;"/>
    </g>
    <g transform="matrix(0.897758,0,0,0.897758,16.2093,116.618)">
        <path d="M80,995.5C80,989.501 90,989.448 90,995.5" style="fill:none;stroke:black;stroke-width:1.61px;"/>
    </g>
    <g transform="matrix(0.21331,0,0,0.21331,74.3874,797.986)">
        <path d="M80,995.5C80,989.501 90,989.448 90,995.5" style="fill:none;stroke:black;stroke-width:6.77px;"/>
    </g>
    <g transform="matrix(1.49626,0,0,1.49626,-49.6711,-479.337)">
        <path d="M80,995.5C80,989.501 90,989.448 90,995.5" style="fill:none;stroke:black;stroke-width:0.96px;"/>
    </g>
    <g transform="matrix(0.897758,0,0,0.897758,1.20185,116.618)">
        <path d="M80,995.5C80,989.501 90,989.448 90,995.5" style="fill:none;stroke:black;stroke-width:1.61px;"/>
    </g>
    <g transform="matrix(0.21331,0,0,0.21331,59.3799,797.986)">
        <path d="M80,995.5C80,989.501 90,989.448 90,995.5" style="fill:none;stroke:black;stroke-width:6.77px;"/>
    </g>
    <g transform="matrix(6.74344e-17,-1,1.10129,6.12323e-17,35.3585,290)">
        <path d="M40,31L40,59" style="fill:none;stroke:black;stroke-width:1.78px;"/>
    </g>
    <g transform="matrix(6.74344e-17,-1,1.10129,6.12323e-17,35.6885,280)">
        <path d="M40,31L40,59" style="fill:none;stroke:black;stroke-width:1.78px;"/>
    </g>
    <g transform="matrix(-1,-1.35586e-16,1.22465e-16,-1.10714,129.932,294.821)">
        <path d="M40,31L40,59" style="fill:none;stroke:black;stroke-width:1.78px;"/>
    </g>
    <g transform="matrix(-1,-1.35586e-16,1.22465e-16,-1.10714,119.932,294.821)">
        <path d="M40,31L40,59" style="fill:none;stroke:black;stroke-width:1.78px;"/>
    </g>
    <g transform="matrix(6.74344e-17,-1,1.10129,6.12323e-17,35.3585,250)">
        <path d="M40,31L40,59" style="fill:none;stroke:black;stroke-width:1.78px;"/>
    </g>
    <g transform="matrix(6.74344e-17,-1,1.10129,6.12323e-17,35.6885,240)">
        <path d="M40,31L40,59" style="fill:none;stroke:black;stroke-width:1.78px;"/>
    </g>
    <g transform="matrix(-1,-1.35586e-16,1.22465e-16,-1.10714,129.932,254.821)">
        <path d="M40,31L40,59" style="fill:none;stroke:black;stroke-width:1.78px;"/>
    </g>
    <g transform="matrix(-1,-1.35586e-16,1.22465e-16,-1.10714,119.932,254.821)">
        <path d="M40,31L40,59" style="fill:none;stroke:black;stroke-width:1.78px;"/>
    </g>
</svg>
